<svg xmlns="http://www.w3.org/2000/svg" xmlns:xlink="http://www.w3.org/1999/xlink" viewBox="0 0 660 400"><defs><linearGradient id="linear-gradient-28" x1="309.27" y1="199.16" x2="369.28" y2="233.81" gradientUnits="userSpaceOnUse"><stop offset="0" stop-color="#fff"/><stop offset=".31" stop-color="#e8ddf0"/><stop offset=".98" stop-color="#b188cc"/><stop offset="1" stop-color="#b086cc"/></linearGradient><linearGradient id="linear-gradient-29" x1="309.62" y1="199.22" x2="368.91" y2="233.45" xlink:href="#linear-gradient-28"/><linearGradient id="linear-gradient-3" x1="433.17" y1="366.92" x2="268.15" y2="18.23" gradientTransform="matrix(1.08976 .02283 -.36705 .91251 29.37 7.19)" gradientUnits="userSpaceOnUse"><stop offset="0" stop-color="#311b61"/><stop offset=".2" stop-color="#290e52"/><stop offset=".49" stop-color="#200041"/><stop offset="1" stop-color="#0f001f"/></linearGradient><linearGradient id="linear-gradient-4" x1="312.21" y1="220.84" x2="415.86" y2="220.84" xlink:href="#linear-gradient-3"/><linearGradient id="linear-gradient-5" x1="300.5" y1="99.7" x2="458.18" y2="400.36" gradientTransform="matrix(1.08976 .02283 -.36705 .91251 29.37 7.19)" gradientUnits="userSpaceOnUse"><stop offset=".01" stop-color="#9f19ab"/><stop offset=".43" stop-color="#5f27bd"/><stop offset=".9" stop-color="#3d065f"/></linearGradient><linearGradient id="New_Gradient_Swatch_copy_9" data-name="New Gradient Swatch copy 9" x1="409.75" y1="210.35" x2="315.76" y2="76.39" gradientTransform="matrix(1.08976 .02283 -.36705 .91251 29.37 7.19)" gradientUnits="userSpaceOnUse"><stop offset=".04" stop-color="#9f19ab"/><stop offset=".24" stop-color="#ae24b0"/><stop offset=".65" stop-color="#d643bf"/><stop offset="1" stop-color="#ff63ce"/></linearGradient><linearGradient id="New_Gradient_Swatch_copy_7" data-name="New Gradient Swatch copy 7" x1="428.85" y1="285.83" x2="342.61" y2="162.92" gradientTransform="matrix(1.08976 .02283 -.36705 .91251 29.37 7.19)" gradientUnits="userSpaceOnUse"><stop offset=".04" stop-color="#138bbd"/><stop offset=".23" stop-color="#169ac6"/><stop offset=".59" stop-color="#1ec2df"/><stop offset="1" stop-color="#2af6ff"/></linearGradient><linearGradient id="New_Gradient_Swatch_copy_8" data-name="New Gradient Swatch copy 8" x1="412.4" y1="348.41" x2="315.73" y2="210.64" gradientTransform="matrix(1.08976 .02283 -.36705 .91251 29.37 7.19)" gradientUnits="userSpaceOnUse"><stop offset=".04" stop-color="#ffa98c"/><stop offset=".32" stop-color="#feb892"/><stop offset=".86" stop-color="#fee0a3"/><stop offset="1" stop-color="#feeca8"/></linearGradient><linearGradient id="linear-gradient-6" x1="-138.11" y1="10552.72" x2="-119.57" y2="10552.72" gradientTransform="matrix(-1.07816 1.30142 -1.1283 .43713 12205.4 -4227.87)" xlink:href="#linear-gradient-3"/><linearGradient id="linear-gradient-7" x1="430.86" y1="187.13" x2="418.07" y2="186.58" gradientTransform="matrix(1.08976 .02283 -.36705 .91251 29.37 7.19)" gradientUnits="userSpaceOnUse"><stop offset="0" stop-color="#3d065f"/><stop offset="1" stop-color="#5f27bd"/></linearGradient><linearGradient id="New_Gradient_Swatch_copy_7-2" data-name="New Gradient Swatch copy 7" x1="368.49" y1="372.13" x2="320.49" y2="298.46" xlink:href="#New_Gradient_Swatch_copy_7"/><linearGradient id="linear-gradient-8" x1="221.97" y1="242.08" x2="255.39" y2="203.1" gradientUnits="userSpaceOnUse"><stop offset="0" stop-color="#fdd65b"/><stop offset=".01" stop-color="#f6d058"/><stop offset=".13" stop-color="#bda044"/><stop offset=".25" stop-color="#8b7532"/><stop offset=".37" stop-color="#605122"/><stop offset=".49" stop-color="#3d3416"/><stop offset=".62" stop-color="#221d0c"/><stop offset=".74" stop-color="#0f0c05"/><stop offset=".87" stop-color="#030301"/><stop offset="1"/></linearGradient><linearGradient id="linear-gradient-9" x1="183.23" y1="166.92" x2="278.44" y2="283.6" gradientUnits="userSpaceOnUse"><stop offset=".34" stop-color="#fbcd9c"/><stop offset=".81" stop-color="#feeca8"/><stop offset=".91" stop-color="#ffa98c"/></linearGradient><linearGradient id="New_Gradient_Swatch_copy_8-2" data-name="New Gradient Swatch copy 8" x1="-26.24" y1="320.8" x2="469.53" y2="209.66" gradientTransform="rotate(30 444.828 -306.371) skewX(49.11)" xlink:href="#New_Gradient_Swatch_copy_8"/><linearGradient id="linear-gradient-10" x1="310.48" y1="138.81" x2="342.85" y2="101.04" gradientUnits="userSpaceOnUse"><stop offset="0" stop-color="#c211a1"/><stop offset=".01" stop-color="#bc109c"/><stop offset=".15" stop-color="#8b0c73"/><stop offset=".29" stop-color="#60084f"/><stop offset=".42" stop-color="#3d0533"/><stop offset=".56" stop-color="#22031c"/><stop offset=".7" stop-color="#0f010c"/><stop offset=".85" stop-color="#030003"/><stop offset="1"/></linearGradient><linearGradient id="linear-gradient-11" x1="272.66" y1="64.04" x2="367.36" y2="180.1" gradientUnits="userSpaceOnUse"><stop offset=".17" stop-color="#dc48c1"/><stop offset=".43" stop-color="#de4ac2"/><stop offset=".6" stop-color="#e751c5"/><stop offset=".75" stop-color="#f65cca"/><stop offset=".81" stop-color="#ff63ce"/><stop offset=".91" stop-color="#9f19ab"/></linearGradient><linearGradient id="New_Gradient_Swatch_copy_9-2" data-name="New Gradient Swatch copy 9" x1="155.64" y1="186.49" x2="648.19" y2="76.08" gradientTransform="rotate(30 444.828 -306.371) skewX(49.11)" xlink:href="#New_Gradient_Swatch_copy_9"/><linearGradient id="linear-gradient-12" x1="339.18" y1="293.04" x2="339.18" y2="330.6" gradientUnits="userSpaceOnUse"><stop offset="0" stop-color="#113a39"/><stop offset=".22" stop-color="#0a2221"/><stop offset=".47" stop-color="#040f0f"/><stop offset=".73" stop-color="#010303"/><stop offset="1"/></linearGradient><linearGradient id="linear-gradient-13" x1="339.18" y1="293.08" x2="339.18" y2="330.05" gradientUnits="userSpaceOnUse"><stop offset="0" stop-color="#164a48"/><stop offset=".06" stop-color="#13413f"/><stop offset=".3" stop-color="#0a2423"/><stop offset=".54" stop-color="#04100f"/><stop offset=".77" stop-color="#010403"/><stop offset="1"/></linearGradient><linearGradient id="linear-gradient-14" x1="339.18" y1="293.13" x2="339.18" y2="329.5" gradientUnits="userSpaceOnUse"><stop offset="0" stop-color="#1a5a58"/><stop offset=".13" stop-color="#144644"/><stop offset=".36" stop-color="#0b2726"/><stop offset=".58" stop-color="#051111"/><stop offset=".8" stop-color="#010404"/><stop offset="1"/></linearGradient><linearGradient id="linear-gradient-15" x1="339.18" y1="293.18" x2="339.18" y2="328.96" gradientUnits="userSpaceOnUse"><stop offset="0" stop-color="#1f6967"/><stop offset=".17" stop-color="#164b4a"/><stop offset=".4" stop-color="#0c2a2a"/><stop offset=".62" stop-color="#051312"/><stop offset=".83" stop-color="#010404"/><stop offset="1"/></linearGradient><linearGradient id="linear-gradient-16" x1="339.18" y1="293.22" x2="339.18" y2="328.41" gradientUnits="userSpaceOnUse"><stop offset="0" stop-color="#237976"/><stop offset=".21" stop-color="#175250"/><stop offset=".44" stop-color="#0d2e2d"/><stop offset=".65" stop-color="#061514"/><stop offset=".85" stop-color="#010505"/><stop offset="1"/></linearGradient><linearGradient id="linear-gradient-17" x1="339.18" y1="293.27" x2="339.18" y2="327.86" gradientUnits="userSpaceOnUse"><stop offset="0" stop-color="#288985"/><stop offset=".23" stop-color="#1a5a57"/><stop offset=".46" stop-color="#0e3331"/><stop offset=".68" stop-color="#061716"/><stop offset=".86" stop-color="#010605"/><stop offset="1"/></linearGradient><linearGradient id="linear-gradient-18" x1="339.18" y1="293.32" x2="339.18" y2="327.31" gradientUnits="userSpaceOnUse"><stop offset="0" stop-color="#2c9995"/><stop offset=".25" stop-color="#1c6461"/><stop offset=".48" stop-color="#103937"/><stop offset=".7" stop-color="#071919"/><stop offset=".88" stop-color="#010606"/><stop offset="1"/></linearGradient><linearGradient id="linear-gradient-19" x1="339.18" y1="293.37" x2="339.18" y2="326.76" gradientUnits="userSpaceOnUse"><stop offset="0" stop-color="#31a9a4"/><stop offset=".25" stop-color="#20706d"/><stop offset=".49" stop-color="#12403e"/><stop offset=".71" stop-color="#081d1c"/><stop offset=".89" stop-color="#020707"/><stop offset="1"/></linearGradient><linearGradient id="linear-gradient-20" x1="339.18" y1="293.41" x2="339.18" y2="326.21" gradientUnits="userSpaceOnUse"><stop offset="0" stop-color="#35b9b3"/><stop offset=".24" stop-color="#24807b"/><stop offset=".49" stop-color="#154946"/><stop offset=".72" stop-color="#092120"/><stop offset=".89" stop-color="#020908"/><stop offset="1"/></linearGradient><linearGradient id="linear-gradient-21" x1="339.18" y1="293.46" x2="339.18" y2="325.66" gradientUnits="userSpaceOnUse"><stop offset="0" stop-color="#3ac8c2"/><stop offset=".2" stop-color="#2b9590"/><stop offset=".48" stop-color="#185553"/><stop offset=".72" stop-color="#0b2726"/><stop offset=".9" stop-color="#030a0a"/><stop offset="1"/></linearGradient><linearGradient id="linear-gradient-22" x1="339.18" y1="293.51" x2="339.18" y2="325.11" gradientUnits="userSpaceOnUse"><stop offset="0" stop-color="#3ed8d2"/><stop offset=".14" stop-color="#33b3ae"/><stop offset=".45" stop-color="#1d6764"/><stop offset=".71" stop-color="#0d2f2e"/><stop offset=".9" stop-color="#030d0c"/><stop offset="1"/></linearGradient><linearGradient id="linear-gradient-23" x1="339.18" y1="293.56" x2="339.18" y2="324.56" gradientUnits="userSpaceOnUse"><stop offset="0" stop-color="#43e8e1"/><stop offset=".02" stop-color="#41e1da"/><stop offset=".39" stop-color="#25827e"/><stop offset=".68" stop-color="#113b3a"/><stop offset=".89" stop-color="#041010"/><stop offset="1"/></linearGradient><linearGradient id="linear-gradient-24" x1="330.65" y1="286.62" x2="347.71" y2="286.62" gradientUnits="userSpaceOnUse"><stop offset=".02" stop-color="#45108a"/><stop offset=".29" stop-color="#3d065f"/><stop offset="1" stop-color="#12054e"/><stop offset="1" stop-color="#10054d"/></linearGradient><linearGradient id="linear-gradient-25" x1="289.66" y1="231.01" x2="320.84" y2="234.85" gradientUnits="userSpaceOnUse"><stop offset=".01" stop-color="#c1a1d5"/><stop offset=".05" stop-color="#c7abd9"/><stop offset=".11" stop-color="#d9c6e5"/><stop offset=".2" stop-color="#f6f2f9"/><stop offset=".22" stop-color="#fff"/><stop offset=".25" stop-color="#f9f5fb"/><stop offset=".3" stop-color="#e9dbf1"/><stop offset=".36" stop-color="#d1b4e3"/><stop offset=".43" stop-color="#b294d5"/><stop offset=".49" stop-color="#9b7ccb"/><stop offset=".56" stop-color="#8d6ec5"/><stop offset=".61" stop-color="#8969c3"/><stop offset=".76" stop-color="#9371c5"/><stop offset="1" stop-color="#b086cc"/></linearGradient><linearGradient id="linear-gradient-26" x1="332.37" y1="278.92" x2="346.1" y2="286.84" xlink:href="#linear-gradient-24"/><linearGradient id="linear-gradient-27" x1="299.21" y1="246.4" x2="379.04" y2="234.31" gradientUnits="userSpaceOnUse"><stop offset=".01" stop-color="#c1a1d5"/><stop offset=".04" stop-color="#c7abd9"/><stop offset=".1" stop-color="#d9c6e5"/><stop offset=".18" stop-color="#f6f2f9"/><stop offset=".2" stop-color="#fff"/><stop offset=".23" stop-color="#f9f5fb"/><stop offset=".29" stop-color="#e9dbf1"/><stop offset=".36" stop-color="#d1b4e3"/><stop offset=".43" stop-color="#b294d5"/><stop offset=".49" stop-color="#9b7ccb"/><stop offset=".56" stop-color="#8d6ec5"/><stop offset=".61" stop-color="#8969c3"/><stop offset=".76" stop-color="#9371c5"/><stop offset="1" stop-color="#b086cc"/></linearGradient><linearGradient id="linear-gradient-2" x1="428.93" y1="241.16" x2="103.98" y2="139.43" gradientTransform="matrix(1.08976 .02283 -.36705 .91251 29.37 7.19)" gradientUnits="userSpaceOnUse"><stop offset=".19" stop-color="#3d065f"/><stop offset=".93" stop-color="#3d065f"/></linearGradient><linearGradient id="linear-gradient" x1="287.61" y1="71.33" x2="393.93" y2="255.49" gradientTransform="matrix(1.08976 .02283 -.36705 .91251 29.37 7.19)" gradientUnits="userSpaceOnUse"><stop offset=".06" stop-color="#200041"/><stop offset=".26" stop-color="#210143"/><stop offset=".36" stop-color="#25084a"/><stop offset=".43" stop-color="#2c1357"/><stop offset=".47" stop-color="#311b61"/><stop offset=".48" stop-color="#351f65"/><stop offset=".5" stop-color="#422c72"/><stop offset=".51" stop-color="#574188"/><stop offset=".52" stop-color="#755fa6"/><stop offset=".53" stop-color="#8770b8"/><stop offset=".54" stop-color="#7d66ae"/><stop offset=".56" stop-color="#5c458c"/><stop offset=".59" stop-color="#442e74"/><stop offset=".61" stop-color="#351f66"/><stop offset=".63" stop-color="#311b61"/><stop offset=".67" stop-color="#2a1054"/><stop offset=".75" stop-color="#220446"/><stop offset=".81" stop-color="#200041"/><stop offset="1" stop-color="#200041"/></linearGradient><linearGradient id="linear-gradient-30" x1="309.96" y1="199.28" x2="368.53" y2="233.09" xlink:href="#linear-gradient-28"/><linearGradient id="linear-gradient-31" x1="310.31" y1="199.34" x2="368.16" y2="232.74" xlink:href="#linear-gradient-28"/><linearGradient id="linear-gradient-32" x1="310.66" y1="199.4" x2="367.78" y2="232.38" xlink:href="#linear-gradient-28"/><linearGradient id="linear-gradient-33" x1="311" y1="199.45" x2="367.41" y2="232.02" xlink:href="#linear-gradient-28"/><linearGradient id="linear-gradient-34" x1="311.35" y1="199.51" x2="367.03" y2="231.66" xlink:href="#linear-gradient-28"/><linearGradient id="linear-gradient-35" x1="311.7" y1="199.57" x2="366.66" y2="231.3" xlink:href="#linear-gradient-28"/><linearGradient id="linear-gradient-36" x1="312.04" y1="199.63" x2="366.28" y2="230.94" xlink:href="#linear-gradient-28"/><linearGradient id="linear-gradient-37" x1="312.39" y1="199.69" x2="365.9" y2="230.59" xlink:href="#linear-gradient-28"/><linearGradient id="linear-gradient-38" x1="312.74" y1="199.75" x2="365.53" y2="230.23" xlink:href="#linear-gradient-28"/><linearGradient id="linear-gradient-39" x1="313.09" y1="199.81" x2="365.15" y2="229.87" xlink:href="#linear-gradient-28"/><linearGradient id="linear-gradient-40" x1="317.55" y1="195.58" x2="369.6" y2="225.63" gradientUnits="userSpaceOnUse"><stop offset=".19" stop-color="#3d065f"/><stop offset=".93" stop-color="#3d065f"/></linearGradient><linearGradient id="linear-gradient-41" x1="318.14" y1="196.03" x2="368.85" y2="225.3" xlink:href="#linear-gradient-40"/><linearGradient id="linear-gradient-42" x1="318.74" y1="196.47" x2="368.11" y2="224.97" xlink:href="#linear-gradient-40"/><linearGradient id="linear-gradient-43" x1="319.33" y1="196.91" x2="367.37" y2="224.64" xlink:href="#linear-gradient-40"/><linearGradient id="linear-gradient-44" x1="319.93" y1="197.36" x2="366.62" y2="224.31" xlink:href="#linear-gradient-40"/><linearGradient id="linear-gradient-45" x1="320.53" y1="197.8" x2="365.88" y2="223.98" xlink:href="#linear-gradient-40"/><linearGradient id="linear-gradient-46" x1="321.12" y1="198.24" x2="365.14" y2="223.65" xlink:href="#linear-gradient-40"/><linearGradient id="linear-gradient-47" x1="321.72" y1="198.68" x2="364.39" y2="223.32" xlink:href="#linear-gradient-40"/><linearGradient id="linear-gradient-48" x1="322.31" y1="199.13" x2="363.65" y2="222.99" xlink:href="#linear-gradient-40"/><linearGradient id="linear-gradient-49" x1="322.91" y1="199.57" x2="362.91" y2="222.66" xlink:href="#linear-gradient-40"/><linearGradient id="linear-gradient-50" x1="323.51" y1="200.01" x2="362.16" y2="222.33" xlink:href="#linear-gradient-40"/><linearGradient id="linear-gradient-51" x1="324.1" y1="200.46" x2="361.42" y2="222" xlink:href="#linear-gradient-40"/><linearGradient id="linear-gradient-52" x1="295.03" y1="181.85" x2="342.84" y2="181.85" xlink:href="#linear-gradient-24"/><linearGradient id="linear-gradient-53" x1="354.42" y1="253.91" x2="385.37" y2="257.71" xlink:href="#linear-gradient-25"/><linearGradient id="linear-gradient-54" x1="325.78" y1="146.24" x2="352.49" y2="146.24" xlink:href="#linear-gradient-25"/><linearGradient id="linear-gradient-55" x1="328.48" y1="135.1" x2="349.96" y2="147.5" gradientUnits="userSpaceOnUse"><stop offset=".08" stop-color="#fff"/><stop offset=".21" stop-color="#f8f5fa"/><stop offset=".44" stop-color="#e7dbef"/><stop offset=".74" stop-color="#ccb1de"/><stop offset="1" stop-color="#b086cc"/></linearGradient><linearGradient id="linear-gradient-56" x1="337.21" y1="132.11" x2="341.21" y2="132.11" xlink:href="#linear-gradient-25"/><linearGradient id="linear-gradient-57" x1="-1406.16" y1="6623.18" x2="-1393.36" y2="6623.18" gradientTransform="matrix(.61203 1.05538 -.6081 .34674 5225.13 -629.43)" xlink:href="#linear-gradient-24"/><linearGradient id="linear-gradient-58" x1="221.44" y1="163.32" x2="253.03" y2="126.46" gradientUnits="userSpaceOnUse"><stop offset="0" stop-color="#43e8e1"/><stop offset=".09" stop-color="#36bcb6"/><stop offset=".22" stop-color="#288b86"/><stop offset=".34" stop-color="#1b605d"/><stop offset=".47" stop-color="#113d3b"/><stop offset=".6" stop-color="#092221"/><stop offset=".73" stop-color="#040f0e"/><stop offset=".86" stop-color="#010303"/><stop offset="1"/></linearGradient><linearGradient id="linear-gradient-59" x1="169.31" y1="80.47" x2="292.31" y2="219.19" gradientUnits="userSpaceOnUse"><stop offset="0" stop-color="#4ec1de"/><stop offset=".24" stop-color="#4cc4de"/><stop offset=".45" stop-color="#49cfde"/><stop offset=".64" stop-color="#43e0de"/><stop offset=".65" stop-color="#43e2de"/><stop offset=".77" stop-color="#3cabc7"/><stop offset=".84" stop-color="#3a91bd"/><stop offset=".88" stop-color="#3a95be"/><stop offset="1" stop-color="#3ca0c3"/></linearGradient><linearGradient id="linear-gradient-60" x1="-20.77" y1="254.02" x2="450.47" y2="148.39" gradientTransform="rotate(30 368.664 -20.883) skewX(30)" gradientUnits="userSpaceOnUse"><stop offset=".04" stop-color="#138bbd"/><stop offset=".23" stop-color="#169ac6"/><stop offset=".59" stop-color="#1ec2df"/><stop offset="1" stop-color="#2af6ff"/></linearGradient><radialGradient id="radial-gradient-9" cx="327.64" cy="167.42" fx="327.64" fy="167.42" r="64.1" gradientTransform="rotate(80.17 339.389 180.189)" gradientUnits="userSpaceOnUse"><stop offset=".01" stop-color="#fff"/><stop offset=".16" stop-color="#e6d6f0"/><stop offset=".28" stop-color="#d6bde6"/><stop offset=".36" stop-color="#d1b4e3"/><stop offset=".48" stop-color="#c3a4db"/><stop offset=".71" stop-color="#a07bc9"/><stop offset=".72" stop-color="#9f79c8"/><stop offset=".81" stop-color="#a27bc8"/><stop offset=".9" stop-color="#ad84cb"/><stop offset=".91" stop-color="#b086cc"/><stop offset=".96" stop-color="#ad83cb"/><stop offset=".99" stop-color="#a47dc9"/><stop offset="1" stop-color="#9f79c8"/></radialGradient><radialGradient id="radial-gradient-6" cx="389.66" cy="121.12" fx="389.66" fy="121.12" r="56.58" xlink:href="#radial-gradient-4"/><radialGradient id="radial-gradient-10" cx="362.69" cy="238.94" fx="362.69" fy="238.94" r="15.5" gradientUnits="userSpaceOnUse"><stop offset=".04" stop-color="#6115a3"/><stop offset=".1" stop-color="#5a1399"/><stop offset=".52" stop-color="#2b0658"/><stop offset="1" stop-color="#12054e"/><stop offset="1" stop-color="#10054d"/></radialGradient><radialGradient id="radial-gradient-7" cx="-2515.95" cy="-1562.62" fx="-2515.95" fy="-1562.62" r="13.37" xlink:href="#radial-gradient-5"/><radialGradient id="radial-gradient-11" cx="357.63" cy="250.06" fx="357.63" fy="250.06" r="21.85" xlink:href="#radial-gradient-8"/><radialGradient id="radial-gradient-12" cx="-7243.19" cy="-2083.92" fx="-7243.19" fy="-2083.92" r="14.21" gradientTransform="matrix(.31669 -.19134 .00406 .97896 2677.81 884.17)" gradientUnits="userSpaceOnUse"><stop offset="0" stop-color="#972a74"/><stop offset=".04" stop-color="#8a266a"/><stop offset=".19" stop-color="#601a49"/><stop offset=".35" stop-color="#3d112f"/><stop offset=".51" stop-color="#22091a"/><stop offset=".67" stop-color="#0f040b"/><stop offset=".83" stop-color="#030102"/><stop offset="1"/></radialGradient><radialGradient id="radial-gradient-13" cx="-9175.85" cy="-1999.77" fx="-9175.85" fy="-1999.77" r="14.84" gradientTransform="matrix(.33703 -.15267 -.11137 .97261 3267.85 774.05)" gradientUnits="userSpaceOnUse"><stop offset="0" stop-color="#481437"/><stop offset=".07" stop-color="#3d112e"/><stop offset=".3" stop-color="#22091a"/><stop offset=".52" stop-color="#0f040b"/><stop offset=".76" stop-color="#030102"/><stop offset="1"/></radialGradient><radialGradient id="radial-gradient-8" cx="335.47" cy="238.01" fx="335.47" fy="238.01" r="50.72" gradientUnits="userSpaceOnUse"><stop offset=".38" stop-color="#fff"/><stop offset=".47" stop-color="#f4f2f8"/><stop offset=".63" stop-color="#d7cfe7"/><stop offset=".85" stop-color="#a999cc"/><stop offset="1" stop-color="#8770b8"/></radialGradient><radialGradient id="radial-gradient-3" cx="424.43" cy="181.68" fx="424.43" fy="181.68" r="7.51" xlink:href="#radial-gradient"/><radialGradient id="radial-gradient-4" cx="301.01" cy="224.3" fx="301.01" fy="224.3" r="56.79" gradientUnits="userSpaceOnUse"><stop offset="0" stop-color="#fff"/><stop offset="1"/></radialGradient><radialGradient id="radial-gradient-14" cx="337.79" cy="121.94" fx="337.79" fy="121.94" r="8.05" xlink:href="#radial-gradient-9"/><radialGradient id="radial-gradient-15" cx="325.68" cy="161.46" fx="325.68" fy="161.46" r="33.26" gradientTransform="rotate(80.7 330.034 167.28)" xlink:href="#radial-gradient-12"/><radialGradient id="radial-gradient-16" cx="305.9" cy="176.44" fx="305.9" fy="176.44" r="12.71" gradientTransform="rotate(76.64 305.909 176.453)" gradientUnits="userSpaceOnUse"><stop offset="0" stop-color="#43e8e1"/><stop offset=".14" stop-color="#34b5af"/><stop offset=".3" stop-color="#247e7a"/><stop offset=".46" stop-color="#17514e"/><stop offset=".62" stop-color="#0d2d2c"/><stop offset=".76" stop-color="#051413"/><stop offset=".89" stop-color="#010505"/><stop offset="1"/></radialGradient><radialGradient id="radial-gradient-17" cx="325.73" cy="188.13" fx="325.73" fy="188.13" r="12.71" xlink:href="#radial-gradient-16"/><radialGradient id="radial-gradient-18" cx="-5351.59" cy="-452.51" fx="-5351.59" fy="-452.51" r="40.49" gradientTransform="rotate(-13.98 2381.678 -6346.861) scale(.23 1)" gradientUnits="userSpaceOnUse"><stop offset="0" stop-color="#972a74"/><stop offset=".02" stop-color="#8c276b"/><stop offset=".11" stop-color="#671c4f"/><stop offset=".21" stop-color="#471336"/><stop offset=".32" stop-color="#2d0c22"/><stop offset=".43" stop-color="#180613"/><stop offset=".57" stop-color="#0a0308"/><stop offset=".73" stop-color="#020001"/><stop offset="1"/></radialGradient><radialGradient id="radial-gradient-5" cx="-2837.65" cy="-1469.38" fx="-2837.65" fy="-1469.38" r="13.37" gradientTransform="rotate(-22.34 2683.224 -3800.374) scale(.38 .66)" gradientUnits="userSpaceOnUse"><stop offset="0" stop-color="#c211a1"/><stop offset=".01" stop-color="#bc109c"/><stop offset=".15" stop-color="#8b0c73"/><stop offset=".29" stop-color="#60084f"/><stop offset=".42" stop-color="#3d0533"/><stop offset=".56" stop-color="#22031c"/><stop offset=".7" stop-color="#0f010c"/><stop offset=".85" stop-color="#030003"/><stop offset="1"/></radialGradient><radialGradient id="radial-gradient-20" cx="-2777.76" cy="-1597.5" fx="-2777.76" fy="-1597.5" r="13.37" gradientTransform="rotate(-22.34 2683.224 -3800.374) scale(.38 .66)" gradientUnits="userSpaceOnUse"><stop offset="0" stop-color="#972a74"/><stop offset=".04" stop-color="#8a266a"/><stop offset=".19" stop-color="#601a49"/><stop offset=".35" stop-color="#3d112f"/><stop offset=".51" stop-color="#22091a"/><stop offset=".67" stop-color="#0f040b"/><stop offset=".83" stop-color="#030102"/><stop offset="1"/></radialGradient><radialGradient id="radial-gradient" cx="452.84" cy="146.15" fx="452.84" fy="146.15" r="199.53" gradientTransform="matrix(1.08976 .02283 -.36705 .91251 29.37 7.19)" gradientUnits="userSpaceOnUse"><stop offset="0" stop-color="#711f56"/><stop offset=".16" stop-color="#6b1d51"/><stop offset=".36" stop-color="#5c1946"/><stop offset=".58" stop-color="#421232"/><stop offset=".82" stop-color="#1f0818"/><stop offset="1"/></radialGradient><radialGradient id="radial-gradient-2" cx="419.46" cy="131.89" fx="419.46" fy="131.89" r="117.55" gradientTransform="matrix(1.08976 .02283 -.36705 .91251 29.37 7.19)" gradientUnits="userSpaceOnUse"><stop offset="0" stop-color="#af8afc"/><stop offset="1" stop-color="#10054d"/></radialGradient><radialGradient id="radial-gradient-19" cx="295.04" cy="134.05" fx="295.04" fy="134.05" r="67.64" xlink:href="#radial-gradient-4"/><style>.cls-34{fill:#fff}.cls-81{fill:#2af6ff}</style></defs><g style="fill:none;isolation:isolate"><g id="Layer_1" data-name="Layer 1"><path d="m343.28 353.77-71.59-44.55c-8.08-5.02-10.97-18.11-6.47-29.23l79.7-196.87c2.29-5.65-2.79-7.02 1.41-8.98.16-.07 9.16-2.86 9.33-2.9 4.11-1.08 8.22-1.52 12.03.85l71.59 44.55c8.08 5.02 10.97 18.11 6.47 29.23l-79.7 196.87c-2.39 5.91-6.39 10.07-10.83 11.92-.26.11-11.17 3.63-11.44 3.69-3.6.83 3.02-2.39-.51-4.58z" style="fill:url(#linear-gradient)"/><path d="M438.36 116.85 366.77 72.3c-3.81-2.37 66.13 45.81 66.13 45.81 8.08 5.02 10.97 18.11 6.47 29.23 0 0-76.62 201.52-74.23 195.61l79.7-196.87c4.5-11.12 1.6-24.21-6.47-29.23z" style="fill:url(#radial-gradient);mix-blend-mode:color-dodge"/><path d="m335.31 356.25-71.59-44.55c-8.08-5.02-10.97-18.11-6.47-29.23l79.7-196.87c4.5-11.12 14.7-16.06 22.77-11.03l71.59 44.55c8.08 5.02 10.97 18.11 6.47 29.23l-79.7 196.87c-4.5 11.12-14.7 16.06-22.77 11.03z" style="fill:url(#radial-gradient-2);opacity:.6;mix-blend-mode:screen"/><path d="m333.44 356.93-71.59-44.55c-8.08-5.02-10.97-18.11-6.47-29.23l79.7-196.87c4.5-11.12 14.7-16.06 22.77-11.03l71.59 44.55c8.08 5.02 10.97 18.11 6.47 29.23l-79.7 196.87c-4.5 11.12-14.7 16.06-22.77 11.03z" style="fill:url(#linear-gradient-2)"/><path d="m257.32 284.52 79.8-197.11c3.95-9.75 12.88-14.08 19.96-9.67l71.21 44.31c7.08 4.4 9.62 15.88 5.67 25.62l-79.8 197.11c-3.95 9.75-12.88 14.08-19.96 9.67l-71.21-44.31c-7.08-4.4-9.62-15.88-5.67-25.62z" style="fill:url(#linear-gradient-3)"/><path d="m260.37 285.79 79.39-196.11c3.3-8.16 10.78-11.78 16.71-8.1l69.7 43.37c5.93 3.69 8.05 13.29 4.75 21.45l-79.39 196.11c-3.3 8.16-10.78 11.78-16.71 8.1l-69.7-43.37c-5.93-3.69-8.05-13.29-4.75-21.45z" style="fill:url(#linear-gradient-4)"/><path d="M416.4 120.98c-1.66 4.1-5.81 5.68-9.27 3.53l-39-24.27c-3.46-2.15-4.92-7.22-3.26-11.32l-8.27-5.15c-5.58-3.48-12.28-.93-14.96 5.69l-80.28 198.32c-2.68 6.62-.32 14.8 5.26 18.27l68.08 42.36c5.58 3.48 12.28.93 14.96-5.69l80.28-198.32c2.68-6.62.32-14.8-5.26-18.27l-8.27-5.15z" style="fill:url(#linear-gradient-5)"/><path d="m338.64 97.65-12.61 31.01 66.91 41.28c4.67 2.91 10.84.91 12.92-4.19l5.82-14.32c1.63-4 .14-8.6-3.53-10.88l-69.51-42.9z" style="fill:url(#New_Gradient_Swatch_copy_9)"/><path d="m327.83 183.11-4.11 10.1a11.133 11.133 0 0 0 4.44 13.65l61.14 37.93 12.61-31.01L344 177.85c-5.86-3.63-13.58-1.12-16.17 5.26z" style="fill:url(#New_Gradient_Swatch_copy_7)"/><path d="m288.54 220.2-12.61 31.01 69.42 42.86c4.84 3.02 11.24.94 13.39-4.34l5.58-13.71c1.69-4.15.14-8.91-3.66-11.28l-72.12-44.54z" style="fill:url(#New_Gradient_Swatch_copy_8)"/><path d="m419.86 194.63 5.38-13.29c.69-1.7 2.73-3.65 4.56-4.35 1.83-.7 2.76.1 2.07 1.8l-5.38 13.29c-.69 1.7-2.73 3.65-4.56 4.35-1.83.7-2.76-.1-2.07-1.8z" style="fill:url(#linear-gradient-6)"/><path d="M420.92 196.19c-.79-.02-.74-.84-.46-1.55l5.38-13.29c.61-1.51 2.48-3.31 4.08-3.93.34-.13.65-.2.89-.19.79.02.74.84.46 1.55l-5.38 13.29c-.61 1.51-2.48 3.31-4.08 3.93-.34.13-.65.2-.89.19z" style="fill:url(#linear-gradient-7)"/><path d="m421.14 195 5.38-13.29c.61-1.51 2.48-3.31 4.08-3.93.3-.12.57-.17.79-.18-.08-.21-.26-.36-.59-.37-.24 0-.54.06-.89.19-1.6.62-3.47 2.41-4.08 3.93l-5.38 13.29c-.28.7-.33 1.53.46 1.55.03 0 .07 0 .1-.01-.12-.31-.04-.76.13-1.18z" style="fill:url(#radial-gradient-3);mix-blend-mode:color-dodge"/><path d="m424.68 126.13-8.27-5.15c-1.66 4.1-5.81 5.68-9.27 3.53l-39-24.27c-3.46-2.15-4.92-7.22-3.26-11.32l-8.27-5.15c-5.58-3.48-12.28-.93-14.96 5.69l-80.28 198.32c-2.68 6.62-.32 14.8 5.26 18.27l68.08 42.36c5.58 3.48 12.28.93 14.96-5.69l80.28-198.32c2.68-6.62.32-14.8-5.26-18.27zM348.57 342.7c-.83 2.05-2.1 3.73-3.66 4.85-1.43 1.02-3.09 1.55-4.79 1.51-1.54-.03-3.12-.52-4.56-1.42l-68.08-42.36c-5.33-3.32-7.59-11.16-5.04-17.48l80.28-198.32c1.62-4 4.86-6.43 8.45-6.36 1.54.03 3.12.52 4.56 1.42l7.85 4.88c-1.48 4.34.08 9.34 3.69 11.59l39 24.27c1.13.7 2.35 1.07 3.63 1.09 2.75.06 5.29-1.42 6.84-3.88l7.08 4.41c5.33 3.32 7.59 11.16 5.03 17.48L348.57 342.7z" style="fill:#bcbec0;mix-blend-mode:multiply"/><path d="m342.67 322.67.4-.98-.93-.58 1.09-2.69c.51.05 1-.26 1.23-.84.31-.77.04-1.73-.61-2.13-.65-.41-1.43-.11-1.75.66-.23.58-.14 1.25.19 1.73l-1.09 2.69-.93-.58-.4.98c-3.45-1.19-7.15.64-8.75 4.59-1.83 4.52-.22 10.1 3.59 12.48 3.81 2.37 8.39.63 10.22-3.89 1.6-3.95.57-8.71-2.26-11.44zm.25 11.42c-.34.84-1.13 1.24-1.89.96-2.92-1.08-5.67-2.79-8.12-5.04-.67-.62-.9-1.72-.54-2.61l.75-1.86c.31-.78 1.14-.99 1.73-.45 2.45 2.25 5.2 3.96 8.12 5.05.7.26 1.06 1.22.74 1.99l-.79 1.96zm-2.15-3.33c-.46-.29-1.02-.08-1.24.47-.22.55-.03 1.23.44 1.51.46.29 1.02.08 1.24-.47.22-.55.03-1.23-.44-1.51zm-5-3.11c-.46-.29-1.02-.08-1.24.47-.22.55-.03 1.23.44 1.51s1.02.08 1.24-.47c.22-.55.03-1.23-.44-1.51z" style="fill:url(#New_Gradient_Swatch_copy_7-2)"/><g><path d="m305.65 227.86-112.71-65.21-18.31 10.72a14.465 14.465 0 0 0-7.08 12.44v20.12c0 7.98 4.25 15.36 11.16 19.35L276.94 282a7.337 7.337 0 0 0 7.4-.03l21.3-12.39v-41.72z" style="fill:url(#linear-gradient-8);mix-blend-mode:screen"/><path d="m281.44 279.13-99.24-57.17c-5.41-3.13-9.8-11.51-9.8-18.73V181.2c0-3.66-3.58-3.74-1.76-5.06.15-.11 5.01-2.79 5.17-2.88 1.72-.98 3.95-.88 6.39.53l99.24 57.17c5.41 3.13 9.8 11.51 9.8 18.73v22.03c0 3.95-1.31 6.73-3.39 7.93-.07.04-5.01 2.85-5.08 2.88-1.69.87 1.02-2.04-1.34-3.4z" style="fill:url(#linear-gradient-9)"/><path d="m276.54 281.91-99.24-57.17c-5.41-3.13-9.8-11.51-9.8-18.73v-22.03c0-7.22 4.39-10.53 9.8-7.41l99.24 57.17c5.41 3.13 9.8 11.51 9.8 18.73v22.03c0 7.22-4.39 10.53-9.8 7.41z" style="fill:url(#New_Gradient_Swatch_copy_8-2)"/><path d="m278.08 232.75-99.24-57.17c-2.75-1.59-5.24-1.51-7.02-.1 1.41-.23 3.03.1 4.77 1.1l99.24 57.17c5.41 3.12 9.8 11.51 9.8 18.73v22.03c0 3.55-1.06 6.15-2.79 7.51 3-.5 5.04-3.6 5.04-8.51v-22.03c0-7.22-4.39-15.6-9.8-18.73z" style="fill:url(#radial-gradient-4);mix-blend-mode:color-dodge"/><path class="cls-34" d="M210.63 207.74v2.37l63.19 36.16v-2.37l-63.19-36.16zM235.89 241.78l-25.26-14.34v2.37l25.26 14.34v-2.37zM249.83 239.98l-39.2-22.39v2.37l39.2 22.39v-2.37zM226.58 231.48l-15.95-8.97v2.37l15.95 8.97v-2.37zM228.91 232.83v2.37l32.28 18.55v-2.37l-32.28-18.55zM238.23 243.13v2.37l18.1 10.45v-2.37l-18.1-10.45zM252.16 243.7l21.66 12.42v-2.37l-21.66-12.42v2.37zM263.52 255.1l10.3 5.94v-2.37l-10.3-5.94v2.37zM210.63 215.03l63.19 36.16v-2.37l-63.19-36.16v2.37zM258.66 257.3l15.16 8.67v-2.37l-15.16-8.67v2.37zM210.63 234.73l63.19 36.17v-2.38l-63.19-36.16v2.37zM199.37 218.78c-1.55-1.32-2.94-3-4.05-4.85-.67-1.12-.65-2.34 0-2.71.84-.49 1.58-1.27 2.07-2.3.71.2 1.59-.07 1.59-1.04s-.44-2.07-1.02-2.62c-.17-4.25-1.62-8.61-6.51-11.43s-6.33-.13-6.51 3.91c-.59-.13-1.02.44-1.02 1.44s.88 2.25 1.59 2.87c.48 1.59 1.22 3.23 2.07 4.69.65 1.13.67 2.37 0 2.72-1.1.57-2.5.64-4.05.17-2.05-.62-3.57.62-3.57 3.14v4.38c0 .85.6 1.88 1.34 2.31l20.31 11.73c.74.43 1.34.09 1.34-.76v-4.38c0-2.53-1.52-5.52-3.57-7.27z"/><path d="M289.52 237.46c1.86 4.53 1.28 9.07-1.29 10.13-2.58 1.06-6.18-1.76-8.04-6.29-1.86-4.53-1.28-9.07 1.29-10.13 2.58-1.06 6.18 1.76 8.04 6.29z" style="fill:url(#radial-gradient-5);mix-blend-mode:color-dodge"/></g><g><path d="M392.07 125.48 280.19 60.66l-15.98 9.72a14.465 14.465 0 0 0-7.08 12.44v20.12c0 7.98 4.25 15.35 11.16 19.35l97.4 56.34a7.337 7.337 0 0 0 7.4-.03l18.97-11.39v-41.72z" style="fill:url(#linear-gradient-10);mix-blend-mode:screen"/><path d="m370.19 175.75-98.41-56.79c-5.41-3.13-9.8-11.51-9.8-18.73V78.2c0-3.66-3.58-3.74-1.76-5.06.15-.11 5.01-2.79 5.17-2.88 1.72-.98 3.95-.88 6.39.53l98.41 56.79c5.41 3.13 9.8 11.51 9.8 18.73v22.03c0 3.95-1.31 6.73-3.39 7.93-.07.04-5.01 2.85-5.08 2.88-1.69.87 1.02-2.04-1.34-3.4z" style="fill:url(#linear-gradient-11)"/><path d="m365.29 178.53-98.41-56.79c-5.41-3.13-9.8-11.51-9.8-18.73V80.98c0-7.22 4.39-10.53 9.8-7.41l98.41 56.79c5.41 3.13 9.8 11.51 9.8 18.73v22.03c0 7.22-4.39 10.53-9.8 7.41z" style="fill:url(#New_Gradient_Swatch_copy_9-2)"/><path d="m366.83 129.37-98.41-56.79c-2.75-1.59-5.24-1.51-7.02-.1 1.41-.23 3.03.1 4.77 1.1l98.41 56.79c5.41 3.12 9.8 11.51 9.8 18.73v22.03c0 3.55-1.06 6.15-2.79 7.51 3-.5 5.04-3.6 5.04-8.51V148.1c0-7.22-4.39-15.6-9.8-18.73z" style="fill:url(#radial-gradient-6);mix-blend-mode:color-dodge"/><path class="cls-34" d="M300.21 104.74v2.37l62.36 35.78v-2.37l-62.36-35.78zM325.48 138.78l-25.27-14.34v2.37l25.27 14.34v-2.37zM339.41 136.98l-39.2-22.39v2.37l39.2 22.39v-2.37zM316.16 128.48l-15.95-8.97v2.37l15.95 8.97v-2.37zM318.5 129.83v2.37l31.44 18.17V148l-31.44-18.17zM327.81 140.13v2.37l18.1 10.45v-2.37l-18.1-10.45zM341.75 140.7l20.82 12.04v-2.37l-20.82-12.04v2.37zM352.27 151.72l10.3 5.94v-2.37l-10.3-5.94v2.37zM300.21 112.03l62.36 35.78v-2.37l-62.36-35.78v2.37zM348.25 154.3l14.32 8.29v-2.37l-14.32-8.29v2.37zM300.21 131.73l62.36 35.78v-2.37l-62.36-35.78v2.37zM288.95 115.78c-1.55-1.32-2.94-3-4.05-4.85-.67-1.12-.65-2.34 0-2.71.84-.49 1.58-1.27 2.07-2.3.71.2 1.59-.06 1.59-1.04s-.44-2.07-1.02-2.62c-.17-4.25-1.62-8.61-6.51-11.43s-6.33-.13-6.51 3.91c-.59-.13-1.02.44-1.02 1.44s.88 2.25 1.59 2.87c.48 1.59 1.22 3.23 2.07 4.69.65 1.13.67 2.37 0 2.72-1.1.57-2.5.64-4.05.17-2.05-.62-3.57.62-3.57 3.14v4.38c0 .85.6 1.88 1.34 2.31l20.31 11.73c.74.43 1.34.09 1.34-.76v-4.38c0-2.53-1.52-5.52-3.57-7.27z"/><path d="M378.27 134.08c1.86 4.53 1.28 9.07-1.29 10.13-2.58 1.06-6.18-1.76-8.04-6.29-1.86-4.53-1.28-9.07 1.29-10.13 2.58-1.06 6.18 1.76 8.04 6.29z" style="mix-blend-mode:color-dodge;fill:url(#radial-gradient-7)"/></g><g><path d="M350.02 298.57c0 11.53-4.85 41.73-10.83 41.73s-10.83-30.19-10.83-41.73c0-10.15 4.85-12.6 10.83-12.6s10.83 2.45 10.83 12.6z" style="mix-blend-mode:screen;fill:url(#linear-gradient-12)"/><path d="M349.44 298.43c0 11.26-4.59 41.17-10.26 41.17s-10.26-29.91-10.26-41.17c0-9.91 4.59-12.3 10.26-12.3s10.26 2.39 10.26 12.3z" style="fill:url(#linear-gradient-13);mix-blend-mode:screen"/><path d="M348.86 298.29c0 10.99-4.33 40.6-9.68 40.6s-9.68-29.62-9.68-40.6c0-9.67 4.33-12 9.68-12s9.68 2.33 9.68 12z" style="fill:url(#linear-gradient-14);mix-blend-mode:screen"/><path d="M348.28 298.15c0 10.71-4.07 40.04-9.1 40.04s-9.1-29.33-9.1-40.04c0-9.43 4.07-11.7 9.1-11.7s9.1 2.27 9.1 11.7z" style="fill:url(#linear-gradient-15);mix-blend-mode:screen"/><path d="M347.7 298.01c0 10.44-3.81 39.48-8.52 39.48s-8.52-29.04-8.52-39.48c0-9.19 3.81-11.4 8.52-11.4s8.52 2.21 8.52 11.4z" style="fill:url(#linear-gradient-16);mix-blend-mode:screen"/><path d="M347.13 297.87c0 10.16-3.56 38.91-7.94 38.91s-7.94-28.75-7.94-38.91c0-8.95 3.56-11.1 7.94-11.1s7.94 2.16 7.94 11.1z" style="fill:url(#linear-gradient-17);mix-blend-mode:screen"/><path d="M346.55 297.73c0 9.89-3.3 38.35-7.36 38.35s-7.36-28.46-7.36-38.35c0-8.71 3.3-10.8 7.36-10.8s7.36 2.1 7.36 10.8z" style="fill:url(#linear-gradient-18);mix-blend-mode:screen"/><path d="M345.97 297.59c0 9.62-3.04 37.79-6.79 37.79s-6.78-28.17-6.78-37.79c0-8.46 3.04-10.5 6.78-10.5s6.79 2.04 6.79 10.5z" style="fill:url(#linear-gradient-19);mix-blend-mode:screen"/><path d="M345.39 297.45c0 9.34-2.78 37.23-6.21 37.23s-6.21-27.89-6.21-37.23c0-8.22 2.78-10.2 6.21-10.2s6.21 1.98 6.21 10.2z" style="fill:url(#linear-gradient-20);mix-blend-mode:screen"/><path d="M344.81 297.31c0 9.07-2.52 36.66-5.63 36.66s-5.63-27.6-5.63-36.66c0-7.98 2.52-9.91 5.63-9.91s5.63 1.92 5.63 9.91z" style="fill:url(#linear-gradient-21);mix-blend-mode:screen"/><path d="M344.23 297.17c0 8.79-2.26 36.1-5.05 36.1s-5.05-27.31-5.05-36.1c0-7.74 2.26-9.61 5.05-9.61s5.05 1.86 5.05 9.61z" style="fill:url(#linear-gradient-22);mix-blend-mode:screen"/><path d="M343.66 297.03c0 8.52-2 35.54-4.47 35.54s-4.47-27.02-4.47-35.54c0-7.5 2-9.31 4.47-9.31s4.47 1.81 4.47 9.31z" style="fill:url(#linear-gradient-23);mix-blend-mode:screen"/><path d="M347.9 282.84h-17.34v2.52c0 2.79 3.88 5.05 8.67 5.05s8.67-2.26 8.67-5.05v-2.52z" style="fill:url(#linear-gradient-24)"/><path d="M316.75 225.52c-1.36 6.14-8.4 27.16-13.13 26.11s-5.67-23.71-3.99-29.91c1.45-5.34 5.7-8.1 10.42-7.05s7.9 5.44 6.7 10.85z" style="fill:url(#linear-gradient-25)"/><ellipse cx="339.24" cy="282.88" rx="8.67" ry="5.05" style="fill:url(#linear-gradient-26)"/><path d="M377.82 219.54c0 21.34-17.3 66.02-38.64 66.02s-38.64-44.68-38.64-66.02c0-18.78 17.3-23.31 38.64-23.31s38.64 4.53 38.64 23.31z" style="fill:url(#linear-gradient-27)"/><path d="M377.82 219.54c0 21.34-17.3 66.02-38.64 66.02s-38.64-44.68-38.64-66.02c0-18.78 17.3-23.31 38.64-23.31s38.64 4.53 38.64 23.31z" style="fill:url(#radial-gradient-8);mix-blend-mode:multiply"/><ellipse cx="339.26" cy="216.34" rx="37.46" ry="21.81" style="fill:url(#linear-gradient-29);opacity:.07"/><ellipse cx="339.25" cy="216.19" rx="37" ry="21.55" style="fill:url(#linear-gradient-30);opacity:.15"/><ellipse cx="339.23" cy="216.04" rx="36.54" ry="21.28" style="fill:url(#linear-gradient-31);opacity:.22"/><ellipse cx="339.22" cy="215.89" rx="36.09" ry="21.02" style="fill:url(#linear-gradient-32);opacity:.29"/><ellipse cx="339.21" cy="215.74" rx="35.63" ry="20.75" style="fill:url(#linear-gradient-33);opacity:.36"/><ellipse cx="339.19" cy="215.59" rx="35.18" ry="20.48" style="fill:url(#linear-gradient-34);opacity:.44"/><ellipse cx="339.18" cy="215.44" rx="34.72" ry="20.22" style="fill:url(#linear-gradient-35);opacity:.51"/><ellipse cx="339.16" cy="215.29" rx="34.26" ry="19.95" style="fill:url(#linear-gradient-36);opacity:.58"/><ellipse cx="339.15" cy="215.14" rx="33.81" ry="19.69" style="fill:url(#linear-gradient-37);opacity:.65"/><ellipse cx="339.13" cy="214.99" rx="33.35" ry="19.42" style="fill:url(#linear-gradient-38);opacity:.73"/><ellipse cx="339.12" cy="214.84" rx="32.89" ry="19.15" style="fill:url(#linear-gradient-39);opacity:.8"/><g><ellipse cx="343.5" cy="210.67" rx="32.04" ry="18.66" style="fill:url(#linear-gradient-41);opacity:.05;mix-blend-mode:multiply"/><ellipse cx="343.42" cy="210.72" rx="31.19" ry="18.16" style="fill:url(#linear-gradient-42);opacity:.09;mix-blend-mode:multiply"/><ellipse cx="343.35" cy="210.78" rx="30.34" ry="17.67" style="fill:url(#linear-gradient-43);opacity:.14;mix-blend-mode:multiply"/><ellipse cx="343.28" cy="210.83" rx="29.5" ry="17.18" style="fill:url(#linear-gradient-44);opacity:.18;mix-blend-mode:multiply"/><ellipse cx="343.2" cy="210.89" rx="28.65" ry="16.68" style="fill:url(#linear-gradient-45);opacity:.23;mix-blend-mode:multiply"/><ellipse cx="343.13" cy="210.95" rx="27.81" ry="16.19" style="fill:url(#linear-gradient-46);opacity:.27;mix-blend-mode:multiply"/><ellipse cx="343.06" cy="211" rx="26.96" ry="15.7" style="fill:url(#linear-gradient-47);opacity:.32;mix-blend-mode:multiply"/><ellipse cx="342.98" cy="211.06" rx="26.11" ry="15.21" style="fill:url(#linear-gradient-48);opacity:.36;mix-blend-mode:multiply"/><ellipse cx="342.91" cy="211.12" rx="25.27" ry="14.71" style="fill:url(#linear-gradient-49);opacity:.41;mix-blend-mode:multiply"/><ellipse cx="342.83" cy="211.17" rx="24.42" ry="14.22" style="fill:url(#linear-gradient-50);opacity:.45;mix-blend-mode:multiply"/><ellipse cx="342.76" cy="211.23" rx="23.58" ry="13.73" style="fill:url(#linear-gradient-51);opacity:.5;mix-blend-mode:multiply"/></g><circle cx="339.39" cy="180.2" r="45.36" transform="rotate(-80.17 339.376 180.201)" style="fill:url(#radial-gradient-9)"/><path d="M297.7 184.21a61.534 61.534 0 0 0 37.58 21.56c3.96.65 7.56-2.42 7.56-6.43v-11.83c0-5.28-3.46-9.94-8.51-11.48a66.545 66.545 0 0 1-28.13-17.02c-1.85-1.88-5.02-1.46-6.25.87a44.21 44.21 0 0 0-4.85 15.65c-.36 3.12.6 6.25 2.6 8.67z" style="fill:url(#linear-gradient-52)"/><path class="cls-81" d="M309.45 178.7c0 2.14-1.51 3.01-3.38 1.93-1.87-1.08-3.38-3.69-3.38-5.84s1.52-3.01 3.38-1.93c1.87 1.08 3.38 3.69 3.38 5.84zM328.92 189.95c0 2.14-1.52 3.01-3.38 1.93-1.87-1.08-3.38-3.69-3.38-5.84s1.51-3.01 3.38-1.93c1.87 1.08 3.38 3.69 3.38 5.84z"/><circle cx="366.14" cy="243.95" r="10.56" style="fill:url(#radial-gradient-10)"/><path d="M375.58 248.63c-1.34 7.94-12.49 25.38-17.22 24.33s-.51-22.53.85-28.67c1.2-5.4 5.7-8.1 10.42-7.05 4.73 1.05 6.86 5.93 5.94 11.39z" style="fill:url(#linear-gradient-53)"/><path d="M375.58 248.63c-1.34 7.94-12.49 25.38-17.22 24.33s-.51-22.53.85-28.67c1.2-5.4 5.7-8.1 10.42-7.05 4.73 1.05 6.86 5.93 5.94 11.39z" style="mix-blend-mode:multiply;fill:url(#radial-gradient-11)"/><path d="M367.74 246.67c-.46 6.27-7.77 23.93-9.28 23.81s.99-16.04 1.86-22.78c.7-5.49 2.38-8.28 3.82-8.75 4.12-1.35 4.01 2.2 3.6 7.72z" style="fill:url(#radial-gradient-12);mix-blend-mode:color-dodge"/><path d="M374.6 249.46c-1.94 9.29-11.5 21.63-12.99 21.34-1.49-.29 7.01-12.73 8.66-19.33 1.34-5.37.06-10.83 1.55-11.13 4.25-.86 3.91 3.7 2.78 9.12z" style="fill:url(#radial-gradient-13);mix-blend-mode:color-dodge"/><g><path d="M352.79 141.25h-27.14v2.08c0 4.36 6.08 7.9 13.57 7.9s13.57-3.54 13.57-7.9v-2.08z" style="fill:url(#linear-gradient-54)"/><ellipse cx="339.22" cy="141.3" rx="13.57" ry="7.9" style="fill:url(#linear-gradient-55)"/><path d="M341.25 122.57h-4.06v17.89c0 .65.91 1.18 2.03 1.18s2.03-.53 2.03-1.18v-17.89z" style="fill:url(#linear-gradient-56)"/><path d="M345.25 123.09a6.03 6.03 0 1 1-12.06 0 6.03 6.03 0 0 1 12.06 0z" style="fill:url(#radial-gradient-14)"/></g><circle cx="330.04" cy="167.29" r="28.74" transform="rotate(-80.7 330.03 167.294)" style="fill:url(#radial-gradient-15);mix-blend-mode:color-dodge"/><circle cx="305.9" cy="176.44" r="12.71" transform="rotate(-76.64 305.921 176.437)" style="fill:url(#radial-gradient-16);mix-blend-mode:color-dodge"/><circle cx="325.73" cy="188.13" r="12.71" style="fill:url(#radial-gradient-17);mix-blend-mode:color-dodge"/><path d="M319.09 235.92c5.15 20.71 15.83 44.55 13.3 45.7-4.47 2.03-22.04-21.39-27.19-42.1-4.54-18.23-2.39-39.66 2.33-40.84s7.03 19 11.57 37.23z" style="fill:url(#radial-gradient-18);mix-blend-mode:color-dodge"/><path d="m307.91 206.44-3.26-5.62c-.65-1.11.03-1.95.89-1.11l4.46 4.39c1.21 1.2 2.54 1.96 3.75 2.17l4.46.76c.86.15 1.54 1.77.89 2.14l-3.26 1.86c-2.19 1.25-5.74-.8-7.94-4.58z" style="fill:url(#linear-gradient-57)"/></g><g><path d="M290.05 140.85 177.44 75.63l-14.3 8.47a14.478 14.478 0 0 0-7.08 12.44v20.12c0 7.98 4.25 15.35 11.16 19.35l98.13 56.73c2.29 1.33 24.71 27.57 26.99 26.22l17.29-10.14-19.58-67.97z" style="fill:url(#linear-gradient-58);mix-blend-mode:screen"/><path d="m295.42 217.2-16.61-37.65v-20.83c0-6.21-4.39-13.78-9.8-16.91l-98.4-56.92c-2.71-1.56-5.16-1.72-6.93-.71-.16.09-4.9 2.75-5.05 2.86-1.5 1.11 2.18.61 2.18 3.44v25.67c0 6.21 4.39 13.78 9.8 16.91l95.35 55.16 24.77 31.69 4.69-2.7z" style="fill:url(#linear-gradient-59)"/><path d="m290.73 219.89-16.61-37.65v-20.83c0-6.21-4.39-13.78-9.8-16.91l-98.4-56.92c-5.41-3.13-9.8-.62-9.8 5.59v25.67c0 6.21 4.39 13.78 9.8 16.91l95.35 55.16 29.46 28.99z" style="fill:url(#linear-gradient-60)"/><path d="m165.42 88.24 98.4 56.92c5.41 3.12 9.8 10.69 9.8 16.91v20.83l14.17 32.11 4.44 4.37-16.61-37.65V160.9c0-6.21-4.39-13.78-9.8-16.91l-98.4-56.92c-3.24-1.87-6.1-1.71-7.89.04 1.64-.47 3.68-.15 5.89 1.13z" style="fill:url(#radial-gradient-19);mix-blend-mode:color-dodge"/><path class="cls-34" d="M178.77 110.19v-1.6l-1.58-.91v-4.4c.71.06 1.21-.46 1.21-1.41 0-1.26-.89-2.81-2-3.44-1.1-.64-2-.13-2 1.14 0 .94.5 2.04 1.21 2.8v4.4l-1.58-.91v1.6c-5.31-1.81-9.3 1.28-9.3 7.74 0 7.4 5.22 16.41 11.67 20.13 6.44 3.72 11.67.74 11.67-6.65 0-6.46-3.99-14.16-9.3-18.48zm4.56 20.15c-4.53-1.65-9.18-4.33-13.72-7.9-1.25-.98-2.16-2.76-2.16-4.22v-3.05c0-1.27 1-1.65 2.09-.79 4.53 3.57 9.18 6.26 13.72 7.92 1.09.4 2.09 1.94 2.09 3.21v3.2c0 1.37-.85 2.05-2.02 1.62zm-11.15-11.84c-.78-.45-1.42-.09-1.42.81s.63 1.99 1.42 2.44c.78.45 1.42.09 1.42-.81s-.63-1.99-1.42-2.44zm8.45 4.88c-.78-.45-1.42-.09-1.42.81s.63 1.99 1.42 2.44c.78.45 1.42.09 1.42-.81s-.63-1.99-1.42-2.44zM195.81 115.89v2.37l65.01 37.22v-2.37l-65.01-37.22zM223 150.97l-27.19-15.38v2.37L223 153.34v-2.37zM236.93 149.17l-41.12-23.43v2.37l41.12 23.43v-2.37zM213.68 140.67l-17.87-10v2.37l17.87 10v-2.37zM216.02 142.02v2.37l32.16 18.57v-2.37l-32.16-18.57zM225.33 152.32v2.37l18.1 10.45v-2.37l-18.1-10.45zM239.27 152.89l21.55 12.44v-2.37l-21.55-12.44v2.37zM250.52 164.31l10.3 5.94v-2.37l-10.3-5.94v2.37zM195.81 123.19l65.01 37.21v-2.37l-65.01-37.21v2.37zM245.77 166.49l15.05 8.69v-2.37l-15.05-8.69v2.37zM195.81 142.89l65.01 37.21v-2.37l-65.01-37.21v2.37z"/><path d="M278.09 150.21c1.86 4.53 1.28 9.07-1.29 10.13-2.58 1.06-6.18-1.76-8.04-6.29-1.86-4.53-1.28-9.07 1.29-10.13 2.58-1.06 6.18 1.76 8.04 6.29z" style="fill:url(#radial-gradient-20);mix-blend-mode:color-dodge"/></g></g></g></svg>