<svg width="210" height="206" viewBox="0 0 210 206" fill="none" xmlns="http://www.w3.org/2000/svg">
<rect opacity="0.3" x="16.4209" y="15.6125" width="193" height="12.0625" rx="6.03125" transform="rotate(5.32248 16.4209 15.6125)" fill="#454459"/>
<rect x="16.6466" y="15.8847" width="127.363" height="11.5625" rx="5.78125" transform="rotate(5.32248 16.6466 15.8847)" fill="url(#paint0_linear_1_294)" stroke="white" stroke-width="0.5"/>
<rect opacity="0.3" x="10.4531" y="79.6685" width="193" height="12.0625" rx="6.03125" transform="rotate(5.32248 10.4531 79.6685)" fill="#454459"/>
<rect x="10.6789" y="79.9406" width="83.9375" height="11.5625" rx="5.78125" transform="rotate(5.32248 10.6789 79.9406)" fill="url(#paint1_linear_1_294)" stroke="white" stroke-width="0.5"/>
<rect opacity="0.3" x="4.48584" y="143.724" width="193" height="12.0625" rx="6.03125" transform="rotate(5.32248 4.48584 143.724)" fill="#454459"/>
<rect x="4.71157" y="143.996" width="63.0292" height="11.5625" rx="5.78125" transform="rotate(5.32248 4.71157 143.996)" fill="url(#paint2_linear_1_294)" stroke="white" stroke-width="0.5"/>
<rect opacity="0.3" x="13.437" y="47.6405" width="193" height="12.0625" rx="6.03125" transform="rotate(5.32248 13.437 47.6405)" fill="#454459"/>
<rect x="13.6627" y="47.9126" width="154.302" height="11.5625" rx="5.78125" transform="rotate(5.32248 13.6627 47.9126)" fill="url(#paint3_linear_1_294)" stroke="white" stroke-width="0.5"/>
<rect opacity="0.3" x="7.46973" y="111.697" width="193" height="12.0625" rx="6.03125" transform="rotate(5.32248 7.46973 111.697)" fill="#454459"/>
<rect x="7.69546" y="111.969" width="112.485" height="11.5625" rx="5.78125" transform="rotate(5.32248 7.69546 111.969)" fill="url(#paint4_linear_1_294)" stroke="white" stroke-width="0.5"/>
<rect opacity="0.3" x="1.50195" y="175.752" width="193" height="12.0625" rx="6.03125" transform="rotate(5.32248 1.50195 175.752)" fill="#454459"/>
<rect x="1.72768" y="176.024" width="139.023" height="11.5625" rx="5.78125" transform="rotate(5.32248 1.72768 176.024)" fill="url(#paint5_linear_1_294)" stroke="white" stroke-width="0.5"/>
<rect x="161.994" y="65.5188" width="1.20625" height="4.02083" rx="0.603125" transform="rotate(5.32248 161.994 65.5188)" fill="white"/>
<rect x="88.9492" y="91.0197" width="1.20625" height="4.02083" rx="0.603125" transform="rotate(5.32248 88.9492 91.0197)" fill="white"/>
<rect x="114.39" y="125.696" width="1.20625" height="4.02083" rx="0.603125" transform="rotate(5.32248 114.39 125.696)" fill="white"/>
<rect x="62.1636" y="153.136" width="1.20625" height="4.02083" rx="0.603125" transform="rotate(5.32248 62.1636 153.136)" fill="white"/>
<rect x="134.846" y="192.213" width="1.20625" height="4.02083" rx="0.603125" transform="rotate(5.32248 134.846 192.213)" fill="white"/>
<rect x="136.954" y="30.8799" width="1.20625" height="4.02083" rx="0.603125" transform="rotate(5.32248 136.954 30.8799)" fill="white"/>
<path d="M24.2145 10.4709C24.1124 11.5662 23.1444 12.4703 21.5612 12.3228C20.1175 12.1883 19.0728 11.3277 19.1753 10.0115L20.6689 10.1506C20.6568 10.7119 20.9908 11.1147 21.638 11.1749C22.2952 11.2362 22.716 10.9239 22.7624 10.426C22.9024 8.92252 19.2335 9.49466 19.4782 6.97649C19.5951 5.72192 20.6812 5.05982 22.1149 5.19339C23.5388 5.32604 24.4468 6.1438 24.4196 7.40672L22.8862 7.26386C22.899 6.80307 22.564 6.4103 21.9675 6.34468C21.4217 6.27375 20.9885 6.50455 20.9356 7.0721C20.8057 8.46606 24.4426 8.02151 24.2145 10.4709ZM27.0692 8.00508C27.4414 7.56772 28.1176 7.2089 28.9739 7.28867C30.3878 7.42039 31.39 8.62857 31.2296 10.3511C31.0691 12.0737 29.8572 13.1157 28.4433 12.984C27.5771 12.9033 26.9996 12.4177 26.7028 11.9381L26.3847 15.3533L24.9907 15.2234L25.7495 7.07867L27.1435 7.20853L27.0692 8.00508ZM29.8057 10.2185C29.9031 9.17299 29.2481 8.54955 28.4914 8.47905C27.7446 8.40948 26.9839 8.92112 26.8865 9.96659C26.7891 11.0121 27.4422 11.6554 28.189 11.725C28.9457 11.7955 29.7083 11.2639 29.8057 10.2185ZM37.5676 10.9617C37.4062 12.6942 36.0278 13.6906 34.4248 13.5413C32.8317 13.3928 31.7308 12.1654 31.8922 10.4329C32.0545 8.69048 33.4021 7.70121 34.9952 7.84963C36.5883 7.99805 37.7299 9.21922 37.5676 10.9617ZM33.306 10.5647C33.204 11.6599 33.7912 12.2569 34.5379 12.3265C35.2747 12.3952 36.0318 11.9234 36.1338 10.8281C36.2368 9.72288 35.5989 9.13116 34.8621 9.06252C34.1253 8.99387 33.409 9.45944 33.306 10.5647ZM39.9832 11.1968L39.7271 13.9449L38.3332 13.815L38.8471 8.29888L40.241 8.42874L40.1613 9.28503C40.5626 8.74996 41.1744 8.43535 41.9411 8.50678L41.8048 9.97044L41.4364 9.93612C40.6099 9.85913 40.0824 10.1314 39.9832 11.1968ZM42.7373 12.4978L42.985 9.83936L42.3278 9.77813L42.4345 8.63309L43.0917 8.69431L43.2187 7.33022L44.6227 7.46101L44.4956 8.82511L45.7302 8.94013L45.6236 10.0852L44.3889 9.97015L44.1403 12.6386C44.106 13.007 44.2405 13.1802 44.6786 13.221L45.3258 13.2813L45.2163 14.4562L44.3401 14.3746C43.2847 14.2763 42.6195 13.7624 42.7373 12.4978Z" fill="white"/>
<path d="M13.2008 76.0857L13.8483 69.1358L18.1397 69.5356L18.0349 70.6607L15.1374 70.3908L14.9714 72.173L17.1918 72.3799L17.0888 73.4851L14.8684 73.2783L14.5948 76.2155L13.2008 76.0857ZM20.1307 73.9593L19.8747 76.7074L18.4807 76.5776L18.9946 71.0614L20.3886 71.1913L20.3088 72.0476C20.7102 71.5125 21.322 71.1979 22.0887 71.2693L21.9523 72.733L21.5839 72.6987C20.7575 72.6217 20.2299 72.8939 20.1307 73.9593ZM22.5062 76.9526L23.0201 71.4365L24.4141 71.5663L23.9002 77.0825L22.5062 76.9526ZM23.7883 70.8452C23.2905 70.7988 22.9654 70.407 23.0081 69.9489C23.0507 69.4909 23.4426 69.1659 23.9404 69.2123C24.4283 69.2577 24.7633 69.6505 24.7207 70.1085C24.678 70.5665 24.2762 70.8906 23.7883 70.8452ZM28.0628 72.9708C27.3956 72.9087 26.828 73.2877 26.648 74.0342L29.2667 74.2782C29.3145 73.5495 28.7796 73.0376 28.0628 72.9708ZM30.4272 75.943C30.0339 76.9308 29.0428 77.6519 27.6787 77.5249C26.0756 77.3755 25.0145 76.1518 25.1759 74.4193C25.3383 72.6769 26.5763 71.6774 28.2093 71.8295C29.8024 71.9779 30.8264 73.1681 30.6733 74.8109C30.6566 74.9902 30.63 75.1685 30.5834 75.3449L26.5509 74.9692C26.5445 75.7922 27.0594 76.3021 27.7564 76.3671C28.3538 76.4227 28.7102 76.1546 28.9238 75.8029L30.4272 75.943ZM35.286 78.1432L35.5698 75.0964C35.6524 74.2102 35.209 73.6868 34.4722 73.6182C33.7155 73.5477 33.1831 73.9802 33.1005 74.8663L32.8167 77.9131L31.4227 77.7833L31.9366 72.2672L33.3306 72.397L33.2666 73.084C33.6686 72.6495 34.2938 72.4064 35.0008 72.4723C36.2852 72.5919 37.1233 73.5137 36.9814 75.0371L36.6799 78.2731L35.286 78.1432ZM37.9059 75.5852C38.0664 73.8626 39.2845 72.8613 40.6984 72.993C41.4252 73.0608 42.0907 73.4642 42.4208 74.0172L42.6648 71.3986L44.0786 71.5303L43.3922 78.8984L41.9783 78.7667L42.0544 77.9502C41.6785 78.4274 41.0241 78.7682 40.1578 78.6875C38.7539 78.5567 37.7454 77.3077 37.9059 75.5852ZM42.2452 76.0095C42.3426 74.9641 41.6995 74.3216 40.9328 74.2502C40.186 74.1806 39.4271 74.6724 39.3297 75.7178C39.2323 76.7633 39.8836 77.4266 40.6304 77.4961C41.397 77.5676 42.1478 77.055 42.2452 76.0095ZM49.1817 77.8509C49.0936 78.7968 48.2003 79.4367 46.8562 79.3115C45.4722 79.1825 44.5815 78.2861 44.6173 77.2549L46.0212 77.3857C46.032 77.8086 46.3907 78.1634 46.9482 78.2153C47.4959 78.2663 47.8178 78.0452 47.8475 77.7266C47.9393 76.7409 44.7643 77.0778 44.9526 75.0566C45.038 74.1405 45.9231 73.4798 47.2872 73.6069C48.6214 73.7312 49.3602 74.5332 49.3378 75.6358L48.0036 75.5115C48.0037 75.0797 47.692 74.7594 47.1444 74.7084C46.6266 74.6601 46.3383 74.8442 46.3086 75.1628C46.2149 76.1685 49.3302 75.8259 49.1817 77.8509Z" fill="white"/>
<path d="M17.5877 44.1981L16.3642 37.0638L17.8578 37.203L18.5797 42.7137L20.4963 37.4488L22.0496 37.5935L22.8838 43.0846L24.6185 37.8328L26.122 37.9729L23.5329 44.7419L21.89 44.5889L21.0467 39.5188L19.2216 44.3403L17.5877 44.1981ZM31.9686 42.7458C31.8072 44.4783 30.4288 45.4748 28.8257 45.3254C27.2326 45.177 26.1317 43.9496 26.2931 42.2171C26.4555 40.4746 27.8031 39.4854 29.3962 39.6338C30.9893 39.7822 32.1309 41.0034 31.9686 42.7458ZM27.707 42.3488C27.605 43.4441 28.1921 44.0411 28.9389 44.1107C29.6757 44.1793 30.4327 43.7075 30.5348 42.6122C30.6377 41.507 29.9999 40.9153 29.2631 40.8467C28.5263 40.778 27.81 41.2436 27.707 42.3488ZM34.3841 42.9809L34.1281 45.729L32.7341 45.5991L33.248 40.083L34.642 40.2129L34.5622 41.0692C34.9636 40.5341 35.5754 40.2195 36.3421 40.2909L36.2057 41.7546L35.8373 41.7203C35.0109 41.6433 34.4834 41.9155 34.3841 42.9809ZM36.7597 45.9742L37.4461 38.6061L38.8401 38.7359L38.4496 42.9278L40.5195 40.7605L42.3317 40.9293L39.6443 43.471L41.8377 46.4473L40.0255 46.2784L38.3726 43.7542L38.1536 46.104L36.7597 45.9742Z" fill="white"/>
<path d="M10.2169 108.114L10.8644 101.164L12.4476 101.311L14.1766 106.685L16.8684 101.723L18.4416 101.87L17.7941 108.819L16.4002 108.69L16.8213 104.169L14.5382 108.516L13.4828 108.418L12.032 103.723L11.6109 108.243L10.2169 108.114ZM24.7562 106.686C24.5948 108.419 23.2164 109.415 21.6134 109.266C20.0202 109.117 18.9194 107.89 19.0808 106.157C19.2431 104.415 20.5907 103.426 22.1838 103.574C23.7769 103.722 24.9185 104.944 24.7562 106.686ZM20.4946 106.289C20.3926 107.384 20.9798 107.981 21.7265 108.051C22.4633 108.12 23.2204 107.648 23.3224 106.552C23.4254 105.447 22.7875 104.856 22.0507 104.787C21.3139 104.718 20.5976 105.184 20.4946 106.289ZM25.4482 103.969L26.9417 104.108L27.9415 108.469L29.7297 104.367L31.2132 104.506L28.6582 109.832L26.9655 109.674L25.4482 103.969ZM31.4823 110.095L31.9962 104.579L33.3901 104.708L32.8762 110.225L31.4823 110.095ZM32.7643 103.987C32.2665 103.941 31.9414 103.549 31.9841 103.091C32.0268 102.633 32.4186 102.308 32.9165 102.354C33.4044 102.4 33.7394 102.793 33.6967 103.251C33.654 103.709 33.2522 104.033 32.7643 103.987ZM37.0388 106.113C36.3717 106.051 35.8041 106.43 35.6241 107.176L38.2427 107.42C38.2905 106.692 37.7557 106.18 37.0388 106.113ZM39.4033 109.085C39.01 110.073 38.0188 110.794 36.6547 110.667C35.0516 110.518 33.9906 109.294 34.152 107.561C34.3143 105.819 35.5524 104.819 37.1853 104.972C38.7784 105.12 39.8024 106.31 39.6494 107.953C39.6327 108.132 39.606 108.311 39.5594 108.487L35.5269 108.111C35.5205 108.934 36.0355 109.444 36.7324 109.509C37.3298 109.565 37.6863 109.297 37.8998 108.945L39.4033 109.085Z" fill="white"/>
<path d="M7.40731 134.282L7.51213 133.157L12.6101 133.632L12.5052 134.757L10.6533 134.585L10.1106 140.409L8.71663 140.28L9.25929 134.455L7.40731 134.282ZM14.6296 138.058L14.3736 140.807L12.9797 140.677L13.4936 135.161L14.8875 135.29L14.8077 136.147C15.2091 135.612 15.8209 135.297 16.5876 135.368L16.4513 136.832L16.0828 136.798C15.2564 136.721 14.7289 136.993 14.6296 138.058ZM16.9056 138.24C17.066 136.518 18.2842 135.517 19.6881 135.647C20.5742 135.73 21.1427 136.205 21.4286 136.693L21.5018 135.907L22.9058 136.037L22.3919 141.554L20.9879 141.423L21.0631 140.616C20.69 141.064 20.0237 141.423 19.1475 141.342C17.7536 141.212 16.7451 139.963 16.9056 138.24ZM21.2449 138.665C21.3423 137.619 20.6991 136.977 19.9324 136.905C19.1857 136.836 18.4268 137.328 18.3294 138.373C18.232 139.418 18.8833 140.082 19.63 140.151C20.3967 140.223 21.1475 139.71 21.2449 138.665ZM23.6798 136.11L25.1733 136.249L26.173 140.61L27.9612 136.508L29.4448 136.647L26.8897 141.973L25.1971 141.815L23.6798 136.11ZM32.4991 137.996C31.832 137.934 31.2644 138.313 31.0844 139.059L33.7031 139.303C33.7509 138.574 33.216 138.063 32.4991 137.996ZM34.8636 140.968C34.4703 141.956 33.4791 142.677 32.1151 142.55C30.512 142.4 29.4509 141.177 29.6123 139.444C29.7747 137.702 31.0127 136.702 32.6456 136.854C34.2387 137.003 35.2628 138.193 35.1097 139.836C35.093 140.015 35.0664 140.193 35.0198 140.37L30.9873 139.994C30.9809 140.817 31.4958 141.327 32.1928 141.392C32.7902 141.448 33.1466 141.18 33.3601 140.828L34.8636 140.968ZM35.8591 142.808L36.5455 135.44L37.9395 135.57L37.2531 142.938L35.8591 142.808Z" fill="white"/>
<path d="M4.24917 172.17L4.89664 165.22L9.18806 165.62L9.08324 166.745L6.18579 166.475L6.01975 168.257L8.24013 168.464L8.13717 169.569L5.91678 169.362L5.64313 172.3L4.24917 172.17ZM15.1129 170.4C14.9515 172.132 13.5731 173.129 11.9701 172.979C10.377 172.831 9.2761 171.604 9.4375 169.871C9.59983 168.129 10.9474 167.139 12.5405 167.288C14.1336 167.436 15.2753 168.657 15.1129 170.4ZM10.8514 170.003C10.7493 171.098 11.3365 171.695 12.0833 171.765C12.8201 171.833 13.5771 171.361 13.6791 170.266C13.7821 169.161 13.1442 168.569 12.4074 168.501C11.6706 168.432 10.9543 168.898 10.8514 170.003ZM21.4624 170.991C21.301 172.724 19.9226 173.72 18.3195 173.571C16.7264 173.422 15.6256 172.195 15.787 170.463C15.9493 168.72 17.2969 167.731 18.89 167.879C20.4831 168.028 21.6247 169.249 21.4624 170.991ZM17.2008 170.594C17.0988 171.69 17.6859 172.287 18.4327 172.356C19.1695 172.425 19.9266 171.953 20.0286 170.858C20.1316 169.753 19.4937 169.161 18.7569 169.092C18.0201 169.023 17.3038 169.489 17.2008 170.594ZM22.1283 171.033C22.2888 169.311 23.5069 168.309 24.9208 168.441C25.6477 168.509 26.3131 168.912 26.6432 169.465L26.8872 166.847L28.3011 166.978L27.6146 174.346L26.2008 174.215L26.2768 173.398C25.9009 173.875 25.2465 174.216 24.3803 174.136C22.9763 174.005 21.9678 172.756 22.1283 171.033ZM26.4677 171.458C26.5651 170.412 25.9219 169.77 25.1552 169.698C24.4084 169.629 23.6495 170.12 23.5521 171.166C23.4547 172.211 24.106 172.875 24.8528 172.944C25.6195 173.016 26.3703 172.503 26.4677 171.458Z" fill="white"/>
<circle opacity="0.4" cx="150.379" cy="34.1497" r="1.20625" transform="rotate(5.32248 150.379 34.1497)" fill="#454459"/>
<circle opacity="0.4" cx="158.786" cy="34.9331" r="1.20625" transform="rotate(5.32248 158.786 34.9331)" fill="#454459"/>
<circle opacity="0.4" cx="167.194" cy="35.7163" r="1.20625" transform="rotate(5.32248 167.194 35.7163)" fill="#454459"/>
<circle opacity="0.4" cx="175.601" cy="36.4996" r="1.20625" transform="rotate(5.32248 175.601 36.4996)" fill="#454459"/>
<circle opacity="0.4" cx="184.009" cy="37.2828" r="1.20625" transform="rotate(5.32248 184.009 37.2828)" fill="#454459"/>
<circle opacity="0.4" cx="192.416" cy="38.066" r="1.20625" transform="rotate(5.32248 192.416 38.066)" fill="#454459"/>
<circle opacity="0.4" cx="200.824" cy="38.8493" r="1.20625" transform="rotate(5.32248 200.824 38.8493)" fill="#454459"/>
<circle opacity="0.4" cx="143.867" cy="195.073" r="1.20625" transform="rotate(5.32248 143.867 195.073)" fill="#454459"/>
<circle opacity="0.4" cx="152.275" cy="195.856" r="1.20625" transform="rotate(5.32248 152.275 195.856)" fill="#454459"/>
<circle opacity="0.4" cx="160.682" cy="196.639" r="1.20625" transform="rotate(5.32248 160.682 196.639)" fill="#454459"/>
<circle opacity="0.4" cx="169.09" cy="197.423" r="1.20625" transform="rotate(5.32248 169.09 197.423)" fill="#454459"/>
<circle opacity="0.4" cx="177.497" cy="198.206" r="1.20625" transform="rotate(5.32248 177.497 198.206)" fill="#454459"/>
<circle opacity="0.4" cx="185.904" cy="198.989" r="1.20625" transform="rotate(5.32248 185.904 198.989)" fill="#454459"/>
<circle opacity="0.4" cx="172.617" cy="68.5277" r="1.20625" transform="rotate(5.32248 172.617 68.5277)" fill="#454459"/>
<circle opacity="0.4" cx="181.024" cy="69.311" r="1.20625" transform="rotate(5.32248 181.024 69.311)" fill="#454459"/>
<circle opacity="0.4" cx="189.432" cy="70.0943" r="1.20625" transform="rotate(5.32248 189.432 70.0943)" fill="#454459"/>
<circle opacity="0.4" cx="197.839" cy="70.8775" r="1.20625" transform="rotate(5.32248 197.839 70.8775)" fill="#454459"/>
<circle opacity="0.4" cx="102.375" cy="94.2895" r="1.20625" transform="rotate(5.32248 102.375 94.2895)" fill="#454459"/>
<circle opacity="0.4" cx="161.226" cy="99.7722" r="1.20625" transform="rotate(5.32248 161.226 99.7722)" fill="#454459"/>
<circle opacity="0.4" cx="110.782" cy="95.0727" r="1.20625" transform="rotate(5.32248 110.782 95.0727)" fill="#454459"/>
<circle opacity="0.4" cx="169.634" cy="100.555" r="1.20625" transform="rotate(5.32248 169.634 100.555)" fill="#454459"/>
<circle opacity="0.4" cx="119.19" cy="95.8559" r="1.20625" transform="rotate(5.32248 119.19 95.8559)" fill="#454459"/>
<circle opacity="0.4" cx="178.041" cy="101.339" r="1.20625" transform="rotate(5.32248 178.041 101.339)" fill="#454459"/>
<circle opacity="0.4" cx="127.597" cy="96.6392" r="1.20625" transform="rotate(5.32248 127.597 96.6392)" fill="#454459"/>
<circle opacity="0.4" cx="186.448" cy="102.122" r="1.20625" transform="rotate(5.32248 186.448 102.122)" fill="#454459"/>
<circle opacity="0.4" cx="136.004" cy="97.4224" r="1.20625" transform="rotate(5.32248 136.004 97.4224)" fill="#454459"/>
<circle opacity="0.4" cx="194.856" cy="102.905" r="1.20625" transform="rotate(5.32248 194.856 102.905)" fill="#454459"/>
<circle opacity="0.4" cx="144.411" cy="98.2058" r="1.20625" transform="rotate(5.32248 144.411 98.2058)" fill="#454459"/>
<circle opacity="0.4" cx="152.819" cy="98.989" r="1.20625" transform="rotate(5.32248 152.819 98.989)" fill="#454459"/>
<circle opacity="0.4" cx="96.407" cy="158.346" r="1.20625" transform="rotate(5.32248 96.407 158.346)" fill="#454459"/>
<circle opacity="0.4" cx="71.1849" cy="155.996" r="1.20625" transform="rotate(5.32248 71.1849 155.996)" fill="#454459"/>
<circle opacity="0.4" cx="155.258" cy="163.828" r="1.20625" transform="rotate(5.32248 155.258 163.828)" fill="#454459"/>
<circle opacity="0.4" cx="104.814" cy="159.129" r="1.20625" transform="rotate(5.32248 104.814 159.129)" fill="#454459"/>
<circle opacity="0.4" cx="79.5921" cy="156.779" r="1.20625" transform="rotate(5.32248 79.5921 156.779)" fill="#454459"/>
<circle opacity="0.4" cx="163.666" cy="164.612" r="1.20625" transform="rotate(5.32248 163.666 164.612)" fill="#454459"/>
<circle opacity="0.4" cx="113.221" cy="159.912" r="1.20625" transform="rotate(5.32248 113.221 159.912)" fill="#454459"/>
<circle opacity="0.4" cx="87.9993" cy="157.562" r="1.20625" transform="rotate(5.32248 87.9993 157.562)" fill="#454459"/>
<circle opacity="0.4" cx="172.073" cy="165.395" r="1.20625" transform="rotate(5.32248 172.073 165.395)" fill="#454459"/>
<circle opacity="0.4" cx="121.629" cy="160.695" r="1.20625" transform="rotate(5.32248 121.629 160.695)" fill="#454459"/>
<circle opacity="0.4" cx="180.48" cy="166.178" r="1.20625" transform="rotate(5.32248 180.48 166.178)" fill="#454459"/>
<circle opacity="0.4" cx="130.036" cy="161.479" r="1.20625" transform="rotate(5.32248 130.036 161.479)" fill="#454459"/>
<circle opacity="0.4" cx="188.887" cy="166.961" r="1.20625" transform="rotate(5.32248 188.887 166.961)" fill="#454459"/>
<circle opacity="0.4" cx="138.444" cy="162.262" r="1.20625" transform="rotate(5.32248 138.444 162.262)" fill="#454459"/>
<circle opacity="0.4" cx="146.851" cy="163.045" r="1.20625" transform="rotate(5.32248 146.851 163.045)" fill="#454459"/>
<circle opacity="0.4" cx="158.242" cy="131.8" r="1.20625" transform="rotate(5.32248 158.242 131.8)" fill="#454459"/>
<circle opacity="0.4" cx="166.65" cy="132.583" r="1.20625" transform="rotate(5.32248 166.65 132.583)" fill="#454459"/>
<circle opacity="0.4" cx="175.057" cy="133.367" r="1.20625" transform="rotate(5.32248 175.057 133.367)" fill="#454459"/>
<circle opacity="0.4" cx="124.613" cy="128.667" r="1.20625" transform="rotate(5.32248 124.613 128.667)" fill="#454459"/>
<circle opacity="0.4" cx="183.465" cy="134.15" r="1.20625" transform="rotate(5.32248 183.465 134.15)" fill="#454459"/>
<circle opacity="0.4" cx="133.02" cy="129.451" r="1.20625" transform="rotate(5.32248 133.02 129.451)" fill="#454459"/>
<circle opacity="0.4" cx="191.872" cy="134.933" r="1.20625" transform="rotate(5.32248 191.872 134.933)" fill="#454459"/>
<circle opacity="0.4" cx="141.428" cy="130.234" r="1.20625" transform="rotate(5.32248 141.428 130.234)" fill="#454459"/>
<circle opacity="0.4" cx="149.835" cy="131.017" r="1.20625" transform="rotate(5.32248 149.835 131.017)" fill="#454459"/>
<defs>
<linearGradient id="paint0_linear_1_294" x1="80.3521" y1="15.6125" x2="80.3521" y2="27.675" gradientUnits="userSpaceOnUse">
<stop stop-color="#7AD3FF"/>
<stop offset="1" stop-color="#4FBAF0"/>
</linearGradient>
<linearGradient id="paint1_linear_1_294" x1="52.6719" y1="79.6685" x2="52.6719" y2="91.731" gradientUnits="userSpaceOnUse">
<stop stop-color="#B09FFF"/>
<stop offset="1" stop-color="#8D79F6"/>
</linearGradient>
<linearGradient id="paint2_linear_1_294" x1="36.2504" y1="143.724" x2="36.2504" y2="155.787" gradientUnits="userSpaceOnUse">
<stop stop-color="#99FFA3"/>
<stop offset="1" stop-color="#68EE76"/>
</linearGradient>
<linearGradient id="paint3_linear_1_294" x1="90.8381" y1="47.6405" x2="90.8381" y2="59.703" gradientUnits="userSpaceOnUse">
<stop stop-color="#FF9364"/>
<stop offset="1" stop-color="#F25F33"/>
</linearGradient>
<linearGradient id="paint4_linear_1_294" x1="63.9624" y1="111.697" x2="63.9624" y2="123.759" gradientUnits="userSpaceOnUse">
<stop stop-color="#FE6C6C"/>
<stop offset="1" stop-color="#FE464B"/>
</linearGradient>
<linearGradient id="paint5_linear_1_294" x1="71.2634" y1="175.752" x2="71.2634" y2="187.815" gradientUnits="userSpaceOnUse">
<stop stop-color="#FFD572"/>
<stop offset="1" stop-color="#FEBD38"/>
</linearGradient>
</defs>
</svg>
