<svg width="210" height="206" fill="none" xmlns="http://www.w3.org/2000/svg"><rect opacity=".3" x="16.421" y="15.613" width="193" height="12.063" rx="6.031" transform="rotate(5.322 16.42 15.613)" fill="#454459"/><rect x="16.647" y="15.885" width="127.363" height="11.563" rx="5.781" transform="rotate(5.322 16.647 15.885)" fill="url(#a)" stroke="#fff" stroke-width=".5"/><rect opacity=".3" x="10.453" y="79.668" width="193" height="12.063" rx="6.031" transform="rotate(5.322 10.453 79.668)" fill="#454459"/><rect x="10.679" y="79.941" width="83.938" height="11.563" rx="5.781" transform="rotate(5.322 10.679 79.94)" fill="url(#b)" stroke="#fff" stroke-width=".5"/><rect opacity=".3" x="4.486" y="143.724" width="193" height="12.063" rx="6.031" transform="rotate(5.322 4.486 143.724)" fill="#454459"/><rect x="4.712" y="143.996" width="63.029" height="11.563" rx="5.781" transform="rotate(5.322 4.712 143.996)" fill="url(#c)" stroke="#fff" stroke-width=".5"/><rect opacity=".3" x="13.437" y="47.641" width="193" height="12.063" rx="6.031" transform="rotate(5.322 13.437 47.64)" fill="#454459"/><rect x="13.663" y="47.913" width="154.302" height="11.563" rx="5.781" transform="rotate(5.322 13.663 47.913)" fill="url(#d)" stroke="#fff" stroke-width=".5"/><rect opacity=".3" x="7.47" y="111.697" width="193" height="12.063" rx="6.031" transform="rotate(5.322 7.47 111.697)" fill="#454459"/><rect x="7.695" y="111.969" width="112.485" height="11.563" rx="5.781" transform="rotate(5.322 7.695 111.969)" fill="url(#e)" stroke="#fff" stroke-width=".5"/><rect opacity=".3" x="1.502" y="175.752" width="193" height="12.063" rx="6.031" transform="rotate(5.322 1.502 175.752)" fill="#454459"/><rect x="1.728" y="176.024" width="139.023" height="11.563" rx="5.781" transform="rotate(5.322 1.728 176.024)" fill="url(#f)" stroke="#fff" stroke-width=".5"/><rect x="161.994" y="65.519" width="1.206" height="4.021" rx=".603" transform="rotate(5.322 161.994 65.519)" fill="#fff"/><rect x="88.949" y="91.02" width="1.206" height="4.021" rx=".603" transform="rotate(5.322 88.95 91.02)" fill="#fff"/><rect x="114.39" y="125.696" width="1.206" height="4.021" rx=".603" transform="rotate(5.322 114.39 125.696)" fill="#fff"/><rect x="62.164" y="153.136" width="1.206" height="4.021" rx=".603" transform="rotate(5.322 62.164 153.136)" fill="#fff"/><rect x="134.846" y="192.213" width="1.206" height="4.021" rx=".603" transform="rotate(5.322 134.846 192.213)" fill="#fff"/><rect x="136.954" y="30.88" width="1.206" height="4.021" rx=".603" transform="rotate(5.322 136.954 30.88)" fill="#fff"/><path d="M24.215 10.47c-.103 1.096-1.07 2-2.654 1.853-1.444-.135-2.488-.995-2.386-2.312l1.494.14c-.012.56.322.964.969 1.024.657.061 1.078-.251 1.124-.749.14-1.503-3.529-.931-3.284-3.45.117-1.254 1.203-1.916 2.637-1.783 1.424.133 2.332.95 2.305 2.214l-1.534-.143c.013-.46-.322-.854-.918-.92-.546-.07-.98.16-1.032.728-.13 1.394 3.507.95 3.279 3.399zm2.854-2.465c.372-.437 1.049-.796 1.905-.716 1.414.131 2.416 1.34 2.256 3.062-.16 1.723-1.373 2.765-2.787 2.633-.866-.08-1.443-.566-1.74-1.046l-.318 3.415-1.394-.13.759-8.144 1.393.13-.074.796zm2.737 2.213c.097-1.045-.558-1.668-1.315-1.739-.746-.07-1.507.442-1.604 1.488-.098 1.045.555 1.688 1.302 1.758.757.07 1.52-.461 1.617-1.506zm7.762.744c-.162 1.732-1.54 2.729-3.143 2.58-1.593-.15-2.694-1.377-2.533-3.11.162-1.742 1.51-2.73 3.103-2.582 1.593.148 2.735 1.37 2.573 3.112zm-4.262-.397c-.102 1.095.485 1.692 1.232 1.761.737.07 1.494-.403 1.596-1.498.103-1.105-.535-1.697-1.272-1.765-.737-.07-1.453.396-1.556 1.502zm6.677.632-.256 2.748-1.394-.13.514-5.516 1.394.13-.08.856c.402-.535 1.013-.85 1.78-.778l-.136 1.463-.369-.034c-.826-.077-1.354.195-1.453 1.26zm2.754 1.3.248-2.658-.657-.06.106-1.146.658.061.127-1.364 1.404.131-.127 1.364 1.234.115-.106 1.145-1.235-.115-.249 2.669c-.034.368.1.541.539.582l.647.06-.11 1.175-.876-.081c-1.055-.099-1.72-.613-1.603-1.877zM13.2 76.086l.648-6.95 4.292.4-.105 1.125-2.898-.27-.166 1.782 2.22.207-.102 1.105-2.22-.207-.274 2.938-1.394-.13zm6.93-2.127-.255 2.748-1.394-.13.514-5.516 1.394.13-.08.857c.401-.535 1.013-.85 1.78-.779l-.137 1.464-.368-.034c-.826-.077-1.354.195-1.453 1.26zm2.376 2.994.514-5.517 1.394.13-.514 5.516-1.394-.13zm1.282-6.108c-.497-.046-.823-.438-.78-.896.043-.458.435-.783.932-.737.488.046.823.438.78.897-.042.458-.444.782-.932.736zm4.275 2.126c-.667-.062-1.235.317-1.415 1.063l2.619.244c.047-.729-.487-1.24-1.204-1.307zm2.364 2.972c-.393.988-1.384 1.709-2.748 1.582-1.603-.15-2.664-1.373-2.503-3.106.162-1.742 1.4-2.742 3.033-2.59 1.593.149 2.617 1.34 2.464 2.982-.016.18-.043.357-.09.534l-4.032-.376c-.006.823.508 1.333 1.205 1.398.598.056.954-.212 1.168-.564l1.503.14zm4.859 2.2.284-3.047c.082-.886-.361-1.41-1.098-1.478-.757-.07-1.289.362-1.372 1.248l-.283 3.047-1.394-.13.514-5.516 1.394.13-.064.687c.402-.434 1.027-.678 1.734-.612 1.284.12 2.122 1.042 1.98 2.565l-.301 3.236-1.394-.13zm2.62-2.558c.16-1.722 1.379-2.724 2.792-2.592.727.068 1.393.471 1.723 1.024l.244-2.618 1.414.131-.687 7.368-1.414-.131.076-.817c-.376.477-1.03.818-1.896.737-1.404-.13-2.413-1.38-2.252-3.102zm4.34.425c.097-1.046-.547-1.688-1.313-1.76-.747-.07-1.506.422-1.603 1.468-.098 1.045.554 1.709 1.3 1.778.767.072 1.518-.441 1.615-1.486zm6.936 1.84c-.088.947-.982 1.587-2.326 1.462-1.384-.13-2.275-1.026-2.239-2.057l1.404.13c.011.424.37.778.927.83.548.051.87-.17.9-.488.091-.986-3.084-.65-2.895-2.67.085-.916.97-1.577 2.334-1.45 1.334.124 2.073.926 2.05 2.029l-1.333-.124c0-.432-.312-.753-.86-.804-.517-.048-.806.136-.835.455-.094 1.005 3.021.663 2.873 2.688zM17.588 44.198l-1.224-7.134 1.494.139.722 5.51 1.916-5.264 1.554.145.834 5.49 1.735-5.251 1.503.14-2.59 6.769-1.642-.153-.843-5.07-1.825 4.821-1.634-.142zm14.38-1.452c-.16 1.732-1.54 2.729-3.142 2.58-1.593-.149-2.694-1.376-2.533-3.109.163-1.742 1.51-2.732 3.103-2.583 1.593.148 2.735 1.37 2.573 3.112zm-4.261-.397c-.102 1.095.485 1.692 1.232 1.762.737.068 1.494-.403 1.596-1.499.103-1.105-.535-1.697-1.272-1.765-.737-.069-1.453.397-1.556 1.502zm6.677.632-.256 2.748-1.394-.13.514-5.516 1.394.13-.08.856c.402-.535 1.013-.85 1.78-.778l-.136 1.464-.369-.035c-.826-.077-1.354.196-1.453 1.26zm2.376 2.993.686-7.368 1.394.13-.39 4.192 2.07-2.167 1.812.168-2.688 2.542 2.194 2.976-1.813-.169-1.652-2.524-.22 2.35-1.393-.13zM10.217 108.114l.647-6.95 1.584.147 1.729 5.374 2.691-4.962 1.574.147-.648 6.949-1.394-.129.421-4.521-2.283 4.347-1.055-.098-1.451-4.695-.421 4.52-1.394-.129zm14.54-1.428c-.162 1.733-1.54 2.729-3.144 2.58-1.593-.149-2.694-1.376-2.532-3.109.162-1.742 1.51-2.731 3.103-2.583 1.593.148 2.735 1.37 2.572 3.112zm-4.262-.397c-.102 1.095.485 1.692 1.232 1.762.736.069 1.493-.403 1.595-1.499.103-1.105-.534-1.696-1.271-1.765-.737-.069-1.453.397-1.556 1.502zm4.953-2.32 1.494.139 1 4.361 1.788-4.102 1.483.139-2.555 5.326-1.693-.158-1.517-5.705zm6.034 6.126.514-5.516 1.394.129-.514 5.517-1.394-.13zm1.282-6.108c-.498-.046-.823-.438-.78-.896.043-.458.435-.783.932-.737.488.046.823.439.78.897-.042.458-.444.782-.932.736zm4.275 2.126c-.667-.062-1.235.317-1.415 1.063l2.619.244c.047-.728-.487-1.24-1.204-1.307zm2.364 2.972c-.393.988-1.384 1.709-2.748 1.582-1.603-.149-2.664-1.373-2.503-3.106.162-1.742 1.4-2.742 3.033-2.589 1.593.148 2.617 1.338 2.464 2.981a3.266 3.266 0 0 1-.09.534l-4.032-.376c-.007.823.508 1.333 1.205 1.398.598.056.954-.212 1.168-.564l1.503.14zM7.407 134.282l.105-1.125 5.098.475-.105 1.125-1.852-.172-.542 5.824-1.394-.129.542-5.825-1.852-.173zm7.223 3.776-.256 2.749-1.394-.13.514-5.516 1.393.129-.08.857c.402-.535 1.014-.85 1.78-.779l-.136 1.464-.368-.034c-.827-.077-1.354.195-1.453 1.26zm2.276.182c.16-1.722 1.378-2.723 2.782-2.593.886.083 1.455.558 1.74 1.046l.074-.786 1.404.13-.514 5.517-1.404-.131.075-.807c-.373.448-1.04.807-1.915.726-1.394-.13-2.403-1.379-2.242-3.102zm4.339.425c.097-1.046-.546-1.688-1.313-1.76-.746-.069-1.505.423-1.603 1.468-.097 1.045.554 1.709 1.301 1.778.767.072 1.518-.441 1.615-1.486zm2.435-2.555 1.493.139 1 4.361 1.788-4.102 1.484.139-2.555 5.326-1.693-.158-1.517-5.705zm8.82 1.886c-.668-.062-1.236.317-1.416 1.063l2.62.244c.047-.729-.488-1.24-1.205-1.307zm2.364 2.972c-.394.988-1.385 1.709-2.749 1.582-1.603-.15-2.664-1.373-2.503-3.106.163-1.742 1.4-2.742 3.034-2.59 1.593.149 2.617 1.339 2.464 2.982a3.284 3.284 0 0 1-.09.534l-4.033-.376c-.006.823.509 1.333 1.206 1.398.597.056.954-.212 1.167-.564l1.504.14zm.995 1.84.686-7.368 1.395.13-.687 7.368-1.394-.13zM4.25 172.17l.647-6.95 4.291.4-.105 1.125-2.897-.27-.166 1.782 2.22.207-.103 1.105-2.22-.207-.274 2.938-1.394-.13zm10.863-1.77c-.162 1.732-1.54 2.729-3.143 2.579-1.593-.148-2.694-1.375-2.533-3.108.163-1.742 1.51-2.732 3.104-2.583 1.593.148 2.734 1.369 2.572 3.112zm-4.262-.397c-.102 1.095.485 1.692 1.232 1.762.737.068 1.494-.404 1.596-1.499.103-1.105-.535-1.697-1.272-1.765-.736-.069-1.453.397-1.556 1.502zm10.611.988c-.161 1.733-1.54 2.729-3.142 2.58-1.594-.149-2.694-1.376-2.533-3.108.162-1.743 1.51-2.732 3.103-2.584 1.593.149 2.735 1.37 2.572 3.112zm-4.261-.397c-.102 1.096.485 1.693 1.232 1.762.736.069 1.494-.403 1.596-1.498.103-1.105-.535-1.697-1.272-1.766-.737-.069-1.453.397-1.556 1.502zm4.927.439c.16-1.722 1.379-2.724 2.793-2.592.727.068 1.392.471 1.722 1.024l.244-2.618 1.414.131-.686 7.368-1.414-.131.076-.817c-.376.477-1.03.818-1.897.738-1.404-.131-2.412-1.38-2.252-3.103zm4.34.425c.097-1.046-.546-1.688-1.313-1.76-.747-.069-1.506.422-1.603 1.468-.097 1.045.554 1.709 1.3 1.778.767.072 1.518-.441 1.616-1.486z" fill="#fff"/><circle opacity=".4" cx="150.379" cy="34.15" r="1.206" transform="rotate(5.322 150.379 34.15)" fill="#454459"/><circle opacity=".4" cx="158.786" cy="34.933" r="1.206" transform="rotate(5.322 158.786 34.933)" fill="#454459"/><circle opacity=".4" cx="167.194" cy="35.716" r="1.206" transform="rotate(5.322 167.194 35.716)" fill="#454459"/><circle opacity=".4" cx="175.601" cy="36.5" r="1.206" transform="rotate(5.322 175.601 36.5)" fill="#454459"/><circle opacity=".4" cx="184.009" cy="37.283" r="1.206" transform="rotate(5.322 184.009 37.283)" fill="#454459"/><circle opacity=".4" cx="192.416" cy="38.066" r="1.206" transform="rotate(5.322 192.416 38.066)" fill="#454459"/><circle opacity=".4" cx="200.824" cy="38.849" r="1.206" transform="rotate(5.322 200.824 38.85)" fill="#454459"/><circle opacity=".4" cx="143.867" cy="195.073" r="1.206" transform="rotate(5.322 143.867 195.073)" fill="#454459"/><circle opacity=".4" cx="152.275" cy="195.856" r="1.206" transform="rotate(5.322 152.275 195.856)" fill="#454459"/><circle opacity=".4" cx="160.682" cy="196.639" r="1.206" transform="rotate(5.322 160.682 196.639)" fill="#454459"/><circle opacity=".4" cx="169.09" cy="197.423" r="1.206" transform="rotate(5.322 169.09 197.423)" fill="#454459"/><circle opacity=".4" cx="177.497" cy="198.206" r="1.206" transform="rotate(5.322 177.497 198.206)" fill="#454459"/><circle opacity=".4" cx="185.904" cy="198.989" r="1.206" transform="rotate(5.322 185.904 198.989)" fill="#454459"/><circle opacity=".4" cx="172.617" cy="68.528" r="1.206" transform="rotate(5.322 172.617 68.528)" fill="#454459"/><circle opacity=".4" cx="181.024" cy="69.311" r="1.206" transform="rotate(5.322 181.024 69.311)" fill="#454459"/><circle opacity=".4" cx="189.432" cy="70.094" r="1.206" transform="rotate(5.322 189.432 70.094)" fill="#454459"/><circle opacity=".4" cx="197.839" cy="70.877" r="1.206" transform="rotate(5.322 197.839 70.877)" fill="#454459"/><circle opacity=".4" cx="102.375" cy="94.29" r="1.206" transform="rotate(5.322 102.375 94.29)" fill="#454459"/><circle opacity=".4" cx="161.226" cy="99.772" r="1.206" transform="rotate(5.322 161.226 99.772)" fill="#454459"/><circle opacity=".4" cx="110.782" cy="95.073" r="1.206" transform="rotate(5.322 110.782 95.073)" fill="#454459"/><circle opacity=".4" cx="169.634" cy="100.555" r="1.206" transform="rotate(5.322 169.634 100.555)" fill="#454459"/><circle opacity=".4" cx="119.19" cy="95.856" r="1.206" transform="rotate(5.322 119.19 95.856)" fill="#454459"/><circle opacity=".4" cx="178.041" cy="101.339" r="1.206" transform="rotate(5.322 178.041 101.339)" fill="#454459"/><circle opacity=".4" cx="127.597" cy="96.639" r="1.206" transform="rotate(5.322 127.597 96.64)" fill="#454459"/><circle opacity=".4" cx="186.448" cy="102.122" r="1.206" transform="rotate(5.322 186.448 102.122)" fill="#454459"/><circle opacity=".4" cx="136.004" cy="97.422" r="1.206" transform="rotate(5.322 136.004 97.422)" fill="#454459"/><circle opacity=".4" cx="194.856" cy="102.905" r="1.206" transform="rotate(5.322 194.856 102.905)" fill="#454459"/><circle opacity=".4" cx="144.411" cy="98.206" r="1.206" transform="rotate(5.322 144.411 98.206)" fill="#454459"/><circle opacity=".4" cx="152.819" cy="98.989" r="1.206" transform="rotate(5.322 152.819 98.989)" fill="#454459"/><circle opacity=".4" cx="96.407" cy="158.346" r="1.206" transform="rotate(5.322 96.407 158.346)" fill="#454459"/><circle opacity=".4" cx="71.185" cy="155.996" r="1.206" transform="rotate(5.322 71.185 155.996)" fill="#454459"/><circle opacity=".4" cx="155.258" cy="163.828" r="1.206" transform="rotate(5.322 155.258 163.828)" fill="#454459"/><circle opacity=".4" cx="104.814" cy="159.129" r="1.206" transform="rotate(5.322 104.814 159.129)" fill="#454459"/><circle opacity=".4" cx="79.592" cy="156.779" r="1.206" transform="rotate(5.322 79.592 156.779)" fill="#454459"/><circle opacity=".4" cx="163.666" cy="164.612" r="1.206" transform="rotate(5.322 163.666 164.612)" fill="#454459"/><circle opacity=".4" cx="113.221" cy="159.912" r="1.206" transform="rotate(5.322 113.221 159.912)" fill="#454459"/><circle opacity=".4" cx="87.999" cy="157.562" r="1.206" transform="rotate(5.322 88 157.562)" fill="#454459"/><circle opacity=".4" cx="172.073" cy="165.395" r="1.206" transform="rotate(5.322 172.073 165.395)" fill="#454459"/><circle opacity=".4" cx="121.629" cy="160.695" r="1.206" transform="rotate(5.322 121.629 160.695)" fill="#454459"/><circle opacity=".4" cx="180.48" cy="166.178" r="1.206" transform="rotate(5.322 180.48 166.178)" fill="#454459"/><circle opacity=".4" cx="130.036" cy="161.479" r="1.206" transform="rotate(5.322 130.036 161.479)" fill="#454459"/><circle opacity=".4" cx="188.887" cy="166.961" r="1.206" transform="rotate(5.322 188.887 166.961)" fill="#454459"/><circle opacity=".4" cx="138.444" cy="162.262" r="1.206" transform="rotate(5.322 138.444 162.262)" fill="#454459"/><circle opacity=".4" cx="146.851" cy="163.045" r="1.206" transform="rotate(5.322 146.851 163.045)" fill="#454459"/><circle opacity=".4" cx="158.242" cy="131.8" r="1.206" transform="rotate(5.322 158.242 131.8)" fill="#454459"/><circle opacity=".4" cx="166.65" cy="132.583" r="1.206" transform="rotate(5.322 166.65 132.583)" fill="#454459"/><circle opacity=".4" cx="175.057" cy="133.367" r="1.206" transform="rotate(5.322 175.057 133.367)" fill="#454459"/><circle opacity=".4" cx="124.613" cy="128.667" r="1.206" transform="rotate(5.322 124.613 128.667)" fill="#454459"/><circle opacity=".4" cx="183.465" cy="134.15" r="1.206" transform="rotate(5.322 183.465 134.15)" fill="#454459"/><circle opacity=".4" cx="133.02" cy="129.451" r="1.206" transform="rotate(5.322 133.02 129.451)" fill="#454459"/><circle opacity=".4" cx="191.872" cy="134.933" r="1.206" transform="rotate(5.322 191.872 134.933)" fill="#454459"/><circle opacity=".4" cx="141.428" cy="130.234" r="1.206" transform="rotate(5.322 141.428 130.234)" fill="#454459"/><circle opacity=".4" cx="149.835" cy="131.017" r="1.206" transform="rotate(5.322 149.835 131.017)" fill="#454459"/><defs><linearGradient id="a" x1="80.352" y1="15.613" x2="80.352" y2="27.675" gradientUnits="userSpaceOnUse"><stop stop-color="#7AD3FF"/><stop offset="1" stop-color="#4FBAF0"/></linearGradient><linearGradient id="b" x1="52.672" y1="79.668" x2="52.672" y2="91.731" gradientUnits="userSpaceOnUse"><stop stop-color="#B09FFF"/><stop offset="1" stop-color="#8D79F6"/></linearGradient><linearGradient id="c" x1="36.25" y1="143.724" x2="36.25" y2="155.787" gradientUnits="userSpaceOnUse"><stop stop-color="#99FFA3"/><stop offset="1" stop-color="#68EE76"/></linearGradient><linearGradient id="d" x1="90.838" y1="47.641" x2="90.838" y2="59.703" gradientUnits="userSpaceOnUse"><stop stop-color="#FF9364"/><stop offset="1" stop-color="#F25F33"/></linearGradient><linearGradient id="e" x1="63.962" y1="111.697" x2="63.962" y2="123.759" gradientUnits="userSpaceOnUse"><stop stop-color="#FE6C6C"/><stop offset="1" stop-color="#FE464B"/></linearGradient><linearGradient id="f" x1="71.263" y1="175.752" x2="71.263" y2="187.815" gradientUnits="userSpaceOnUse"><stop stop-color="#FFD572"/><stop offset="1" stop-color="#FEBD38"/></linearGradient></defs></svg>