<svg width="19" height="18" fill="none" xmlns="http://www.w3.org/2000/svg"><path d="M10.093 17.301a16.601 16.601 0 0 1-4.959-.782A7.5 7.5 0 0 1 .152 10.84C-.414 8.118.617 5.24 2.978 2.941c.254-.247.517-.483.79-.709a9.57 9.57 0 0 1 8.714-1.88 7.296 7.296 0 0 1 5.072 6.71 6.912 6.912 0 0 1-1.615 4.885 3.797 3.797 0 0 1-3.714 1.364 2.144 2.144 0 0 1-1.38-.958 2.036 2.036 0 0 1-.198-1.584c.657-2.482 1.325-6.255 1.332-6.292a.752.752 0 0 1 1.479.261c-.028.157-.686 3.872-1.359 6.415a.542.542 0 0 0 .034.427c.104.143.26.24.436.268a2.332 2.332 0 0 0 2.241-.89 5.404 5.404 0 0 0 1.246-3.82 5.808 5.808 0 0 0-4.021-5.353 8.035 8.035 0 0 0-7.31 1.603c-.24.2-.475.41-.7.63-1.167 1.135-3.032 3.49-2.403 6.517a6.08 6.08 0 0 0 3.968 4.553c3.522 1.123 8.582 1.26 11.248-2.056a.75.75 0 0 1 1.17.94c-1.971 2.452-4.971 3.33-7.915 3.33z" fill="#F44336"/><path d="M7.523 13.408a3.452 3.452 0 0 1-2.192-.736C3.89 11.518 3.85 9.514 4.254 8.15c.136-.454.319-.893.546-1.31a6.155 6.155 0 0 1 2.579-2.677 3.55 3.55 0 0 1 4.177.673 5.62 5.62 0 0 1 1.197 2.062.75.75 0 0 1-1.415.503 4.19 4.19 0 0 0-.868-1.528 2.033 2.033 0 0 0-2.428-.363 4.707 4.707 0 0 0-1.926 2.052 5.376 5.376 0 0 0-.423 1.018c-.292.987-.227 2.275.578 2.92.88.707 2.365.408 3.2-.313a8.374 8.374 0 0 0 1.587-1.93.751.751 0 1 1 1.277.791 9.86 9.86 0 0 1-1.88 2.273 4.613 4.613 0 0 1-2.932 1.087z" fill="#F44336"/></svg>