<svg width="1507" height="1393" viewBox="0 0 1507 1393" fill="none" xmlns="http://www.w3.org/2000/svg">
<g filter="url(#filter0_f_394_276)">
<ellipse cx="957.494" cy="877.401" rx="400.463" ry="207.126" transform="rotate(-6.48121 957.494 877.401)" fill="#8349FF" fill-opacity="0.4"/>
</g>
<g filter="url(#filter1_f_394_276)">
<path d="M869.611 749.631C914.27 674.688 901.924 641.055 910.005 575.675C925.604 449.47 847.601 411.383 876.041 280.884C934.07 14.6093 1500.57 472.519 1177.75 772.65C974.809 961.323 288.1 1330.43 454.755 1139.64C521.311 1063.44 603.202 1026.35 683.767 950.936C766.912 873.107 824.038 826.11 869.611 749.631Z" fill="url(#paint0_linear_394_276)" fill-opacity="0.4"/>
</g>
<g filter="url(#filter2_f_394_276)">
<path d="M511.138 783.351C424.706 789.037 368.295 820.942 313.426 895.171C202.271 1045.55 851.705 1093.32 761.26 928.112C704.233 823.948 621.539 776.088 511.138 783.351Z" fill="#0013FF" fill-opacity="0.4"/>
</g>
<g filter="url(#filter3_f_394_276)">
<path d="M514.781 825.047C442.914 829.775 396.01 856.303 350.388 918.023C257.965 1043.06 797.954 1082.78 722.751 945.413C675.334 858.802 606.576 819.008 514.781 825.047Z" fill="#00FFFF" fill-opacity="0.4"/>
</g>
<defs>
<filter id="filter0_f_394_276" x="408.892" y="516.647" width="1097.2" height="721.506" filterUnits="userSpaceOnUse" color-interpolation-filters="sRGB">
<feFlood flood-opacity="0" result="BackgroundImageFix"/>
<feBlend mode="normal" in="SourceGraphic" in2="BackgroundImageFix" result="shape"/>
<feGaussianBlur stdDeviation="75" result="effect1_foregroundBlur_394_276"/>
</filter>
<filter id="filter1_f_394_276" x="228.931" y="0.77124" width="1247.64" height="1392.1" filterUnits="userSpaceOnUse" color-interpolation-filters="sRGB">
<feFlood flood-opacity="0" result="BackgroundImageFix"/>
<feBlend mode="normal" in="SourceGraphic" in2="BackgroundImageFix" result="shape"/>
<feGaussianBlur stdDeviation="100" result="effect1_foregroundBlur_394_276"/>
</filter>
<filter id="filter2_f_394_276" x="0.583008" y="482.634" width="1069.35" height="849.258" filterUnits="userSpaceOnUse" color-interpolation-filters="sRGB">
<feFlood flood-opacity="0" result="BackgroundImageFix"/>
<feBlend mode="normal" in="SourceGraphic" in2="BackgroundImageFix" result="shape"/>
<feGaussianBlur stdDeviation="150" result="effect1_foregroundBlur_394_276"/>
</filter>
<filter id="filter3_f_394_276" x="189.709" y="674.451" width="690.252" height="507.252" filterUnits="userSpaceOnUse" color-interpolation-filters="sRGB">
<feFlood flood-opacity="0" result="BackgroundImageFix"/>
<feBlend mode="normal" in="SourceGraphic" in2="BackgroundImageFix" result="shape"/>
<feGaussianBlur stdDeviation="75" result="effect1_foregroundBlur_394_276"/>
</filter>
<linearGradient id="paint0_linear_394_276" x1="899.068" y1="486.216" x2="1019.04" y2="851.961" gradientUnits="userSpaceOnUse">
<stop stop-color="#FF0095"/>
<stop offset="1" stop-color="#FFCDFF"/>
</linearGradient>
</defs>
</svg>
