<svg width="19" height="19" fill="none" xmlns="http://www.w3.org/2000/svg"><path d="M15.746 18.502a4.861 4.861 0 0 0 2.785-2.78c.234-.605.398-1.295.443-2.305l.026-.634V6.037c-.005-.14-.011-.287-.019-.452-.044-1.01-.208-1.703-.442-2.304a4.636 4.636 0 0 0-1.1-1.685A4.676 4.676 0 0 0 15.754.5C15.148.267 14.457.104 13.445.06 12.426.01 12.103 0 9.52 0S6.61.011 5.596.055C4.584.1 3.889.263 3.287.497a4.647 4.647 0 0 0-1.688 1.099A4.683 4.683 0 0 0 .502 3.277C.268 3.882.104 4.572.06 5.582.01 6.599 0 6.922 0 9.502s.011 2.902.056 3.916c.044 1.01.208 1.704.442 2.304.242.639.618 1.21 1.1 1.686a4.684 4.684 0 0 0 1.685 1.095c.607.233 1.298.397 2.31.44C6.606 18.99 6.93 19 9.514 19c2.585 0 2.907-.011 3.923-.056 1.011-.044 1.706-.208 2.309-.441v-.001zm-6.224-1.21c-2.54 0-2.845-.011-3.845-.056-.93-.04-1.431-.196-1.766-.326a2.94 2.94 0 0 1-1.093-.709 2.95 2.95 0 0 1-.71-1.091c-.13-.334-.286-.84-.327-1.763-.045-1.002-.056-1.303-.056-3.838 0-2.536.011-2.84.056-3.838.04-.928.197-1.429.327-1.763.152-.412.394-.787.714-1.091.308-.315.68-.557 1.093-.709.334-.13.84-.286 1.766-.326 1.004-.045 1.305-.056 3.844-.056 2.54 0 2.845.011 3.845.056.93.04 1.432.196 1.766.326.413.152.788.394 1.093.709.316.308.558.679.71 1.091.13.334.286.839.327 1.763.045 1.002.056 1.303.056 3.838s-.011 2.832-.056 3.834c-.04.928-.197 1.429-.327 1.763a3.153 3.153 0 0 1-1.807 1.804c-.335.13-.84.285-1.766.326-1.004.044-1.305.055-3.844.055v.001z" fill="#A11CAF"/><path d="M9.519 4.62c-2.7 0-4.89 2.186-4.89 4.881a4.887 4.887 0 0 0 4.89 4.881c2.7 0 4.889-2.186 4.889-4.88a4.886 4.886 0 0 0-4.89-4.882zm0 8.047A3.17 3.17 0 0 1 6.347 9.5a3.17 3.17 0 0 1 3.172-3.167 3.17 3.17 0 0 1 3.171 3.167 3.17 3.17 0 0 1-3.171 3.166zM15.743 4.427c0-.63-.511-1.139-1.142-1.139a1.14 1.14 0 1 0 0 2.279c.63 0 1.142-.51 1.142-1.14z" fill="#A11CAF"/></svg>