<svg width="18" height="24" fill="none" xmlns="http://www.w3.org/2000/svg"><path d="M9 1C4.589 1 1 4.589 1 9c0 1.452.651 3.014.679 3.08.21.5.625 1.275.924 1.73l5.485 8.31c.225.341.557.537.912.537s.687-.196.912-.536l5.485-8.312c.3-.454.714-1.23.925-1.729.027-.065.678-1.627.678-3.08 0-4.411-3.589-8-8-8zm6.454 10.715a11.808 11.808 0 0 1-.843 1.576l-5.485 8.312c-.109.164-.143.164-.251 0L3.389 13.29a11.826 11.826 0 0 1-.843-1.577c-.008-.019-.605-1.457-.605-2.714A7.067 7.067 0 0 1 9 1.941 7.067 7.067 0 0 1 16.059 9c0 1.26-.599 2.7-.605 2.715z" fill="#F8BE22" stroke="#F8BE22"/><path d="M9 4.765A4.24 4.24 0 0 0 4.765 9 4.24 4.24 0 0 0 9 13.236 4.24 4.24 0 0 0 13.235 9 4.24 4.24 0 0 0 9 4.765zm0 7.53A3.298 3.298 0 0 1 5.706 9 3.298 3.298 0 0 1 9 5.706 3.298 3.298 0 0 1 12.294 9 3.298 3.298 0 0 1 9 12.295z" fill="#F8BE22" stroke="#F8BE22"/></svg>