<svg width="83" height="83" fill="none" xmlns="http://www.w3.org/2000/svg"><path d="M81.969 28.906c0-2.11-1.014-4.218-3.063-5.406l-6.25-3.61h-62.5l-6.25 3.61C1.858 24.688.844 26.797.844 28.906H.78v46.875a6.248 6.248 0 0 0 6.25 6.25h68.75a6.248 6.248 0 0 0 6.25-6.25V28.906h-.062z" fill="#FD9200"/><path opacity=".2" d="M13.281 37.922v1.562l20.422 11.783 1.453.842a18.77 18.77 0 0 0 18.75 0l1.453-.842 20.422-11.783V21.695l-3.125-1.803H13.281V37.922z" fill="#000"/><path d="M69.531.781h-56.25a3.134 3.134 0 0 0-3.125 3.125v35.578l20.422 11.783 1.453.842a18.77 18.77 0 0 0 18.75 0l1.453-.842 20.422-11.783V3.906A3.134 3.134 0 0 0 69.531.781z" fill="#F0F7FF"/><path opacity=".2" d="M50.781 47.422a18.77 18.77 0 0 1-18.75 0l-1.453-.842-20.422-11.783v4.687l20.422 11.783 1.453.842a18.77 18.77 0 0 0 18.75 0l1.453-.842 20.422-11.783v-4.687L52.234 46.58l-1.453.842z" fill="#000"/><path d="M82.031 28.906v46.875a6.248 6.248 0 0 1-6.25 6.25H7.031a6.248 6.248 0 0 1-6.25-6.25V28.906h.063c0 2.11 1.014 4.219 3.062 5.407l6.25 3.609 20.422 11.783 1.453.842a18.771 18.771 0 0 0 18.75 0l1.453-.842 20.422-11.783 6.25-3.61c2.049-1.187 3.063-3.296 3.063-5.406h.062z" fill="#FDBF00"/><path d="M51.638 16.366h-1.241v10.442h1.24c2.846 0 5.222-2.377 5.222-5.22 0-2.847-2.376-5.222-5.221-5.222z" fill="#FD9200"/><path opacity=".2" d="M51.638 24.575h-1.241v2.233h1.24c2.846 0 5.222-2.377 5.222-5.22 0-.385-.05-.755-.13-1.118-.524 2.322-2.629 4.105-5.091 4.105z" fill="#000"/><path d="M50.767 6.089c-1.037-.503-2.186-.212-3.18.267-1.818.872-3.435 2.266-5.032 3.481-3.414 2.622-6.838 5.111-10.688 7.063h-.855v9.372h.855c3.85 1.953 7.274 4.453 10.688 7.062 1.595 1.227 3.214 2.622 5.032 3.49.994.471 2.143.76 3.18.27.367-.178.59-.502.713-.87v-.013c.08-.29.123-.59.145-.89.013-.168.013-.337.013-.504V8.367c.023-.805-.057-1.887-.87-2.278z" fill="#FDBF00"/><path d="M32.269 36.914a3.133 3.133 0 0 1-1.796-2.544c-.21-2.176-.165-4.35-.165-6.537v-1.825h-4.686v1.825c0 3.994.089 7.919.947 11.836a1.587 1.587 0 0 0 1.53 1.228c1.538 0 3.045-.436 4.338-1.24 1.049-.644.949-2.229-.168-2.743z" fill="#3F5189"/><path d="M24.058 16.898h-3.124c-2.554 0-4.686 2.132-4.686 4.688 0 2.555 2.132 4.684 4.686 4.684h4.24v-9.372h-1.116z" fill="#FDBF00"/><path opacity=".2" d="M22.05 24.04h-1.116c-2.17 0-4.018-1.54-4.53-3.57-.093.36-.156.732-.156 1.117 0 2.555 2.132 4.685 4.686 4.685h4.24V24.04H22.05z" fill="#000"/><path d="M31.869 16.898v9.372a1.56 1.56 0 0 1-1.561 1.563h-4.686a1.56 1.56 0 0 1-1.563-1.563v-9.372c0-.857.703-1.56 1.563-1.56h4.686c.856 0 1.56.704 1.56 1.56z" fill="#FD9200"/><path opacity=".2" d="M30.306 25.602H25.62c-.86 0-1.562-.691-1.562-1.561v2.23c0 .871.703 1.563 1.562 1.563h4.686a1.561 1.561 0 0 0 1.561-1.562V24.04a1.558 1.558 0 0 1-1.56 1.56z" fill="#000"/><path d="M75.781 82.813a.781.781 0 1 1 0-1.563 5.475 5.475 0 0 0 5.469-5.469.781.781 0 1 1 1.563 0c0 3.877-3.155 7.031-7.032 7.031z" fill="#28292D"/><path d="M75.781 82.813H7.031a.781.781 0 1 1 0-1.563h68.75a.781.781 0 1 1 0 1.563z" fill="#28292D"/><path d="M7.031 82.813A7.04 7.04 0 0 1 0 75.78a.781.781 0 1 1 1.563 0A5.475 5.475 0 0 0 7.03 81.25a.781.781 0 1 1 0 1.563z" fill="#28292D"/><path d="M.781 76.563A.781.781 0 0 1 0 75.78V28.906a.781.781 0 1 1 1.563 0v46.875a.781.781 0 0 1-.782.781zm81.25 0a.781.781 0 0 1-.781-.782V28.906a.781.781 0 1 1 1.563 0v46.875a.781.781 0 0 1-.782.781z" fill="#28292D"/><path d="M3.908 35.102a.772.772 0 0 1-.39-.105C1.347 33.744.052 31.466.054 28.905c.001-2.561 1.295-4.838 3.462-6.088a.784.784 0 0 1 .781 1.356c-1.678.968-2.68 2.738-2.68 4.733 0 1.997 1 3.77 2.68 4.74a.781.781 0 0 1-.39 1.456zm74.997 0a.784.784 0 0 1-.39-1.46c1.677-.967 2.68-2.737 2.68-4.733 0-1.996-1.001-3.77-2.68-4.74a.782.782 0 1 1 .78-1.353c2.17 1.253 3.464 3.53 3.463 6.092-.002 2.56-1.295 4.837-3.463 6.087a.773.773 0 0 1-.39.107zM10.156 4.688a.781.781 0 0 1-.781-.782A3.91 3.91 0 0 1 13.281 0a.781.781 0 1 1 0 1.563 2.347 2.347 0 0 0-2.344 2.343.781.781 0 0 1-.78.781z" fill="#28292D"/><path d="M10.156 38.705a.781.781 0 0 1-.781-.782V3.906a.781.781 0 0 1 1.563 0v34.017a.782.782 0 0 1-.782.782zm68.749-14.432a.786.786 0 0 1-.391-.103l-6.248-3.604a.783.783 0 0 1 .78-1.357l6.25 3.605a.783.783 0 0 1-.391 1.46z" fill="#28292D"/><path d="M3.908 24.273a.784.784 0 0 1-.39-1.459l6.248-3.605a.783.783 0 0 1 .78 1.357L4.299 24.17a.786.786 0 0 1-.39.103zm68.748 48.48a.783.783 0 0 1-.575-.253L51.666 50.228a.783.783 0 0 1 .904-1.248.78.78 0 0 1 .246.192l20.414 22.27a.78.78 0 0 1-.574 1.311zm-62.5 0a.78.78 0 0 1-.575-1.31l20.414-22.27a.783.783 0 0 1 1.306.185.78.78 0 0 1-.156.872L10.731 72.499a.778.778 0 0 1-.575.254z" fill="#28292D"/><path d="M32.038 51.328a.786.786 0 0 1-.391-.103L3.517 34.997a.785.785 0 0 1 .781-1.356l28.13 16.226a.786.786 0 0 1-.39 1.461zm18.737 0a.784.784 0 0 1-.39-1.46l28.13-16.226a.784.784 0 0 1 .78 1.356l-28.13 16.225a.788.788 0 0 1-.39.105z" fill="#28292D"/><path d="M41.406 53.827a19.546 19.546 0 0 1-9.76-2.604.784.784 0 0 1 .782-1.356 18.016 18.016 0 0 0 17.956 0 .784.784 0 0 1 .782 1.356 19.53 19.53 0 0 1-9.76 2.604zm31.25-15.122a.781.781 0 0 1-.781-.782V3.906a.781.781 0 1 1 1.563 0v34.017a.782.782 0 0 1-.782.782zM69.531 1.563h-56.25a.781.781 0 1 1 0-1.563h56.25a.781.781 0 1 1 0 1.563z" fill="#28292D"/><path d="M72.656 4.688a.781.781 0 0 1-.781-.782 2.347 2.347 0 0 0-2.344-2.344.781.781 0 1 1 0-1.562 3.91 3.91 0 0 1 3.906 3.906.781.781 0 0 1-.78.781zM26.561 40.455a.781.781 0 0 1-.763-.613c-.895-4.047-.97-8.151-.97-12.01a.78.78 0 1 1 1.563 0c0 3.773.072 7.78.934 11.671a.781.781 0 0 1-.764.952zm3.897-5.303a.782.782 0 0 1-.777-.707c-.18-1.887-.173-3.793-.167-5.636l.002-.975a.781.781 0 1 1 1.562 0l-.001.98c-.007 1.806-.013 3.673.162 5.483a.783.783 0 0 1-.703.853l-.078.002zM28.09 41.68a.78.78 0 1 1-.002-1.563 7.506 7.506 0 0 0 3.934-1.122.781.781 0 0 1 .822 1.328 9.066 9.066 0 0 1-4.754 1.357z" fill="#28292D"/><path d="M32.433 40.44a.783.783 0 0 1-.411-1.445.766.766 0 0 0 .355-.71.76.76 0 0 0-.438-.663.783.783 0 0 1 .046-1.455.78.78 0 0 1 .607.036 2.33 2.33 0 0 1 1.344 1.986 2.326 2.326 0 0 1-1.092 2.136.802.802 0 0 1-.411.116zm-4.349 1.24a2.356 2.356 0 0 1-2.286-1.838.783.783 0 0 1 1.527-.339c.078.358.364.575.762.614.368-.039.783.347.785.778a.782.782 0 0 1-.778.785h-.01z" fill="#28292D"/><path d="M32.264 37.692a.782.782 0 0 1-.327-.072 3.921 3.921 0 0 1-2.256-3.175.783.783 0 0 1 .703-.853c.433-.017.811.274.854.703.08.828.598 1.558 1.353 1.907a.781.781 0 0 1-.327 1.49zm17.331.44c-.826 0-1.737-.271-2.75-.813-1.54-.824-2.931-1.917-4.275-2.97l-.967-.755c-2.85-2.19-6.278-4.69-10.097-6.625a.782.782 0 0 1 .705-1.396c3.936 1.994 7.437 4.547 10.344 6.782l.98.764c1.292 1.014 2.628 2.062 4.05 2.825 1.196.64 2.126.783 2.841.44.308-.148.454-.668.429-1.546a.785.785 0 0 1 .759-.804h.022a.782.782 0 0 1 .781.76c.016.578.063 2.339-1.317 3a3.427 3.427 0 0 1-1.505.337zM31.86 17.676a.78.78 0 0 1-.351-1.479c3.825-1.939 7.251-4.437 10.097-6.625l.967-.754c1.344-1.055 2.734-2.147 4.275-2.97 1.669-.894 3.062-1.052 4.258-.474 1.378.661 1.33 2.42 1.315 2.998a.781.781 0 0 1-.781.76h-.022a.783.783 0 0 1-.76-.803c.026-.89-.115-1.399-.427-1.547-.72-.35-1.649-.2-2.843.44-1.421.761-2.757 1.81-4.048 2.826l-.981.764c-2.902 2.232-6.402 4.782-10.344 6.78a.808.808 0 0 1-.355.084zm19.779 9.909a.781.781 0 1 1 0-1.563c2.406 0 4.44-2.034 4.44-4.44 0-2.408-2.034-4.442-4.44-4.442a.781.781 0 1 1 0-1.563c3.253 0 6.003 2.75 6.003 6.005s-2.75 6.003-6.003 6.003z" fill="#28292D"/><path d="M51.455 37.083a.78.78 0 0 1-.753-.992 4.24 4.24 0 0 0 .154-1.255.782.782 0 0 1 .76-.803h.022a.782.782 0 0 1 .78.76 5.735 5.735 0 0 1-.212 1.718.779.779 0 0 1-.751.572z" fill="#28292D"/><path d="M51.638 35.597a.781.781 0 0 1-.782-.781V8.352a.781.781 0 1 1 1.563 0v26.465a.781.781 0 0 1-.781.78zm-27.591-8.545h-3.125a.781.781 0 1 1 0-1.563h3.125a.781.781 0 1 1 0 1.563zm0-9.375h-3.125a.78.78 0 1 1 0-1.563h3.125a.781.781 0 1 1 0 1.563zm6.25 10.937a.782.782 0 0 1 0-1.562c.43 0 .781-.352.781-.782a.781.781 0 1 1 1.563 0 2.346 2.346 0 0 1-2.344 2.344z" fill="#28292D"/><path d="M30.297 28.614h-4.688a.781.781 0 1 1 0-1.563h4.688a.781.781 0 1 1 0 1.563zm1.562-1.563a.781.781 0 0 1-.78-.78v-9.376a.781.781 0 0 1 1.562 0v9.375a.781.781 0 0 1-.782.782z" fill="#28292D"/><path d="M31.86 17.677a.781.781 0 0 1-.782-.782.784.784 0 0 0-.781-.781.781.781 0 1 1 0-1.563 2.347 2.347 0 0 1 2.344 2.344.781.781 0 0 1-.782.782z" fill="#28292D"/><path d="M30.297 16.114h-4.688a.781.781 0 1 1 0-1.563h4.688a.781.781 0 1 1 0 1.563z" fill="#28292D"/><path d="M24.047 17.677a.781.781 0 0 1-.781-.782 2.347 2.347 0 0 1 2.343-2.343.781.781 0 1 1 0 1.562.784.784 0 0 0-.78.781.781.781 0 0 1-.782.782z" fill="#28292D"/><path d="M24.047 27.052a.781.781 0 0 1-.781-.782v-9.375a.781.781 0 0 1 1.562 0v9.375a.781.781 0 0 1-.781.782z" fill="#28292D"/><path d="M25.61 28.614a2.347 2.347 0 0 1-2.344-2.344.781.781 0 1 1 1.562 0c0 .43.352.782.781.782a.781.781 0 1 1 0 1.562zm-4.688-1.562c-3.49 0-5.316-2.752-5.316-5.47 0-2.716 1.827-5.468 5.316-5.468a.781.781 0 1 1 0 1.563c-2.578 0-3.753 2.025-3.753 3.906 0 1.881 1.175 3.906 3.753 3.906a.781.781 0 1 1 0 1.563zm40.425 7.11a.784.784 0 0 1-.553-.228L57.48 30.62a.781.781 0 0 1 1.104-1.104l3.314 3.314a.782.782 0 0 1-.551 1.333zM58.033 13.88a.781.781 0 0 1-.553-1.333l3.314-3.314a.781.781 0 0 1 1.104 1.104l-3.314 3.315a.78.78 0 0 1-.551.228zm8.201 8.484h-4.687a.782.782 0 0 1 0-1.562h4.687a.781.781 0 1 1 0 1.562z" fill="#28292D"/></svg>