<svg width="83" height="83" viewBox="0 0 83 83" fill="none" xmlns="http://www.w3.org/2000/svg">
<path d="M81.9688 28.9063C81.9688 26.7969 80.9547 24.6875 78.9062 23.5L72.6562 19.8906H10.1562L3.90625 23.5C1.85781 24.6875 0.84375 26.7969 0.84375 28.9063H0.78125V75.7813C0.78125 79.2344 3.57812 82.0313 7.03125 82.0313H75.7812C79.2344 82.0313 82.0312 79.2344 82.0312 75.7813V28.9063H81.9688Z" fill="#FD9200"/>
<path opacity="0.2" d="M13.2812 37.9219V39.4844L33.7031 51.2672L35.1562 52.1094C38.0073 53.7531 41.2403 54.6183 44.5312 54.6183C47.8222 54.6183 51.0552 53.7531 53.9062 52.1094L55.3594 51.2672L75.7812 39.4844V21.6953L72.6562 19.8922H13.2812V21.4547V37.9219Z" fill="black"/>
<path d="M69.5312 0.78125H13.2812C11.5625 0.78125 10.1562 2.1875 10.1562 3.90625V39.4844L30.5781 51.2672L32.0312 52.1094C34.8823 53.7531 38.1153 54.6183 41.4062 54.6183C44.6972 54.6183 47.9302 53.7531 50.7812 52.1094L52.2344 51.2672L72.6562 39.4844V3.90625C72.6562 2.1875 71.25 0.78125 69.5312 0.78125Z" fill="#F0F7FF"/>
<path opacity="0.2" d="M50.7812 47.4219C47.9302 49.0655 44.6972 49.9308 41.4062 49.9308C38.1153 49.9308 34.8823 49.0655 32.0312 47.4219L30.5781 46.5797L10.1562 34.7969V39.4844L30.5781 51.2672L32.0312 52.1094C34.8823 53.7531 38.1153 54.6183 41.4062 54.6183C44.6972 54.6183 47.9302 53.7531 50.7812 52.1094L52.2344 51.2672L72.6562 39.4844V34.7969L52.2344 46.5797L50.7812 47.4219Z" fill="black"/>
<path d="M82.0312 28.9062V75.7812C82.0312 79.2344 79.2344 82.0312 75.7812 82.0312H7.03125C3.57812 82.0312 0.78125 79.2344 0.78125 75.7812V28.9062H0.84375C0.84375 31.0156 1.85781 33.125 3.90625 34.3125L10.1562 37.9219L30.5781 49.7047L32.0312 50.5469C34.8823 52.1905 38.1153 53.0558 41.4062 53.0558C44.6972 53.0558 47.9302 52.1905 50.7812 50.5469L52.2344 49.7047L72.6562 37.9219L78.9062 34.3125C80.9547 33.125 81.9688 31.0156 81.9688 28.9062H82.0312Z" fill="#FDBF00"/>
<path d="M51.6375 16.3656H50.3969V26.8078H51.6375C54.4828 26.8078 56.8594 24.4312 56.8594 21.5875C56.8594 18.7406 54.4828 16.3656 51.6375 16.3656Z" fill="#FD9200"/>
<path opacity="0.2" d="M51.6375 24.575H50.3969V26.8078H51.6375C54.4828 26.8078 56.8594 24.4313 56.8594 21.5875C56.8594 21.2031 56.8094 20.8328 56.7281 20.4703C56.2047 22.7922 54.1 24.575 51.6375 24.575Z" fill="black"/>
<path d="M50.7672 6.08904C49.7297 5.58591 48.5813 5.87653 47.5875 6.35622C45.7688 7.2281 44.1516 8.62184 42.5547 9.83747C39.1406 12.4593 35.7172 14.9484 31.8672 16.9H31.0125V26.2718H31.8672C35.7172 28.225 39.1406 30.7249 42.5547 33.3343C44.15 34.5609 45.7688 35.9562 47.5875 36.8249C48.5813 37.2953 49.7297 37.5843 50.7672 37.0937C51.1344 36.9156 51.3578 36.5921 51.4797 36.2234V36.2109C51.5594 35.9203 51.6031 35.6203 51.625 35.3203C51.6375 35.1531 51.6375 34.9843 51.6375 34.8171V8.36716C51.661 7.56247 51.5813 6.47966 50.7672 6.08904Z" fill="#FDBF00"/>
<path d="M32.2687 36.9141C31.7737 36.6833 31.3476 36.3272 31.0327 35.881C30.7178 35.4348 30.525 34.914 30.4734 34.3703C30.2625 32.1938 30.3078 30.0203 30.3078 27.8328V26.0078H25.6219V27.8328C25.6219 31.8266 25.7109 35.7516 26.5687 39.6688C26.7359 40.3813 27.3734 40.8969 28.0984 40.8969C29.6375 40.8969 31.1437 40.461 32.4375 39.6578C33.4859 39.0125 33.3859 37.4281 32.2687 36.9141Z" fill="#3F5189"/>
<path d="M24.0578 16.8984H20.9344C18.3797 16.8984 16.2484 19.0297 16.2484 21.5859C16.2484 24.1406 18.3797 26.2703 20.9344 26.2703H25.1734V16.8984H24.0578Z" fill="#FDBF00"/>
<path opacity="0.2" d="M22.05 24.0406H20.9344C18.7641 24.0406 16.9156 22.5 16.4031 20.4703C16.3109 20.8297 16.2484 21.2016 16.2484 21.5875C16.2484 24.1422 18.3797 26.2719 20.9344 26.2719H25.1734V24.0406H24.0578H22.05Z" fill="black"/>
<path d="M31.8688 16.8985V26.2703C31.8688 27.1406 31.1656 27.8328 30.3078 27.8328H25.6219C24.7625 27.8328 24.0594 27.1406 24.0594 26.2703V16.8985C24.0594 16.0406 24.7625 15.3375 25.6219 15.3375H30.3078C31.1641 15.3375 31.8688 16.0422 31.8688 16.8985Z" fill="#FD9200"/>
<path opacity="0.2" d="M30.3062 25.6016H25.6203C24.7609 25.6016 24.0578 24.911 24.0578 24.0406V26.2719C24.0578 27.1422 24.7609 27.8344 25.6203 27.8344H30.3062C30.5114 27.8346 30.7146 27.7943 30.9042 27.7159C31.0938 27.6374 31.266 27.5223 31.411 27.3771C31.556 27.232 31.6709 27.0596 31.7492 26.87C31.8275 26.6803 31.8676 26.4771 31.8672 26.2719V24.0406C31.8676 24.2458 31.8275 24.4489 31.7492 24.6385C31.6709 24.828 31.5559 25.0003 31.4109 25.1453C31.2659 25.2903 31.0936 25.4053 30.9041 25.4836C30.7145 25.5619 30.5113 25.602 30.3062 25.6016Z" fill="black"/>
<path d="M75.7812 82.8125C75.574 82.8125 75.3753 82.7302 75.2288 82.5837C75.0823 82.4372 75 82.2385 75 82.0312C75 81.824 75.0823 81.6253 75.2288 81.4788C75.3753 81.3323 75.574 81.25 75.7812 81.25C78.7969 81.25 81.25 78.7969 81.25 75.7812C81.25 75.574 81.3323 75.3753 81.4788 75.2288C81.6253 75.0823 81.824 75 82.0312 75C82.2385 75 82.4372 75.0823 82.5837 75.2288C82.7302 75.3753 82.8125 75.574 82.8125 75.7812C82.8125 79.6578 79.6578 82.8125 75.7812 82.8125Z" fill="#28292D"/>
<path d="M75.7812 82.8125H7.03125C6.82405 82.8125 6.62534 82.7302 6.47882 82.5837C6.33231 82.4372 6.25 82.2385 6.25 82.0312C6.25 81.824 6.33231 81.6253 6.47882 81.4788C6.62534 81.3323 6.82405 81.25 7.03125 81.25H75.7812C75.9884 81.25 76.1872 81.3323 76.3337 81.4788C76.4802 81.6253 76.5625 81.824 76.5625 82.0312C76.5625 82.2385 76.4802 82.4372 76.3337 82.5837C76.1872 82.7302 75.9884 82.8125 75.7812 82.8125Z" fill="#28292D"/>
<path d="M7.03125 82.8125C5.16708 82.8104 3.37986 82.069 2.06169 80.7508C0.743523 79.4326 0.00206785 77.6454 0 75.7812C0 75.574 0.0823102 75.3753 0.228823 75.2288C0.375336 75.0823 0.57405 75 0.78125 75C0.98845 75 1.18716 75.0823 1.33368 75.2288C1.48019 75.3753 1.5625 75.574 1.5625 75.7812C1.5625 78.7969 4.01562 81.25 7.03125 81.25C7.23845 81.25 7.43716 81.3323 7.58368 81.4788C7.73019 81.6253 7.8125 81.824 7.8125 82.0312C7.8125 82.2385 7.73019 82.4372 7.58368 82.5837C7.43716 82.7302 7.23845 82.8125 7.03125 82.8125Z" fill="#28292D"/>
<path d="M0.78125 76.5625C0.57405 76.5625 0.375336 76.4802 0.228823 76.3337C0.0823102 76.1872 0 75.9884 0 75.7812V28.9062C0 28.699 0.0823102 28.5003 0.228823 28.3538C0.375336 28.2073 0.57405 28.125 0.78125 28.125C0.98845 28.125 1.18716 28.2073 1.33368 28.3538C1.48019 28.5003 1.5625 28.699 1.5625 28.9062V75.7812C1.5625 75.9884 1.48019 76.1872 1.33368 76.3337C1.18716 76.4802 0.98845 76.5625 0.78125 76.5625ZM82.0312 76.5625C81.8241 76.5625 81.6253 76.4802 81.4788 76.3337C81.3323 76.1872 81.25 75.9884 81.25 75.7812V28.9062C81.25 28.699 81.3323 28.5003 81.4788 28.3538C81.6253 28.2073 81.8241 28.125 82.0312 28.125C82.2384 28.125 82.4372 28.2073 82.5837 28.3538C82.7302 28.5003 82.8125 28.699 82.8125 28.9062V75.7812C82.8125 75.9884 82.7302 76.1872 82.5837 76.3337C82.4372 76.4802 82.2384 76.5625 82.0312 76.5625Z" fill="#28292D"/>
<path d="M3.90782 35.1016C3.77062 35.102 3.63578 35.0659 3.51719 34.9969C1.34844 33.7438 0.0531264 31.4656 0.0546889 28.9047C0.0562514 26.3438 1.35 24.0672 3.51719 22.8172C3.69582 22.7298 3.90097 22.7135 4.09116 22.7716C4.28134 22.8297 4.44235 22.9579 4.54162 23.1302C4.64088 23.3025 4.67098 23.5061 4.62584 23.6998C4.58069 23.8935 4.46367 24.0628 4.29844 24.1734C2.62032 25.1406 1.61719 26.9109 1.61719 28.9063C1.61719 30.9031 2.61875 32.6766 4.29844 33.6469C4.44584 33.7336 4.56073 33.8662 4.62549 34.0244C4.69026 34.1827 4.70131 34.3578 4.65697 34.523C4.61263 34.6881 4.51533 34.8341 4.38 34.9386C4.24468 35.0432 4.0788 35.1004 3.90782 35.1016ZM78.9047 35.1016C78.7335 35.0997 78.5677 35.0418 78.4325 34.9368C78.2972 34.8318 78.2001 34.6854 78.1558 34.5201C78.1116 34.3547 78.1226 34.1794 78.1873 34.0209C78.252 33.8624 78.3668 33.7294 78.5141 33.6422C80.1922 32.675 81.1953 30.9047 81.1953 28.9094C81.1953 26.9125 80.1938 25.1391 78.5141 24.1688C78.4245 24.1178 78.3459 24.0497 78.2828 23.9683C78.2197 23.8868 78.1733 23.7937 78.1463 23.6943C78.1193 23.5949 78.1122 23.4911 78.1255 23.3889C78.1388 23.2867 78.1721 23.1882 78.2236 23.099C78.2752 23.0097 78.3438 22.9316 78.4257 22.869C78.5075 22.8064 78.6009 22.7606 78.7005 22.7343C78.8001 22.708 78.904 22.7016 79.0061 22.7156C79.1081 22.7295 79.2065 22.7635 79.2953 22.8156C81.4641 24.0688 82.7594 26.3469 82.7578 28.9078C82.7563 31.4688 81.4625 33.7453 79.2953 34.9953C79.1769 35.0648 79.042 35.1015 78.9047 35.1016ZM10.1563 4.6875C9.94905 4.6875 9.75034 4.60519 9.60383 4.45868C9.45731 4.31217 9.375 4.11345 9.375 3.90625C9.375 1.75156 11.1266 0 13.2813 0C13.4885 0 13.6872 0.0823102 13.8337 0.228823C13.9802 0.375336 14.0625 0.57405 14.0625 0.78125C14.0625 0.988451 13.9802 1.18716 13.8337 1.33368C13.6872 1.48019 13.4885 1.5625 13.2813 1.5625C11.9891 1.5625 10.9375 2.61406 10.9375 3.90625C10.9375 4.11345 10.8552 4.31217 10.7087 4.45868C10.5622 4.60519 10.3635 4.6875 10.1563 4.6875Z" fill="#28292D"/>
<path d="M10.1562 38.7047C9.94905 38.7047 9.75033 38.6224 9.60382 38.4759C9.45731 38.3293 9.375 38.1306 9.375 37.9234V3.90625C9.375 3.69905 9.45731 3.50034 9.60382 3.35382C9.75033 3.20731 9.94905 3.125 10.1562 3.125C10.3634 3.125 10.5622 3.20731 10.7087 3.35382C10.8552 3.50034 10.9375 3.69905 10.9375 3.90625V37.9234C10.9375 38.1306 10.8552 38.3293 10.7087 38.4759C10.5622 38.6224 10.3634 38.7047 10.1562 38.7047ZM78.9046 24.2734C78.7677 24.2737 78.633 24.2381 78.514 24.1703L72.2656 20.5656C72.091 20.4594 71.9649 20.2891 71.9142 20.0911C71.8635 19.8932 71.8922 19.6832 71.9942 19.5062C72.0962 19.3291 72.2634 19.1989 72.4601 19.1434C72.6568 19.088 72.8673 19.1117 73.0468 19.2094L79.2953 22.8141C79.4426 22.9012 79.5574 23.0342 79.622 23.1927C79.6867 23.3512 79.6978 23.5265 79.6535 23.6919C79.6093 23.8573 79.5121 24.0036 79.3769 24.1086C79.2417 24.2136 79.0758 24.2715 78.9046 24.2734Z" fill="#28292D"/>
<path d="M3.90782 24.2735C3.73664 24.2716 3.57079 24.2137 3.43557 24.1087C3.30035 24.0037 3.2032 23.8574 3.15894 23.692C3.11467 23.5266 3.12573 23.3513 3.19041 23.1928C3.2551 23.0343 3.36986 22.9013 3.5172 22.8141L9.76564 19.2094C9.94512 19.1117 10.1557 19.0881 10.3524 19.1435C10.5491 19.199 10.7163 19.3291 10.8183 19.5062C10.9203 19.6833 10.949 19.8932 10.8983 20.0912C10.8476 20.2892 10.7215 20.4595 10.5469 20.5657L4.29845 24.1704C4.17945 24.2382 4.04479 24.2738 3.90782 24.2735ZM72.6563 72.7533C72.5481 72.7532 72.4411 72.7307 72.3421 72.6872C72.2431 72.6436 72.1543 72.5799 72.0813 72.5001L51.6656 50.2282C51.5919 50.1535 51.5339 50.0647 51.4952 49.9671C51.4565 49.8696 51.4378 49.7652 51.4404 49.6602C51.4429 49.5552 51.4666 49.4519 51.51 49.3563C51.5534 49.2606 51.6156 49.1748 51.6929 49.1037C51.7702 49.0327 51.8611 48.978 51.96 48.9429C52.059 48.9078 52.164 48.8929 52.2688 48.8993C52.3736 48.9057 52.476 48.9331 52.57 48.98C52.6639 49.0268 52.7475 49.0921 52.8156 49.172L73.2297 71.4423C73.3333 71.5536 73.4021 71.6928 73.4276 71.8427C73.4532 71.9926 73.4343 72.1467 73.3734 72.286C73.3124 72.4254 73.2121 72.5438 73.0846 72.6268C72.9572 72.7098 72.8083 72.7538 72.6563 72.7533ZM10.1563 72.7533C10.0044 72.7538 9.85562 72.71 9.72828 72.6272C9.60095 72.5443 9.50059 72.4261 9.43951 72.2871C9.37844 72.148 9.35931 71.9941 9.3845 71.8443C9.40968 71.6945 9.47807 71.5553 9.58126 71.4439L29.9953 49.1735C30.0635 49.0937 30.147 49.0284 30.241 48.9815C30.335 48.9347 30.4374 48.9072 30.5422 48.9009C30.647 48.8945 30.752 48.9093 30.8509 48.9445C30.9499 48.9796 31.0407 49.0343 31.1181 49.1053C31.1954 49.1763 31.2576 49.2622 31.301 49.3578C31.3444 49.4534 31.3681 49.5568 31.3706 49.6618C31.3732 49.7667 31.3545 49.8711 31.3158 49.9687C31.2771 50.0663 31.2191 50.1551 31.1453 50.2298L10.7313 72.4986C10.6585 72.5788 10.5698 72.643 10.4708 72.6869C10.3717 72.7307 10.2646 72.7533 10.1563 72.7533Z" fill="#28292D"/>
<path d="M32.0375 51.3281C31.9005 51.3284 31.7659 51.2928 31.6469 51.225L3.51719 34.9969C3.35196 34.8862 3.23494 34.7169 3.18979 34.5232C3.14465 34.3296 3.17475 34.126 3.27401 33.9536C3.37328 33.7813 3.53429 33.6531 3.72447 33.595C3.91465 33.5369 4.11981 33.5532 4.29844 33.6406L32.4281 49.8672C32.5751 49.9548 32.6894 50.0879 32.7538 50.2464C32.8182 50.4049 32.8291 50.58 32.785 50.7453C32.7408 50.9105 32.6439 51.0569 32.509 51.1621C32.3741 51.2672 32.2085 51.3255 32.0375 51.3281ZM50.775 51.3281C50.6038 51.3262 50.438 51.2683 50.3027 51.1633C50.1675 51.0583 50.0704 50.912 50.0261 50.7466C49.9818 50.5812 49.9929 50.4059 50.0576 50.2474C50.1223 50.0889 50.237 49.9559 50.3844 49.8687L78.5141 33.6422C78.6927 33.5548 78.8979 33.5385 79.088 33.5966C79.2782 33.6547 79.4392 33.7829 79.5385 33.9552C79.6377 34.1275 79.6679 34.3311 79.6227 34.5248C79.5776 34.7185 79.4605 34.8878 79.2953 34.9984L51.1656 51.2234C51.0467 51.2917 50.9121 51.3278 50.775 51.3281Z" fill="#28292D"/>
<path d="M41.4062 53.8265C37.9812 53.8288 34.6158 52.9312 31.6469 51.2234C31.4816 51.1128 31.3646 50.9435 31.3195 50.7498C31.2743 50.5561 31.3044 50.3525 31.4037 50.1802C31.503 50.0079 31.664 49.8797 31.8542 49.8216C32.0443 49.7635 32.2495 49.7798 32.4281 49.8672C35.1598 51.4374 38.2555 52.2637 41.4062 52.2637C44.557 52.2637 47.6527 51.4374 50.3844 49.8672C50.563 49.7798 50.7682 49.7635 50.9583 49.8216C51.1485 49.8797 51.3095 50.0079 51.4088 50.1802C51.5081 50.3525 51.5382 50.5561 51.493 50.7498C51.4479 50.9435 51.3308 51.1128 51.1656 51.2234C48.197 52.9318 44.8313 53.8296 41.4062 53.8265ZM72.6562 38.7047C72.4491 38.7047 72.2503 38.6224 72.1038 38.4759C71.9573 38.3293 71.875 38.1306 71.875 37.9234V3.90625C71.875 3.69905 71.9573 3.50033 72.1038 3.35382C72.2503 3.20731 72.4491 3.125 72.6562 3.125C72.8634 3.125 73.0622 3.20731 73.2087 3.35382C73.3552 3.50033 73.4375 3.69905 73.4375 3.90625V37.9234C73.4375 38.1306 73.3552 38.3293 73.2087 38.4759C73.0622 38.6224 72.8634 38.7047 72.6562 38.7047ZM69.5312 1.5625H13.2812C13.074 1.5625 12.8753 1.48019 12.7288 1.33368C12.5823 1.18716 12.5 0.98845 12.5 0.78125C12.5 0.574049 12.5823 0.375336 12.7288 0.228823C12.8753 0.0823102 13.074 0 13.2812 0H69.5312C69.7384 0 69.9372 0.0823102 70.0837 0.228823C70.2302 0.375336 70.3125 0.574049 70.3125 0.78125C70.3125 0.98845 70.2302 1.18716 70.0837 1.33368C69.9372 1.48019 69.7384 1.5625 69.5312 1.5625Z" fill="#28292D"/>
<path d="M72.6562 4.6875C72.449 4.6875 72.2503 4.60519 72.1038 4.45868C71.9573 4.31217 71.875 4.11345 71.875 3.90625C71.875 2.61406 70.8234 1.5625 69.5312 1.5625C69.324 1.5625 69.1253 1.48019 68.9788 1.33368C68.8323 1.18716 68.75 0.988451 68.75 0.78125C68.75 0.57405 68.8323 0.375336 68.9788 0.228823C69.1253 0.0823102 69.324 0 69.5312 0C71.6859 0 73.4375 1.75156 73.4375 3.90625C73.4375 4.11345 73.3552 4.31217 73.2087 4.45868C73.0621 4.60519 72.8634 4.6875 72.6562 4.6875ZM26.5609 40.4547C26.3831 40.4546 26.2106 40.3939 26.072 40.2825C25.9333 40.1712 25.8368 40.0158 25.7984 39.8422C24.9031 35.7953 24.8281 31.6906 24.8281 27.8328C24.8281 27.6256 24.9104 27.4269 25.057 27.2804C25.2035 27.1339 25.4022 27.0516 25.6094 27.0516C25.8166 27.0516 26.0153 27.1339 26.1618 27.2804C26.3083 27.4269 26.3906 27.6256 26.3906 27.8328C26.3906 31.6047 26.4625 35.6125 27.325 39.5031C27.3506 39.6175 27.35 39.7362 27.3235 39.8503C27.297 39.9645 27.2451 40.0712 27.1717 40.1626C27.0983 40.254 27.0053 40.3277 26.8996 40.3782C26.7939 40.4288 26.6781 40.4549 26.5609 40.4547ZM30.4578 35.1516C30.2638 35.1513 30.0768 35.0788 29.9332 34.9483C29.7897 34.8177 29.6999 34.6385 29.6812 34.4453C29.5016 32.5578 29.5078 30.6516 29.5141 28.8094L29.5156 27.8344C29.5156 27.6272 29.5979 27.4285 29.7444 27.282C29.891 27.1354 30.0897 27.0531 30.2969 27.0531C30.5041 27.0531 30.7028 27.1354 30.8493 27.282C30.9958 27.4285 31.0781 27.6272 31.0781 27.8344L31.0766 28.8141C31.0703 30.6203 31.0641 32.4875 31.2391 34.2969C31.2587 34.5032 31.1956 34.7089 31.0638 34.8688C30.932 35.0287 30.7422 35.1298 30.5359 35.15L30.4578 35.1516ZM28.0906 41.6797C27.8834 41.6799 27.6846 41.5978 27.538 41.4514C27.3913 41.3051 27.3088 41.1064 27.3086 40.8992C27.3084 40.692 27.3905 40.4932 27.5369 40.3466C27.6832 40.1999 27.8819 40.1174 28.0891 40.1172C29.4791 40.1147 30.8412 39.7264 32.0234 38.9953C32.1996 38.8863 32.4118 38.8518 32.6134 38.8992C32.7132 38.9228 32.8074 38.9657 32.8906 39.0256C32.9739 39.0855 33.0445 39.1612 33.0984 39.2484C33.1524 39.3357 33.1887 39.4326 33.2051 39.5339C33.2216 39.6351 33.218 39.7386 33.1945 39.8384C33.171 39.9382 33.1281 40.0324 33.0682 40.1156C33.0082 40.1989 32.9325 40.2695 32.8453 40.3234C31.4167 41.2073 29.7706 41.6768 28.0906 41.6797Z" fill="#28292D"/>
<path d="M32.4328 40.4406C32.2636 40.4393 32.0993 40.3832 31.9646 40.2807C31.83 40.1781 31.7322 40.0347 31.6859 39.8719C31.6396 39.7091 31.6473 39.5357 31.7079 39.3777C31.7685 39.2196 31.8786 39.0855 32.0219 38.9953C32.1403 38.9205 32.2359 38.8147 32.2984 38.6893C32.3609 38.564 32.388 38.424 32.3766 38.2844C32.3717 38.1444 32.3283 38.0084 32.2511 37.8916C32.1739 37.7747 32.0659 37.6813 31.9391 37.6219C31.843 37.5809 31.7561 37.5211 31.6835 37.446C31.6109 37.3708 31.5541 37.2819 31.5165 37.1844C31.4789 37.0869 31.4613 36.9829 31.4646 36.8785C31.4679 36.7741 31.4921 36.6714 31.5357 36.5765C31.5794 36.4816 31.6417 36.3964 31.7189 36.326C31.7961 36.2556 31.8866 36.2014 31.9851 36.1666C32.0836 36.1318 32.1881 36.1171 32.2923 36.1234C32.3966 36.1296 32.4986 36.1568 32.5922 36.2031C33.3688 36.5609 33.8844 37.3219 33.9359 38.1891C33.9649 38.6107 33.8786 39.0323 33.6861 39.4085C33.4937 39.7848 33.2025 40.1016 32.8438 40.325C32.7198 40.4 32.5777 40.4399 32.4328 40.4406ZM28.0844 41.6797C27.5518 41.6769 27.0358 41.4937 26.6207 41.16C26.2055 40.8263 25.9157 40.3618 25.7984 39.8422C25.7762 39.742 25.7739 39.6383 25.7917 39.5372C25.8095 39.4361 25.847 39.3394 25.9021 39.2528C25.9573 39.1662 26.0289 39.0913 26.113 39.0324C26.1971 38.9734 26.292 38.9316 26.3922 38.9094C26.4924 38.8871 26.5961 38.8848 26.6972 38.9026C26.7983 38.9204 26.895 38.9579 26.9816 39.0131C27.0682 39.0682 27.1431 39.1399 27.202 39.2239C27.261 39.308 27.3027 39.4029 27.325 39.5031C27.4031 39.8609 27.6891 40.0781 28.0875 40.1172C28.4547 40.0781 28.8703 40.4641 28.8719 40.8953C28.8734 41.3266 28.525 41.6781 28.0938 41.6797H28.0844Z" fill="#28292D"/>
<path d="M32.264 37.6922C32.1513 37.6921 32.0399 37.6676 31.9375 37.6204C31.3173 37.3336 30.7829 36.8898 30.3871 36.3329C29.9914 35.776 29.748 35.1253 29.6812 34.4454C29.6616 34.2391 29.7246 34.0334 29.8564 33.8735C29.9882 33.7135 30.1781 33.6124 30.3843 33.5922C30.8171 33.5751 31.1953 33.8657 31.2375 34.2954C31.3172 35.1235 31.8359 35.8532 32.5906 36.2016C32.7522 36.2762 32.8836 36.4038 32.9628 36.5632C33.0421 36.7226 33.0645 36.9043 33.0264 37.0782C32.9883 37.2521 32.892 37.4078 32.7533 37.5194C32.6147 37.6311 32.4421 37.6921 32.264 37.6922ZM49.5953 38.1313C48.7687 38.1313 47.8578 37.861 46.8453 37.3188C45.3046 36.4954 43.914 35.4016 42.5703 34.3485L41.6031 33.5938C38.7531 31.4047 35.325 28.9047 31.5062 26.9688C31.3212 26.8754 31.1809 26.7122 31.1161 26.5153C31.0513 26.3184 31.0675 26.1038 31.1609 25.9188C31.2543 25.7338 31.4175 25.5934 31.6144 25.5287C31.8113 25.4639 32.0259 25.48 32.2109 25.5735C36.1468 27.5672 39.6484 30.1204 42.5546 32.3547L43.5359 33.1188C44.8265 34.1329 46.1625 35.1813 47.5843 35.9438C48.7812 36.5844 49.7109 36.7266 50.4265 36.3844C50.7343 36.236 50.8796 35.7157 50.8546 34.8376C50.8496 34.6306 50.9266 34.43 51.0688 34.2795C51.2111 34.1291 51.4071 34.041 51.614 34.0344H51.6359C51.8394 34.0344 52.0348 34.1137 52.1807 34.2555C52.3266 34.3973 52.4114 34.5904 52.4171 34.7938C52.4328 35.3719 52.4796 37.1329 51.0999 37.7938C50.6312 38.0188 50.1312 38.1313 49.5953 38.1313ZM31.8593 17.6766C31.6838 17.6763 31.5136 17.6168 31.376 17.5079C31.2384 17.399 31.1415 17.2469 31.1009 17.0761C31.0603 16.9054 31.0783 16.726 31.1521 16.5668C31.226 16.4075 31.3512 16.2778 31.5078 16.1985C35.3328 14.2594 38.7593 11.761 41.6046 9.57348L42.5718 8.81879C43.9156 7.7641 45.3062 6.67192 46.8468 5.84848C48.5156 4.95473 49.9093 4.79691 51.1046 5.37504C52.4828 6.03598 52.4359 7.79535 52.4203 8.37348C52.4146 8.57687 52.3297 8.77 52.1838 8.91182C52.0379 9.05363 51.8425 9.13294 51.639 9.13286H51.6171C51.41 9.12672 51.2138 9.03875 51.0715 8.88821C50.9292 8.73767 50.8523 8.53684 50.8578 8.32973C50.8828 7.4391 50.7421 6.93129 50.4296 6.78285C49.7109 6.43285 48.7812 6.58285 47.5875 7.22348C46.1656 7.98442 44.8296 9.03285 43.539 10.0485L42.5578 10.8125C39.6562 13.0454 36.1562 15.5954 32.214 17.5938C32.1036 17.648 31.9823 17.6764 31.8593 17.6766ZM51.6375 27.586C51.4303 27.586 51.2315 27.5037 51.085 27.3572C50.9385 27.2107 50.8562 27.0119 50.8562 26.8047C50.8562 26.5975 50.9385 26.3988 51.085 26.2523C51.2315 26.1058 51.4303 26.0235 51.6375 26.0235C54.0437 26.0235 56.0781 23.9891 56.0781 21.5829C56.0781 19.175 54.0437 17.1407 51.6375 17.1407C51.4303 17.1407 51.2315 17.0584 51.085 16.9118C50.9385 16.7653 50.8562 16.5666 50.8562 16.3594C50.8562 16.1522 50.9385 15.9535 51.085 15.807C51.2315 15.6605 51.4303 15.5782 51.6375 15.5782C54.8906 15.5782 57.6406 18.3282 57.6406 21.5829C57.6406 24.8376 54.8906 27.586 51.6375 27.586Z" fill="#28292D"/>
<path d="M51.4547 37.0828C51.334 37.083 51.2149 37.0552 51.1068 37.0016C50.9987 36.948 50.9045 36.8701 50.8315 36.7739C50.7586 36.6778 50.7088 36.5661 50.6863 36.4476C50.6638 36.329 50.669 36.2068 50.7016 36.0906C50.8156 35.6828 50.8672 35.2625 50.8562 34.836C50.8533 34.7334 50.8707 34.6312 50.9073 34.5353C50.9439 34.4394 50.999 34.3516 51.0695 34.277C51.14 34.2025 51.2246 34.1425 51.3183 34.1006C51.412 34.0587 51.513 34.0357 51.6156 34.0328H51.6375C51.841 34.0328 52.0364 34.1121 52.1823 34.2539C52.3282 34.3957 52.413 34.5888 52.4187 34.7922C52.4344 35.375 52.3641 35.9531 52.2062 36.511C52.1608 36.6754 52.0627 36.8203 51.9269 36.9236C51.7911 37.0269 51.6253 37.0829 51.4547 37.0828Z" fill="#28292D"/>
<path d="M51.6375 35.5969C51.4303 35.5969 51.2316 35.5146 51.0851 35.3681C50.9385 35.2216 50.8562 35.0228 50.8562 34.8156V8.35156C50.8562 8.14436 50.9385 7.94565 51.0851 7.79913C51.2316 7.65262 51.4303 7.57031 51.6375 7.57031C51.8447 7.57031 52.0434 7.65262 52.1899 7.79913C52.3364 7.94565 52.4187 8.14436 52.4187 8.35156V34.8172C52.4183 35.0241 52.3358 35.2224 52.1894 35.3686C52.0429 35.5148 51.8444 35.5969 51.6375 35.5969ZM24.0469 27.0516H20.9219C20.7147 27.0516 20.516 26.9693 20.3695 26.8228C20.2229 26.6762 20.1406 26.4775 20.1406 26.2703C20.1406 26.0631 20.2229 25.8644 20.3695 25.7179C20.516 25.5714 20.7147 25.4891 20.9219 25.4891H24.0469C24.2541 25.4891 24.4528 25.5714 24.5993 25.7179C24.7458 25.8644 24.8281 26.0631 24.8281 26.2703C24.8281 26.4775 24.7458 26.6762 24.5993 26.8228C24.4528 26.9693 24.2541 27.0516 24.0469 27.0516ZM24.0469 17.6766H20.9219C20.7147 17.6766 20.516 17.5943 20.3695 17.4477C20.2229 17.3012 20.1406 17.1025 20.1406 16.8953C20.1406 16.6881 20.2229 16.4894 20.3695 16.3429C20.516 16.1964 20.7147 16.1141 20.9219 16.1141H24.0469C24.2541 16.1141 24.4528 16.1964 24.5993 16.3429C24.7458 16.4894 24.8281 16.6881 24.8281 16.8953C24.8281 17.1025 24.7458 17.3012 24.5993 17.4477C24.4528 17.5943 24.2541 17.6766 24.0469 17.6766ZM30.2969 28.6141C30.0897 28.6141 29.891 28.5318 29.7444 28.3853C29.5979 28.2387 29.5156 28.04 29.5156 27.8328C29.5156 27.6256 29.5979 27.4269 29.7444 27.2804C29.891 27.1339 30.0897 27.0516 30.2969 27.0516C30.7266 27.0516 31.0781 26.7 31.0781 26.2703C31.0781 26.0631 31.1604 25.8644 31.3069 25.7179C31.4535 25.5714 31.6522 25.4891 31.8594 25.4891C32.0666 25.4891 32.2653 25.5714 32.4118 25.7179C32.5583 25.8644 32.6406 26.0631 32.6406 26.2703C32.6406 27.5641 31.5891 28.6141 30.2969 28.6141Z" fill="#28292D"/>
<path d="M30.2969 28.614H25.6094C25.4022 28.614 25.2035 28.5317 25.057 28.3852C24.9104 28.2387 24.8281 28.04 24.8281 27.8328C24.8281 27.6256 24.9104 27.4268 25.057 27.2803C25.2035 27.1338 25.4022 27.0515 25.6094 27.0515H30.2969C30.5041 27.0515 30.7028 27.1338 30.8493 27.2803C30.9958 27.4268 31.0781 27.6256 31.0781 27.8328C31.0781 28.04 30.9958 28.2387 30.8493 28.3852C30.7028 28.5317 30.5041 28.614 30.2969 28.614ZM31.8594 27.0515C31.6522 27.0515 31.4535 26.9692 31.307 26.8227C31.1604 26.6762 31.0781 26.4775 31.0781 26.2703V16.8953C31.0781 16.6881 31.1604 16.4894 31.307 16.3428C31.4535 16.1963 31.6522 16.114 31.8594 16.114C32.0666 16.114 32.2653 16.1963 32.4118 16.3428C32.5583 16.4894 32.6406 16.6881 32.6406 16.8953V26.2703C32.6406 26.4775 32.5583 26.6762 32.4118 26.8227C32.2653 26.9692 32.0666 27.0515 31.8594 27.0515Z" fill="#28292D"/>
<path d="M31.8594 17.6765C31.6522 17.6765 31.4535 17.5942 31.307 17.4477C31.1605 17.3012 31.0782 17.1025 31.0782 16.8953C31.0782 16.4656 30.7266 16.114 30.2969 16.114C30.0897 16.114 29.891 16.0317 29.7445 15.8852C29.598 15.7387 29.5157 15.54 29.5157 15.3328C29.5157 15.1256 29.598 14.9269 29.7445 14.7803C29.891 14.6338 30.0897 14.5515 30.2969 14.5515C31.5891 14.5515 32.6407 15.6031 32.6407 16.8953C32.6407 17.1025 32.5583 17.3012 32.4118 17.4477C32.2653 17.5942 32.0666 17.6765 31.8594 17.6765Z" fill="#28292D"/>
<path d="M30.2969 16.114H25.6094C25.4022 16.114 25.2035 16.0317 25.057 15.8852C24.9104 15.7387 24.8281 15.54 24.8281 15.3328C24.8281 15.1256 24.9104 14.9269 25.057 14.7803C25.2035 14.6338 25.4022 14.5515 25.6094 14.5515H30.2969C30.5041 14.5515 30.7028 14.6338 30.8493 14.7803C30.9958 14.9269 31.0781 15.1256 31.0781 15.3328C31.0781 15.54 30.9958 15.7387 30.8493 15.8852C30.7028 16.0317 30.5041 16.114 30.2969 16.114Z" fill="#28292D"/>
<path d="M24.0469 17.6765C23.8397 17.6765 23.641 17.5942 23.4945 17.4477C23.3479 17.3012 23.2656 17.1025 23.2656 16.8953C23.2656 15.6031 24.3172 14.5515 25.6094 14.5515C25.8166 14.5515 26.0153 14.6338 26.1618 14.7803C26.3083 14.9269 26.3906 15.1256 26.3906 15.3328C26.3906 15.54 26.3083 15.7387 26.1618 15.8852C26.0153 16.0317 25.8166 16.114 25.6094 16.114C25.1797 16.114 24.8281 16.4656 24.8281 16.8953C24.8281 17.1025 24.7458 17.3012 24.5993 17.4477C24.4528 17.5942 24.2541 17.6765 24.0469 17.6765Z" fill="#28292D"/>
<path d="M24.0469 27.0515C23.8397 27.0515 23.641 26.9692 23.4945 26.8227C23.3479 26.6762 23.2656 26.4775 23.2656 26.2703V16.8953C23.2656 16.6881 23.3479 16.4894 23.4945 16.3428C23.641 16.1963 23.8397 16.114 24.0469 16.114C24.2541 16.114 24.4528 16.1963 24.5993 16.3428C24.7458 16.4894 24.8281 16.6881 24.8281 16.8953V26.2703C24.8281 26.4775 24.7458 26.6762 24.5993 26.8227C24.4528 26.9692 24.2541 27.0515 24.0469 27.0515Z" fill="#28292D"/>
<path d="M25.6094 28.6141C24.3172 28.6141 23.2656 27.5625 23.2656 26.2704C23.2656 26.0632 23.3479 25.8644 23.4945 25.7179C23.641 25.5714 23.8397 25.4891 24.0469 25.4891C24.2541 25.4891 24.4528 25.5714 24.5993 25.7179C24.7458 25.8644 24.8281 26.0632 24.8281 26.2704C24.8281 26.7 25.1797 27.0516 25.6094 27.0516C25.8166 27.0516 26.0153 27.1339 26.1618 27.2804C26.3083 27.4269 26.3906 27.6257 26.3906 27.8329C26.3906 28.0401 26.3083 28.2388 26.1618 28.3853C26.0153 28.5318 25.8166 28.6141 25.6094 28.6141ZM20.9219 27.0516C17.4328 27.0516 15.6063 24.3 15.6063 21.5829C15.6063 18.8657 17.4328 16.1141 20.9219 16.1141C21.1291 16.1141 21.3278 16.1964 21.4743 16.3429C21.6208 16.4894 21.7031 16.6882 21.7031 16.8954C21.7031 17.1026 21.6208 17.3013 21.4743 17.4478C21.3278 17.5943 21.1291 17.6766 20.9219 17.6766C18.3438 17.6766 17.1688 19.7016 17.1688 21.5829C17.1688 23.4641 18.3438 25.4891 20.9219 25.4891C21.1291 25.4891 21.3278 25.5714 21.4743 25.7179C21.6208 25.8644 21.7031 26.0632 21.7031 26.2704C21.7031 26.4776 21.6208 26.6763 21.4743 26.8228C21.3278 26.9693 21.1291 27.0516 20.9219 27.0516ZM61.3469 34.1625C61.1396 34.1626 60.9407 34.0806 60.7937 33.9344L57.4797 30.6204C57.3374 30.473 57.2586 30.2757 57.2604 30.0708C57.2622 29.866 57.3443 29.67 57.4892 29.5252C57.634 29.3803 57.83 29.2982 58.0348 29.2964C58.2397 29.2946 58.437 29.3734 58.5844 29.5157L61.8984 32.8297C62.0073 32.939 62.0815 33.078 62.1115 33.2294C62.1415 33.3807 62.126 33.5375 62.067 33.68C62.008 33.8226 61.9082 33.9445 61.78 34.0303C61.6518 34.1162 61.5011 34.1622 61.3469 34.1625ZM58.0328 13.8797C57.8784 13.8797 57.7275 13.8339 57.5991 13.7482C57.4707 13.6624 57.3706 13.5405 57.3114 13.3979C57.2522 13.2553 57.2366 13.0984 57.2666 12.9469C57.2965 12.7955 57.3707 12.6563 57.4797 12.5469L60.7937 9.23286C60.9411 9.09054 61.1384 9.0118 61.3433 9.01358C61.5481 9.01536 61.7441 9.09752 61.8889 9.24237C62.0338 9.38722 62.1159 9.58317 62.1177 9.78801C62.1195 9.99285 62.0407 10.1902 61.8984 10.3375L58.5844 13.6516C58.438 13.7977 58.2396 13.8797 58.0328 13.8797ZM66.2344 22.3641H61.5469C61.3397 22.3641 61.141 22.2818 60.9944 22.1353C60.8479 21.9888 60.7656 21.7901 60.7656 21.5829C60.7656 21.3757 60.8479 21.1769 60.9944 21.0304C61.141 20.8839 61.3397 20.8016 61.5469 20.8016H66.2344C66.4416 20.8016 66.6403 20.8839 66.7868 21.0304C66.9333 21.1769 67.0156 21.3757 67.0156 21.5829C67.0156 21.7901 66.9333 21.9888 66.7868 22.1353C66.6403 22.2818 66.4416 22.3641 66.2344 22.3641Z" fill="#28292D"/>
</svg>
