<svg width="90" height="88" fill="none" xmlns="http://www.w3.org/2000/svg"><path d="M78.838 20.833H35.746A10.754 10.754 0 0 0 25 31.575v34.767a10.754 10.754 0 0 0 10.746 10.741H55.27a1.76 1.76 0 0 1 1.25.513l8.125 8.125a7.292 7.292 0 0 0 12.446-5.154v-1.725a1.758 1.758 0 0 1 1.754-1.759 10.754 10.754 0 0 0 10.746-10.741V31.575a10.754 10.754 0 0 0-10.754-10.742z" fill="#AFCBF9"/><path d="M61.458 0h-50A11.467 11.467 0 0 0 0 11.458v41.667a11.467 11.467 0 0 0 11.458 11.458 1.041 1.041 0 0 1 1.042 1.042v4.788a7.213 7.213 0 0 0 4.875 6.879c.79.275 1.621.416 2.458.416a7.204 7.204 0 0 0 5.65-2.75l7.996-10a1.034 1.034 0 0 1 .834-.391h27.145a11.466 11.466 0 0 0 11.459-11.442V11.458A11.467 11.467 0 0 0 61.458 0z" fill="#4285F4"/><path d="M9.792 20.792h47M9.792 34.792h30" stroke="#AFCBF9" stroke-width="6" stroke-linecap="round"/></svg>