<svg width="90" height="88" viewBox="0 0 90 88" fill="none" xmlns="http://www.w3.org/2000/svg">
<path d="M78.8375 20.8334H35.7458C32.8973 20.8356 30.1659 21.9679 28.1513 23.9817C26.1367 25.9956 25.0033 28.7265 25 31.575V66.3417C25.0033 69.1902 26.1367 71.9211 28.1513 73.935C30.1659 75.9488 32.8973 77.0811 35.7458 77.0833H55.2709C55.5027 77.0821 55.7325 77.1268 55.947 77.2147C56.1616 77.3027 56.3566 77.4322 56.5209 77.5958L64.6459 85.7208C65.6656 86.7398 66.9645 87.4337 68.3785 87.7148C69.7925 87.9958 71.258 87.8514 72.5899 87.2998C73.9219 86.7482 75.0604 85.8142 75.8617 84.6158C76.663 83.4173 77.091 82.0083 77.0917 80.5667V78.8417C77.0917 78.376 77.2764 77.9294 77.6052 77.5998C77.9341 77.2702 78.3803 77.0844 78.8459 77.0833C81.6945 77.0811 84.4258 75.9488 86.4404 73.935C88.4551 71.9211 89.5884 69.1902 89.5917 66.3417V31.575C89.5884 28.725 88.4539 25.9929 86.4375 23.9788C84.421 21.9647 81.6876 20.8334 78.8375 20.8334Z" fill="#AFCBF9"/>
<path d="M61.4584 0H11.4583C8.42008 0.00220724 5.50689 1.21013 3.35851 3.35851C1.21013 5.50689 0.00220724 8.42008 0 11.4583V53.1251C0.00220724 56.1633 1.21013 59.0765 3.35851 61.2249C5.50689 63.3733 8.42008 64.5812 11.4583 64.5834C11.7346 64.5834 11.9996 64.6931 12.1949 64.8885C12.3903 65.0838 12.5 65.3488 12.5 65.6251V70.4126C12.4883 71.9257 12.9527 73.4041 13.8276 74.6387C14.7025 75.8733 15.9435 76.8014 17.375 77.2917C18.1653 77.5673 18.9964 77.7081 19.8333 77.7084C20.9217 77.7066 21.9954 77.4582 22.974 76.9819C23.9525 76.5056 24.8105 75.8138 25.4834 74.9584L33.4792 64.9584C33.5784 64.8331 33.7052 64.7326 33.8498 64.6646C33.9944 64.5966 34.1528 64.5631 34.3125 64.5667H61.4584C64.4938 64.5645 67.4044 63.3589 69.5523 61.2141C71.7002 59.0693 72.9101 56.1604 72.9167 53.1251V11.4583C72.9145 8.42008 71.7066 5.50689 69.5582 3.35851C67.4098 1.21013 64.4966 0.00220724 61.4584 0Z" fill="#4285F4"/>
<path d="M9.79163 20.7917H56.7916" stroke="#AFCBF9" stroke-width="6" stroke-linecap="round"/>
<path d="M9.79163 34.7917H39.7916" stroke="#AFCBF9" stroke-width="6" stroke-linecap="round"/>
</svg>
