<svg width="100" height="100" fill="none" xmlns="http://www.w3.org/2000/svg"><path d="M6.06 34.547a1.509 1.509 0 0 0-1.509 1.509v29.096a1.51 1.51 0 1 0 3.019 0V36.055a1.51 1.51 0 0 0-1.51-1.51z" fill="#DEDDE0"/><path d="M12.121 83.333h3.03V59.091h-3.03C5.427 59.091 0 64.518 0 71.212c0 6.676 5.408 12.121 12.121 12.121z" fill="#3B5A9B"/><path d="M81.818 83.333h-3.03V59.091h3.03c6.695 0 12.122 5.427 12.122 12.121 0 6.676-5.409 12.121-12.122 12.121z" fill="#5972A5"/><path d="M84.85 71.212C84.85 87.067 72.002 100 56.06 100H37.878C21.98 100 9.092 87.11 9.092 71.212c0-20.862 16.901-37.878 37.877-37.878a37.725 37.725 0 0 1 22.347 7.293c9.408 6.882 15.533 18 15.533 30.585z" fill="#7888AF"/><path d="M69.316 40.627h-2.914c-.8 0-1.568.317-2.135.883l-7.598 7.6c-1.902 1.902-5.154.554-5.154-2.135v-3.33a3.018 3.018 0 0 0-3.018-3.019h-3.09a12.026 12.026 0 0 1-7.018-2.25c-1.618-1.16-3.898-.394-4.564 1.483-4.966 13.99-7.733 38.229 16.52 60.141H37.877C21.98 100 9.092 87.111 9.092 71.212c0-20.862 16.901-37.878 37.878-37.878a37.725 37.725 0 0 1 22.346 7.293z" fill="#5972A5"/><path d="M75.757 71.212c0 10.013-8.111 18.181-18.18 18.181H36.364c-10.044 0-18.184-8.14-18.184-18.181 0-8.046 5.237-14.897 12.519-17.282 1.78-.584 3.685-.9 5.665-.9h21.211c10.042 0 18.181 8.14 18.181 18.182z" fill="#F4F4F5"/><path d="M40.705 89.393h-4.34c-10.044 0-18.184-8.14-18.184-18.181 0-8.046 5.237-14.897 12.519-17.282-.966 10.468.938 23.015 10.005 35.463z" fill="#DEDDE0"/><path d="M100 10.492v15.38c0 5.794-4.697 10.492-10.492 10.492H66.402c-.8 0-1.568.318-2.135.884l-7.145 7.144c-.95.951-2.576.277-2.576-1.067v-3.942a3.019 3.019 0 0 0-3.019-3.019h-3.165c-6.627 0-11.998-5.373-11.998-12V10.493C36.364 4.697 41.061 0 46.854 0h42.654C95.303 0 100 4.697 100 10.492z" fill="#B4E9F1"/><path d="M69.113 36.365h-2.71c-.801 0-1.57.317-2.136.883l-7.145 7.144c-.95.951-2.576.277-2.576-1.067v-3.942a3.019 3.019 0 0 0-3.019-3.019h-3.165c-6.627 0-11.998-5.372-11.998-11.999V10.492C36.364 4.697 41.061 0 46.854 0h14.274c-2.843 5.33-5.994 24.58 7.985 36.365z" fill="#81D8E7"/><path d="M6.06 42.424a4.545 4.545 0 1 0 0-9.09 4.545 4.545 0 0 0 0 9.09z" fill="#5972A5"/><path d="M68.182 22.727a4.546 4.546 0 1 0 0-9.09 4.546 4.546 0 0 0 0 9.09zM86.364 22.727a4.546 4.546 0 1 0 0-9.09 4.546 4.546 0 0 0 0 9.09z" fill="#7888AF"/><path d="M50 22.727a4.546 4.546 0 1 0 0-9.09 4.546 4.546 0 0 0 0 9.09z" fill="#5972A5"/><path d="M36.455 73.217c.002 2.704-2.75 4.897-6.146 4.899-3.395.002-6.149-2.189-6.15-4.893-.002-2.704 2.75-4.898 6.146-4.9 3.395-.001 6.149 2.19 6.15 4.894zm21.03-.01c0 2.703 2.755 4.894 6.15 4.892 3.396-.002 6.147-2.195 6.146-4.9-.001-2.703-2.755-4.894-6.15-4.892-3.396.001-6.148 2.195-6.147 4.9z" fill="#FFA1AC"/><path d="M52.995 70.995c-.002-3.725-2.7-4.074-6.028-4.072-3.329.002-6.027.353-6.025 4.078.002 3.724 2.702 6.742 6.03 6.74 3.329 0 6.025-3.022 6.023-6.746zM30.961 69.4a1.509 1.509 0 0 1-1.51-1.509 4.433 4.433 0 0 1 4.434-4.438 4.44 4.44 0 0 1 4.438 4.434 1.509 1.509 0 1 1-3.018.001c0-1.266-1.536-1.886-2.42-1a1.408 1.408 0 0 0-.415 1.002 1.51 1.51 0 0 1-1.51 1.51zm26.16-.013a1.509 1.509 0 0 1-1.51-1.51 4.441 4.441 0 0 1 4.434-4.437 4.433 4.433 0 0 1 4.437 4.434 1.51 1.51 0 0 1-3.018.001 1.415 1.415 0 0 0-1.417-1.416c-.78 0-1.418.634-1.417 1.418 0 .83-.672 1.51-1.51 1.51z" fill="#495560"/></svg>