<svg width="493" height="235" fill="none" xmlns="http://www.w3.org/2000/svg"><path d="M-14 104.188c0 10.01 8.045 18.124 17.969 18.124 9.924 0 17.968-8.114 17.968-18.124" stroke="#FFC700" stroke-width="13" stroke-linecap="round" stroke-linejoin="round"/><path d="M76.247 174.643c6.67 24.942-7.76 50.486-32.23 57.056-24.47 6.567-49.718-8.327-56.389-33.269-6.67-24.942 7.76-50.485 32.23-57.055M29.129 63.875c0 10.528-8.398 19.063-18.754 19.063-10.356 0-18.75-8.535-18.75-19.063 0-10.528 8.394-19.063 18.75-19.063h62.813M234.496 242.062c0-10.527 8.398-19.062 18.754-19.062 10.356 0 18.75 8.535 18.75 19.062 0 10.528-8.394 19.063-18.75 19.063h-62.812" stroke="#6ED47C" stroke-width="13" stroke-linecap="round" stroke-linejoin="round"/><path d="M200.088 215.125c0-10.01-8.051-18.125-17.982-18.125s-17.981 8.115-17.981 18.125 8.05 18.125 17.981 18.125h28.582" stroke="#FFC700" stroke-width="13" stroke-linecap="round" stroke-linejoin="round"/><path d="M17.674 19.188C.179 19.188-14 4.777-14-13-14-30.776.179-45.188 17.674-45.188h83.014" stroke="#fff" stroke-width="13" stroke-linecap="round" stroke-linejoin="round"/><path d="M33.031 169.138c-9.924 0-17.968 7.987-17.968 17.837s8.044 17.837 17.968 17.837S51 196.825 51 186.975V70.75" stroke="#F64E60" stroke-width="13" stroke-linecap="round" stroke-linejoin="round"/><path d="M167.562 180.75c0-18.294-14.639-33.125-32.698-33.125H77.25" stroke="#6ED47C" stroke-width="13" stroke-linecap="round" stroke-linejoin="round"/><path d="M73.188 71.375v16.799c0 16.955 13.75 30.701 30.714 30.701h23.973" stroke="#fff" stroke-width="13" stroke-linecap="round" stroke-linejoin="round"/><path d="M15.063-12.375h26.252c18.984 0 34.373 15.53 34.373 34.688M193.969 155.125V174.5" stroke="#FFC700" stroke-width="13" stroke-linecap="round" stroke-linejoin="round"/><path d="M94.187-24.563a6.5 6.5 0 1 1 13 0h-13zM136.444 85.22a6.5 6.5 0 1 1 0 13v-13zm51.431 41.53a6.5 6.5 0 1 1 0 13v-13zM141.7 101.981a6.5 6.5 0 1 1 13 0h-13zM107.187-24.562v44.478h-13v-44.478h13zm0 44.478c0 3.358 2.757 6.167 6.271 6.167v13c-10.593 0-19.27-8.529-19.27-19.167h12.999zm6.271 6.167c10.595 0 19.27 8.537 19.27 19.172h-13c0-3.361-2.76-6.172-6.27-6.172v-13zm19.27 19.172v2.629h-13v-2.629h13zm0 2.629c0 10.635-8.675 19.172-19.27 19.172v-13c3.51 0 6.27-2.81 6.27-6.172h13zm-19.27 19.172c-3.511 0-6.271 2.81-6.271 6.172h-13c0-10.635 8.675-19.172 19.271-19.172v13zm-6.271 6.172v2.91h-13v-2.91h13zm0 2.91c0 4.97 4.073 9.082 9.203 9.082v13c-12.215 0-22.203-9.839-22.203-22.082h13zm9.203 9.082h8.135v13h-8.135v-13zm8.135 0h11.919v13h-11.919v-13zm63.35 54.53h-8.368v-13h8.368v13zm-8.368 0c-20.873 0-37.807-16.902-37.807-37.769h13c0 13.672 11.099 24.769 24.807 24.769v13z" fill="#F64E60"/><path clip-rule="evenodd" d="M145.688 193.865c0-12.592-10.214-22.803-22.813-22.803v0c-12.598 0-22.813 10.211-22.813 22.803v16.583c0 12.592 10.215 22.802 22.813 22.802v0c12.599 0 22.813-10.21 22.813-22.802v-16.583z" stroke="#fff" stroke-width="13" stroke-linecap="round" stroke-linejoin="round"/></svg>