<svg width="21" height="18" fill="none" xmlns="http://www.w3.org/2000/svg"><path d="M19.677.318a1.213 1.213 0 0 0-1.198-.257L.832 5.878c-.48.158-.807.588-.83 1.093-.024.506.26.964.724 1.167l4.364 1.91 1.317 6.107c.054.253.183.48.456.549.276.07.47-.08.677-.235l3.238-2.425 3.787 3.098a1.205 1.205 0 0 0 1.156.21c.398-.135.694-.46.79-.87L20.038 1.49a1.212 1.212 0 0 0-.361-1.17zM7.822 11.142a.16.16 0 0 0-.006.018l-.73 2.55-.815-3.778 5.602-3.113-3.917 4.096a.59.59 0 0 0-.134.227zm.232 3.47.331-1.159.317-1.108 1.137.93-1.785 1.337zM18.89 1.219l-3.526 14.993c-.002.008-.005.018-.022.024-.017.006-.025 0-.031-.006l-4.143-3.39-1.92-1.571 6.167-6.448a.59.59 0 0 0-.712-.923L5.572 8.972 1.198 7.058c-.013-.005-.02-.009-.02-.031.002-.023.01-.025.023-.03L18.848 1.18c.009-.003.018-.006.032.007.015.013.012.023.01.032z" fill="#039BE5"/></svg>