<svg width="19" height="19" fill="none" xmlns="http://www.w3.org/2000/svg"><path d="m0 18.997 1.362-5.063A9.364 9.364 0 0 1 3.89 1.91a9.404 9.404 0 0 1 12.28.794 9.366 9.366 0 0 1 .954 12.249 9.407 9.407 0 0 1-12.01 2.68L0 18.996zm5.361-3.26.317.188a7.602 7.602 0 0 0 9.194-1.117 7.574 7.574 0 0 0 1.27-9.16 7.587 7.587 0 0 0-3.665-3.236 7.603 7.603 0 0 0-8.95 2.378 7.57 7.57 0 0 0-1.57 4.626 7.484 7.484 0 0 0 1.11 3.929l.198.326-.761 2.826 2.857-.76z" fill="#29A71A"/><path fill-rule="evenodd" clip-rule="evenodd" d="M13.039 10.716a1.567 1.567 0 0 0-1.34-.305c-.35.145-.574.69-.8.964a.332.332 0 0 1-.428.096 6.071 6.071 0 0 1-3.035-2.596.364.364 0 0 1 .048-.503c.251-.248.436-.556.536-.894a1.946 1.946 0 0 0-.246-1.07 2.505 2.505 0 0 0-.778-1.173 1.074 1.074 0 0 0-1.152.177 2.366 2.366 0 0 0-.82 1.873c0 .199.025.397.074.59.125.461.316.903.569 1.31.182.312.38.614.595.905a9.135 9.135 0 0 0 2.579 2.387 7.773 7.773 0 0 0 1.608.766 3.566 3.566 0 0 0 1.871.294 2.248 2.248 0 0 0 1.694-1.258c.093-.2.121-.425.08-.642-.096-.444-.69-.707-1.055-.92z" fill="#29A71A"/></svg>