<svg width="60" height="60" fill="none" xmlns="http://www.w3.org/2000/svg"><path fill-rule="evenodd" clip-rule="evenodd" d="M18.297.728H41.4a5.315 5.315 0 0 1 5.304 5.304v47.632a5.315 5.315 0 0 1-5.304 5.304H18.297a5.315 5.315 0 0 1-5.305-5.304V6.032A5.315 5.315 0 0 1 18.297.728z" fill="#7A8C98"/><path fill-rule="evenodd" clip-rule="evenodd" d="M16.655 10.486h26.388v37.866a.608.608 0 0 1-.607.607H17.262a.608.608 0 0 1-.607-.607V10.486z" fill="#D4F2F6"/><path fill-rule="evenodd" clip-rule="evenodd" d="M24.911 29.688h9.875a1.594 1.594 0 0 1 1.592 1.458l1.041 11.878c.041.463-.1.877-.413 1.219a1.546 1.546 0 0 1-1.178.518H23.87c-.465 0-.864-.176-1.178-.518a1.545 1.545 0 0 1-.413-1.219l1.041-11.878a1.594 1.594 0 0 1 1.591-1.458z" fill="#C29872"/><path fill-rule="evenodd" clip-rule="evenodd" d="M29.849 39.16c1.674 0 3.04-.87 3.04-1.935 0-1.066-1.366-1.935-3.04-1.935-1.675 0-3.04.869-3.04 1.935 0 1.065 1.365 1.935 3.04 1.935z" fill="#F8C963"/><path fill-rule="evenodd" clip-rule="evenodd" d="M12.993 6.032h33.712l12.264 8.89H47.321a5.824 5.824 0 0 1-11.648 0H24.025a5.824 5.824 0 1 1-11.648 0H.729l12.264-8.89z" fill="#F9F3F1"/><path fill-rule="evenodd" clip-rule="evenodd" d="m12.993 14.178 6.742-8.146h-6.742L.729 14.922a5.824 5.824 0 0 0 11.648 0l.616-.745zm45.976.743a5.824 5.824 0 0 1-11.648 0l-.616-.743-6.742-8.145h6.742L58.97 14.92zm-23.296 0a5.824 5.824 0 0 1-11.648 0l1.224-4.435 1.229-4.454h6.742l1.194 4.454 1.188 4.435h.07z" fill="#F79595"/><path fill-rule="evenodd" clip-rule="evenodd" d="M12.377 14.921a5.824 5.824 0 1 1-11.648 0h11.648z" fill="#F47C7C"/><path fill-rule="evenodd" clip-rule="evenodd" d="M24.025 14.921a5.824 5.824 0 0 1-11.648 0h11.648z" fill="#EFE2DD"/><path fill-rule="evenodd" clip-rule="evenodd" d="M35.673 14.921a5.824 5.824 0 1 1-11.648 0h11.648z" fill="#F47C7C"/><path fill-rule="evenodd" clip-rule="evenodd" d="M47.32 14.921a5.824 5.824 0 0 1-11.647 0H47.32z" fill="#EFE2DD"/><path fill-rule="evenodd" clip-rule="evenodd" d="M58.969 14.921a5.824 5.824 0 1 1-11.648 0h11.648z" fill="#F47C7C"/><path fill-rule="evenodd" clip-rule="evenodd" d="M58.185 15.65H48.099a5.105 5.105 0 0 0 5.046 4.367 5.1 5.1 0 0 0 5.04-4.368zm-12.21 38.014V19.697a6.561 6.561 0 0 1-2.202 1.37V48.96a.732.732 0 0 1-.73.727H16.654a.728.728 0 0 1-.73-.727V21.066a6.502 6.502 0 0 1-2.204-1.369v33.966a4.578 4.578 0 0 0 4.572 4.578h23.105a4.583 4.583 0 0 0 4.578-4.578zM11.593 15.648H1.508c.36 2.467 2.483 4.368 5.046 4.368a5.1 5.1 0 0 0 5.04-4.368zm2.186-10.344h32.14a4.588 4.588 0 0 0-4.52-3.849H18.293a4.582 4.582 0 0 0-4.514 3.849zm42.945 8.888L46.468 6.761h-4.955l6.153 7.432h9.059zM46.541 15.65a5.105 5.105 0 0 1-5.046 4.368 5.058 5.058 0 0 1-3.601-1.492 5.069 5.069 0 0 1-1.444-2.876H46.54zm-29.16 32.582v-26.81c.267.034.541.053.821.053a6.568 6.568 0 0 0 5.822-3.548 6.351 6.351 0 0 0 1.193 1.629 6.498 6.498 0 0 0 4.629 1.919 6.555 6.555 0 0 0 5.822-3.548c.312.6.714 1.15 1.193 1.629a6.512 6.512 0 0 0 5.45 1.867v26.81h-24.93zM13.155 15.65h10.086a5.1 5.1 0 0 1-5.04 4.368 5.105 5.105 0 0 1-5.046-4.368zM25.52 6.761h-5.445l-6.153 7.432h9.55l2.048-7.432zm-.713 8.888h10.085a5.105 5.105 0 0 1-5.045 4.368 5.067 5.067 0 0 1-3.602-1.492 5.06 5.06 0 0 1-1.438-2.876zm2.226-8.888h5.634l2.049 7.432h-9.732l2.049-7.432zm7.146 0h5.44l6.152 7.432h-9.543l-2.049-7.432zm-20.953 0h4.96l-6.153 7.432H2.974l10.25-7.432zm46.472 8.16a6.56 6.56 0 0 1-6.552 6.553 6.559 6.559 0 0 1-5.714-3.345v35.534a6.039 6.039 0 0 1-6.033 6.034H18.293c-3.321 0-6.027-2.706-6.027-6.034V18.13a6.559 6.559 0 0 1-5.713 3.345A6.56 6.56 0 0 1 0 14.922c0-.234.114-.453.302-.59l11.975-8.68c.2-3.15 2.82-5.652 6.016-5.652h23.105a6.04 6.04 0 0 1 6.022 5.651l11.975 8.681a.73.73 0 0 1 .302.59zm-27.54 22.304c0 .57-.987 1.206-2.311 1.206-1.319 0-2.312-.637-2.312-1.206 0-.57.993-1.207 2.312-1.207 1.324 0 2.311.637 2.311 1.207zm1.462 0c0 1.493-1.656 2.662-3.773 2.662-2.112 0-3.767-1.17-3.767-2.662 0-1.494 1.655-2.663 3.767-2.663 2.117 0 3.773 1.17 3.773 2.663zm3.076 5.863a.862.862 0 0 1-.867.945H23.87a.861.861 0 0 1-.868-.945l1.039-11.879a.873.873 0 0 1 .867-.793h1.108v.972a.727.727 0 1 0 1.455 0v-.972h4.755v.972a.727.727 0 1 0 1.455 0v-.972h1.102a.865.865 0 0 1 .867.793l1.045 11.88zM27.471 28.96v-.913a2.38 2.38 0 0 1 2.375-2.376 2.38 2.38 0 0 1 2.38 2.376v.913H27.47zm10.674 14c.057.651-.16 1.299-.6 1.777a2.343 2.343 0 0 1-1.717.752H23.87c-.65 0-1.279-.274-1.718-.752a2.328 2.328 0 0 1-.6-1.776l1.04-11.878a2.315 2.315 0 0 1 2.317-2.123h1.107v-.913a3.835 3.835 0 0 1 3.83-3.832 3.837 3.837 0 0 1 3.836 3.832v.913h1.101a2.31 2.31 0 0 1 2.318 2.123l1.044 11.878zm-4.63 11.51a.728.728 0 0 1-.73.727h-5.028a.727.727 0 0 1 0-1.456h5.028a.728.728 0 0 1 .73.728z" fill="#000"/></svg>