<svg width="51" height="61" fill="none" xmlns="http://www.w3.org/2000/svg"><path d="M16.953 48.71 10.6 36.003 24.012 9.177v22.88a3.53 3.53 0 1 0 2.824 0V9.177L40.25 36.003 33.896 48.71H16.953zm-1.412 4.236h19.767v7.06H15.54v-7.06z" fill="#FFBA00"/><path d="M13.423 48.71h24.002v4.236H13.423V48.71z" fill="#FF8E00"/><path d="M23.306.706h4.236v4.236h-4.236V.706zM.716 25.414h4.236v4.236H.716v-4.236zm45.18 0h4.236v4.236h-4.235v-4.236zM48.015 4.942a2.118 2.118 0 1 0 0-4.236 2.118 2.118 0 0 0 0 4.236zM2.834 4.942a2.118 2.118 0 1 0 0-4.236 2.118 2.118 0 0 0 0 4.236z" fill="#6499F3"/><path d="M27.468 8.862a.706.706 0 0 0-1.337.315v22.88a.705.705 0 0 0 .42.645 2.824 2.824 0 1 1-2.252 0 .706.706 0 0 0 .42-.645V9.177a.707.707 0 0 0-1.337-.315L9.969 35.687a.706.706 0 0 0 0 .632l5.842 11.685h-2.387a.706.706 0 0 0-.706.706v4.236a.706.706 0 0 0 .706.706h1.412v6.353a.706.706 0 1 0 1.411 0v-6.353h18.355v6.353a.706.706 0 0 0 1.412 0v-6.353h1.412a.706.706 0 0 0 .706-.706V48.71a.706.706 0 0 0-.706-.706h-2.388l5.843-11.685a.706.706 0 0 0 0-.632L27.468 8.863zM36.72 52.24H14.13v-2.824h22.59v2.824zm-3.26-4.236H17.39l-6-12 11.917-23.836v19.458a4.235 4.235 0 1 0 4.236 0V12.168L39.46 36.003l-6 12.001z" fill="#32233F"/><path d="M50.133 24.708h-1.429A23.155 23.155 0 0 0 33.456 3.53h11.835a2.824 2.824 0 1 0 0-1.412H28.248V.706A.706.706 0 0 0 27.542 0h-4.235a.706.706 0 0 0-.706.706v1.412H5.558a2.824 2.824 0 1 0 0 1.412h11.835A23.155 23.155 0 0 0 2.145 24.708H.717a.706.706 0 0 0-.706.706v4.236a.706.706 0 0 0 .706.706h4.235a.706.706 0 0 0 .706-.706v-4.236a.706.706 0 0 0-.706-.706H3.557A21.754 21.754 0 0 1 22.6 3.715v1.227a.706.706 0 0 0 .706.706h4.235a.706.706 0 0 0 .706-.706V3.715a21.754 21.754 0 0 1 19.044 20.993h-1.395a.706.706 0 0 0-.706.706v4.236a.706.706 0 0 0 .706.706h4.236a.706.706 0 0 0 .705-.706v-4.236a.706.706 0 0 0-.706-.706zM4.245 28.944H1.422V26.12h2.824v2.824zM48.015 1.412a1.412 1.412 0 1 1 0 2.823 1.412 1.412 0 0 1 0-2.823zM2.835 4.236a1.412 1.412 0 1 1 0-2.824 1.412 1.412 0 0 1 0 2.824zm24.001 0h-2.823V1.412h2.823v2.824zm22.59 24.708h-2.823V26.12h2.823v2.824z" fill="#32233F"/></svg>