<svg width="63" height="50" fill="none" xmlns="http://www.w3.org/2000/svg"><path d="m42.652 25.12-2.078.692-1.884-5.653 1.884-5.654 2.078.693a5.23 5.23 0 0 1 0 9.922z" fill="#FD4755"/><path d="m27.16 36.068-1.883.504-3.707-4.42 1.756-2.86 3.64-.976 1.48 5.523a1.82 1.82 0 0 1-1.287 2.23z" fill="#0055A3"/><path d="m31.574 45.513-.269-1.003a1.82 1.82 0 0 0-2.229-1.287l-.125.033a1.82 1.82 0 0 1-2.228-1.287l-2.815-10.504-5.948-1.198-5.653 1.198a4.95 4.95 0 0 1 4.78 3.669l2.859 10.669a3.64 3.64 0 0 0 4.458 2.574l6.526-1.75a.91.91 0 0 0 .644-1.114z" fill="#E41F2D"/><path d="M12.307 8.852C6.062 8.852 1 13.914 1 20.16c0 6.244 5.062 11.307 11.307 11.307h5.653l1.885-11.307L17.96 8.852h-5.653z" fill="#FD4755"/><path d="M7.453 26.613c-1.872 0-3.637-.456-5.192-1.26a11.306 11.306 0 0 0 10.046 6.113h5.653l.81-4.854H7.452z" fill="#FB2B3A"/><path d="M37.467 2.537 35.594 4.41a15.167 15.167 0 0 1-10.725 4.442H17.96v22.614h6.91c4.022 0 7.88 1.598 10.724 4.442l1.873 1.873c1.146 1.147 3.107.335 3.107-1.287V3.824c0-1.622-1.96-2.434-3.107-1.287z" fill="#DFF6FD"/><path d="M37.467 2.537 35.72 4.283v24.709c0 2.599-3.142 3.9-4.98 2.063a15.167 15.167 0 0 0-10.724-4.443H17.96v4.854h6.91c4.022 0 7.88 1.597 10.724 4.442l1.873 1.873c1.146 1.147 3.107.334 3.107-1.287V3.824c0-1.622-1.96-2.434-3.107-1.287z" fill="#C8EFFE"/><path d="M59.419 21.482h-5.654a1.884 1.884 0 1 1 0-3.769h5.654a1.884 1.884 0 1 1 0 3.769zM55.232 7.605l-3.998 3.997a1.884 1.884 0 0 1-2.665-2.665l3.998-3.997a1.884 1.884 0 0 1 2.665 2.665zm0 23.985-3.998-3.997a1.884 1.884 0 0 0-2.665 2.665l3.998 3.997a1.884 1.884 0 0 0 2.665-2.665z" fill="#01C0FA"/><path d="M58.8 17.713h.619a1.885 1.885 0 0 1 0 3.769h-5.654a1.884 1.884 0 0 1 0-3.769h.788M19.624 44.6l.322 1.203a3.64 3.64 0 0 0 4.458 2.574l6.527-1.749a.91.91 0 0 0 .643-1.115l-.268-1.003a1.82 1.82 0 0 0-2.23-1.287l-.124.033a1.82 1.82 0 0 1-2.23-1.287l-2.814-10.504m-11.6 0a4.95 4.95 0 0 1 4.78 3.669l1.391 5.193M55.232 7.605l-3.998 3.997a1.884 1.884 0 0 1-2.665-2.665l3.998-3.997a1.884 1.884 0 1 1 2.665 2.665zm0 23.985-3.998-3.997a1.884 1.884 0 0 0-2.665 2.665l3.998 3.997a1.884 1.884 0 1 0 2.665-2.665z" stroke="#000" stroke-width="2" stroke-miterlimit="10" stroke-linecap="round" stroke-linejoin="round"/><path d="m27.892 31.77.554 2.069a1.82 1.82 0 0 1-1.287 2.229l-1.882.504M17.96 8.852h-5.653C6.062 8.852 1 13.914 1 20.16c0 6.244 5.062 11.307 11.307 11.307h5.653" stroke="#000" stroke-width="2" stroke-miterlimit="10" stroke-linecap="round" stroke-linejoin="round"/><path d="M18.95 8.852h-.99v22.614h6.91c4.022 0 7.88 1.598 10.724 4.442l1.873 1.873c1.146 1.147 3.107.335 3.107-1.287V3.824c0-1.622-1.96-2.434-3.107-1.287L35.594 4.41a15.167 15.167 0 0 1-10.725 4.442h-1.673m17.378 16.96 2.078-.692a5.229 5.229 0 0 0 0-9.922l-2.078-.692M1.644 16.39h5.01M1 20.159h5.653m-5.01 3.769h5.01M36.805 8.852v22.614M14.19 12.62v15.076" stroke="#000" stroke-width="2" stroke-miterlimit="10" stroke-linecap="round" stroke-linejoin="round"/></svg>