<svg width="63" height="63" fill="none" xmlns="http://www.w3.org/2000/svg"><path d="M61.091 33.808c0 20.472-13.443 27.296-30.026 27.296S1.039 54.28 1.039 33.808c0-19.107 13.443-32.756 30.026-32.756S61.09 14.701 61.09 33.808z" fill="#F5F5F5"/><path d="M31.065 1.052c-.521 0-1.039.014-1.553.04 15.86.829 28.473 14.21 28.473 32.719 0 19.826-12.612 26.851-28.473 27.273.514.013 1.032.02 1.553.02 16.582 0 30.026-6.824 30.026-27.296 0-19.107-13.444-32.756-30.026-32.756z" fill="#CFD8DC"/><path d="M42.454 22.795H19.675c-8.005 0-14.495 6.49-14.495 14.496 0 8.005 6.49 14.495 14.495 14.495h22.779c8.005 0 14.495-6.49 14.495-14.495 0-8.006-6.49-14.496-14.495-14.496z" fill="#607D8B"/><path d="M42.454 22.795h-3.106c8.005 0 14.495 6.49 14.495 14.496 0 8.005-6.49 14.495-14.495 14.495h3.106c8.006 0 14.495-6.49 14.495-14.495 0-8.006-6.49-14.496-14.495-14.496z" fill="#37474F"/><path d="M7.25 5.194a2.07 2.07 0 1 0 0-4.142 2.07 2.07 0 0 0 0 4.142zM54.879 5.194a2.07 2.07 0 1 0 0-4.142 2.07 2.07 0 0 0 0 4.142z" fill="#02A9F4"/><path d="M16.57 38.326a4.141 4.141 0 1 0 0-8.283 4.141 4.141 0 0 0 0 8.283zM45.56 38.326a4.142 4.142 0 1 0 0-8.283 4.142 4.142 0 0 0 0 8.283zM26.924 40.397h8.283a1.035 1.035 0 0 1 1.035 1.035 5.177 5.177 0 1 1-10.354 0 1.036 1.036 0 0 1 1.036-1.035z" fill="#00BCD4"/><path d="M19.676 21.76c-8.577 0-15.531 6.953-15.531 15.53 0 8.578 6.954 15.531 15.53 15.531h22.78c8.576 0 15.53-6.953 15.53-15.53 0-8.577-6.954-15.531-15.53-15.531h-22.78zm36.238 15.53c-.008 7.43-6.03 13.452-13.46 13.46H19.676c-7.434 0-13.46-6.025-13.46-13.46 0-7.433 6.026-13.46 13.46-13.46h22.778c7.43.009 13.452 6.03 13.46 13.46zM27.96 19.69h6.212a1.036 1.036 0 0 0 0-2.072H27.96a1.035 1.035 0 1 0 0 2.071zm2.07-3.107H32.1a1.036 1.036 0 0 0 0-2.07h-2.07a1.036 1.036 0 0 0 0 2.07z" fill="#000"/><path d="M55.914 6.039a3.106 3.106 0 1 0-2.07 0v4.348A29.727 29.727 0 0 0 31.063.017 29.727 29.727 0 0 0 8.287 10.383V6.035a3.106 3.106 0 1 0-2.07 0v7.007A36.172 36.172 0 0 0 .003 33.808c0 18.535 10.741 28.332 31.062 28.332 20.32 0 31.061-9.797 31.061-28.332a36.173 36.173 0 0 0-6.212-20.762V6.04zm-1.035-3.951a1.035 1.035 0 1 1 0 2.07 1.035 1.035 0 0 1 0-2.07zm-47.628 0a1.035 1.035 0 1 1 0 2.07 1.035 1.035 0 0 1 0-2.07zm23.814 57.981c-13.225 0-28.99-4.556-28.99-26.261 0-18.083 12.463-31.72 28.99-31.72s28.99 13.637 28.99 31.72c0 21.706-15.765 26.261-28.99 26.261z" fill="#000"/><path d="M16.57 29.008a5.177 5.177 0 1 0 0 10.353 5.177 5.177 0 0 0 0-10.353zm0 8.283a3.106 3.106 0 1 1 0-6.213 3.106 3.106 0 0 1 0 6.213zm23.813-3.106a5.177 5.177 0 1 0 10.354 0 5.177 5.177 0 0 0-10.354 0zm5.177-3.107a3.106 3.106 0 1 1 0 6.212 3.106 3.106 0 0 1 0-6.212zm-10.354 8.283h-8.283a2.07 2.07 0 0 0-2.07 2.071 6.212 6.212 0 1 0 12.424 0 2.07 2.07 0 0 0-2.07-2.07zm-4.141 6.213a4.142 4.142 0 0 1-4.142-4.142h8.283a4.141 4.141 0 0 1-4.141 4.142z" fill="#000"/></svg>